<svg viewBox="0 0 720 960" xmlns="http://www.w3.org/2000/svg" font-family="system-ui, -apple-system, 'Segoe UI', Roboto, sans-serif" role="img" aria-label="Plano del aula L1-A-ESC: el equipo del profesor lanza un comando que se ejecuta a la vez en los 32 puestos del aula con una red en formato de circuito integrado.">
  <defs>
    <radialGradient id="aulaBg" cx="50%" cy="28%" r="85%">
      <stop offset="0%" stop-color="#11180f"/>
      <stop offset="55%" stop-color="#0a0e08"/>
      <stop offset="100%" stop-color="#070a05"/>
    </radialGradient>
    <linearGradient id="profGrad" x1="0%" y1="0%" x2="100%" y2="100%">
      <stop offset="0%" stop-color="rgba(147,189,34,0.35)"/>
      <stop offset="100%" stop-color="rgba(10,10,10,0.92)"/>
    </linearGradient>
    <pattern id="aulaGrid" width="40" height="40" patternUnits="userSpaceOnUse">
      <path d="M 40 0 L 0 0 0 40" fill="none" stroke="#93BD22" stroke-width="0.6" opacity="0.08"/>
    </pattern>
    <pattern id="aulaGridMajor" width="200" height="200" patternUnits="userSpaceOnUse">
      <path d="M 200 0 L 0 0 0 200" fill="none" stroke="#93BD22" stroke-width="1" opacity="0.12"/>
    </pattern>
  </defs>

  <rect width="720" height="960" rx="14" fill="url(#aulaBg)" stroke="#93BD22" stroke-width="1.5"/>
  <rect width="720" height="960" rx="14" fill="url(#aulaGrid)"/>
  <rect width="720" height="960" rx="14" fill="url(#aulaGridMajor)"/>

  <!-- ================= CIRCUITO DE TRÁFICO ESTÁTICO ================= -->
  <g stroke="#5b8aa6" stroke-width="1.5" opacity="0.28">
    <!-- Línea que sube del profesor y se desvía a la mitad (Y=769) en horizontal hacia la izquierda -->
    <path d="M570,830 L570,769 L216,769" fill="none"/>
    <!-- Las 4 derivaciones verticales exactas que alimentan la base de cada columna -->
    <path d="M216,769 L216,706" fill="none"/>
    <path d="M334,769 L334,706" fill="none"/>
    <path d="M452,769 L452,706" fill="none"/>
    <path d="M570,769 L570,706" fill="none"/>
  </g>

  <!-- Buses internos de distribución vertical de hileras -->
  <g>
    <line x1="216" y1="98.0" x2="216" y2="661.0" stroke="#93BD22" stroke-width="1.5" opacity="0.18"/>
    <line x1="334" y1="98.0" x2="334" y2="661.0" stroke="#93BD22" stroke-width="1.5" opacity="0.18"/>
    <line x1="452" y1="98.0" x2="452" y2="661.0" stroke="#93BD22" stroke-width="1.5" opacity="0.18"/>
    <line x1="570" y1="98.0" x2="570" y2="661.0" stroke="#93BD22" stroke-width="1.5" opacity="0.18"/>
  </g>

  <!-- ================= PULSOS ANIMADOS (Sincronización de velocidad para impacto simultáneo a los 2.5s) ================= -->
  <g>
    <!-- Pulso Columna 1 (PC-29 a PC-01): Recorre la máxima distancia, va muy rápido -->
    <g opacity="0">
      <path d="M-6,-6 L6,0 L-6,6" fill="none" stroke="#93BD22" stroke-width="3" stroke-linecap="round" stroke-linejoin="round" style="filter: drop-shadow(0 0 6px rgba(147,189,34,0.9));"/>
      <animateMotion dur="8s" repeatCount="indefinite" keyPoints="0;1;1" keyTimes="0;0.31;1" calcMode="linear" rotate="auto" path="M570,830 L570,769 L216,769 L216,706"/>
      <animate attributeName="opacity" values="0;1;1;0;0" keyTimes="0;0.02;0.29;0.32;1" dur="8s" repeatCount="indefinite"/>
    </g>
    <!-- Pulso Columna 2 (PC-30 a PC-02): Velocidad rápida-media -->
    <g opacity="0">
      <path d="M-6,-6 L6,0 L-6,6" fill="none" stroke="#93BD22" stroke-width="3" stroke-linecap="round" stroke-linejoin="round" style="filter: drop-shadow(0 0 6px rgba(147,189,34,0.9));"/>
      <animateMotion dur="8s" repeatCount="indefinite" keyPoints="0;1;1" keyTimes="0;0.31;1" calcMode="linear" rotate="auto" path="M570,830 L570,769 L334,769 L334,706"/>
      <animate attributeName="opacity" values="0;1;1;0;0" keyTimes="0;0.02;0.29;0.32;1" dur="8s" repeatCount="indefinite"/>
    </g>
    <!-- Pulso Columna 3 (PC-31 a PC-03): Velocidad media -->
    <g opacity="0">
      <path d="M-6,-6 L6,0 L-6,6" fill="none" stroke="#93BD22" stroke-width="3" stroke-linecap="round" stroke-linejoin="round" style="filter: drop-shadow(0 0 6px rgba(147,189,34,0.9));"/>
      <animateMotion dur="8s" repeatCount="indefinite" keyPoints="0;1;1" keyTimes="0;0.31;1" calcMode="linear" rotate="auto" path="M570,830 L570,769 L452,769 L452,706"/>
      <animate attributeName="opacity" values="0;1;1;0;0" keyTimes="0;0.02;0.29;0.32;1" dur="8s" repeatCount="indefinite"/>
    </g>
    <!-- Pulso Columna 4 (PC-32 a PC-04): Recorrido cortísimo, va muy lento para esperar al resto -->
    <g opacity="0">
      <path d="M-6,-6 L6,0 L-6,6" fill="none" stroke="#93BD22" stroke-width="3" stroke-linecap="round" stroke-linejoin="round" style="filter: drop-shadow(0 0 6px rgba(147,189,34,0.9));"/>
      <animateMotion dur="8s" repeatCount="indefinite" keyPoints="0;1;1" keyTimes="0;0.31;1" calcMode="linear" rotate="auto" path="M570,830 L570,769 L570,706"/>
      <animate attributeName="opacity" values="0;1;1;0;0" keyTimes="0;0.02;0.29;0.32;1" dur="8s" repeatCount="indefinite"/>
    </g>
  </g>

  <!-- ================= PUESTOS DE ALUMNOS (Encendido simultáneo keyTimes coordinado a los 8s) ================= -->
  
  <!-- Columna 1 (X:187) -->
  <g transform="translate(187,50)"><rect x="0" y="0" width="58" height="40" rx="5" fill="#0c1208" stroke="#5b8aa6" stroke-width="1.8"><animate attributeName="stroke" values="#5b8aa6;#5b8aa6;#93BD22;#93BD22;#5b8aa6;#5b8aa6" keyTimes="0;0.30;0.33;0.70;0.74;1" dur="8s" repeatCount="indefinite"/></rect><rect x="6" y="5" width="46" height="28" rx="2" fill="#0a0f08"><animate attributeName="fill" values="#0a0f08;#0a0f08;#1a2e0a;#1a2e0a;#0a0f08;#0a0f08" keyTimes="0;0.30;0.33;0.70;0.74;1" dur="8s" repeatCount="indefinite"/></rect><path d="M21.0 18.0 l5 5 l11 -11" fill="none" stroke="#93BD22" stroke-width="2.8" stroke-linecap="round" stroke-linejoin="round" opacity="0"><animate attributeName="opacity" values="0;0;1;1;0;0" keyTimes="0;0.31;0.34;0.70;0.73;1" dur="8s" repeatCount="indefinite"/></path><rect x="24.0" y="40" width="10" height="5" fill="#5b8aa6"/><rect x="18.0" y="45" width="22" height="3.5" rx="1.5" fill="#5b8aa6"/><text x="29.0" y="65" text-anchor="middle" fill="#cfd8c2" font-size="12" font-weight="600">PC-29</text></g>
  <g transform="translate(187,138)"><rect x="0" y="0" width="58" height="40" rx="5" fill="#0c1208" stroke="#5b8aa6" stroke-width="1.8"><animate attributeName="stroke" values="#5b8aa6;#5b8aa6;#93BD22;#93BD22;#5b8aa6;#5b8aa6" keyTimes="0;0.30;0.33;0.70;0.74;1" dur="8s" repeatCount="indefinite"/></rect><rect x="6" y="5" width="46" height="28" rx="2" fill="#0a0f08"><animate attributeName="fill" values="#0a0f08;#0a0f08;#1a2e0a;#1a2e0a;#0a0f08;#0a0f08" keyTimes="0;0.30;0.33;0.70;0.74;1" dur="8s" repeatCount="indefinite"/></rect><path d="M21.0 18.0 l5 5 l11 -11" fill="none" stroke="#93BD22" stroke-width="2.8" stroke-linecap="round" stroke-linejoin="round" opacity="0"><animate attributeName="opacity" values="0;0;1;1;0;0" keyTimes="0;0.31;0.34;0.70;0.73;1" dur="8s" repeatCount="indefinite"/></path><rect x="24.0" y="40" width="10" height="5" fill="#5b8aa6"/><rect x="18.0" y="45" width="22" height="3.5" rx="1.5" fill="#5b8aa6"/><text x="29.0" y="65" text-anchor="middle" fill="#cfd8c2" font-size="12" font-weight="600">PC-25</text></g>
  <g transform="translate(187,226)"><rect x="0" y="0" width="58" height="40" rx="5" fill="#0c1208" stroke="#5b8aa6" stroke-width="1.8"><animate attributeName="stroke" values="#5b8aa6;#5b8aa6;#93BD22;#93BD22;#5b8aa6;#5b8aa6" keyTimes="0;0.30;0.33;0.70;0.74;1" dur="8s" repeatCount="indefinite"/></rect><rect x="6" y="5" width="46" height="28" rx="2" fill="#0a0f08"><animate attributeName="fill" values="#0a0f08;#0a0f08;#1a2e0a;#1a2e0a;#0a0f08;#0a0f08" keyTimes="0;0.30;0.33;0.70;0.74;1" dur="8s" repeatCount="indefinite"/></rect><path d="M21.0 18.0 l5 5 l11 -11" fill="none" stroke="#93BD22" stroke-width="2.8" stroke-linecap="round" stroke-linejoin="round" opacity="0"><animate attributeName="opacity" values="0;0;1;1;0;0" keyTimes="0;0.31;0.34;0.70;0.73;1" dur="8s" repeatCount="indefinite"/></path><rect x="24.0" y="40" width="10" height="5" fill="#5b8aa6"/><rect x="18.0" y="45" width="22" height="3.5" rx="1.5" fill="#5b8aa6"/><text x="29.0" y="65" text-anchor="middle" fill="#cfd8c2" font-size="12" font-weight="600">PC-21</text></g>
  <g transform="translate(187,314)"><rect x="0" y="0" width="58" height="40" rx="5" fill="#0c1208" stroke="#5b8aa6" stroke-width="1.8"><animate attributeName="stroke" values="#5b8aa6;#5b8aa6;#93BD22;#93BD22;#5b8aa6;#5b8aa6" keyTimes="0;0.30;0.33;0.70;0.74;1" dur="8s" repeatCount="indefinite"/></rect><rect x="6" y="5" width="46" height="28" rx="2" fill="#0a0f08"><animate attributeName="fill" values="#0a0f08;#0a0f08;#1a2e0a;#1a2e0a;#0a0f08;#0a0f08" keyTimes="0;0.30;0.33;0.70;0.74;1" dur="8s" repeatCount="indefinite"/></rect><path d="M21.0 18.0 l5 5 l11 -11" fill="none" stroke="#93BD22" stroke-width="2.8" stroke-linecap="round" stroke-linejoin="round" opacity="0"><animate attributeName="opacity" values="0;0;1;1;0;0" keyTimes="0;0.31;0.34;0.70;0.73;1" dur="8s" repeatCount="indefinite"/></path><rect x="24.0" y="40" width="10" height="5" fill="#5b8aa6"/><rect x="18.0" y="45" width="22" height="3.5" rx="1.5" fill="#5b8aa6"/><text x="29.0" y="65" text-anchor="middle" fill="#cfd8c2" font-size="12" font-weight="600">PC-17</text></g>
  <g transform="translate(187,402)"><rect x="0" y="0" width="58" height="40" rx="5" fill="#0c1208" stroke="#5b8aa6" stroke-width="1.8"><animate attributeName="stroke" values="#5b8aa6;#5b8aa6;#93BD22;#93BD22;#5b8aa6;#5b8aa6" keyTimes="0;0.30;0.33;0.70;0.74;1" dur="8s" repeatCount="indefinite"/></rect><rect x="6" y="5" width="46" height="28" rx="2" fill="#0a0f08"><animate attributeName="fill" values="#0a0f08;#0a0f08;#1a2e0a;#1a2e0a;#0a0f08;#0a0f08" keyTimes="0;0.30;0.33;0.70;0.74;1" dur="8s" repeatCount="indefinite"/></rect><path d="M21.0 18.0 l5 5 l11 -11" fill="none" stroke="#93BD22" stroke-width="2.8" stroke-linecap="round" stroke-linejoin="round" opacity="0"><animate attributeName="opacity" values="0;0;1;1;0;0" keyTimes="0;0.31;0.34;0.70;0.73;1" dur="8s" repeatCount="indefinite"/></path><rect x="24.0" y="40" width="10" height="5" fill="#5b8aa6"/><rect x="18.0" y="45" width="22" height="3.5" rx="1.5" fill="#5b8aa6"/><text x="29.0" y="65" text-anchor="middle" fill="#cfd8c2" font-size="12" font-weight="600">PC-13</text></g>
  <g transform="translate(187,490)"><rect x="0" y="0" width="58" height="40" rx="5" fill="#0c1208" stroke="#5b8aa6" stroke-width="1.8"><animate attributeName="stroke" values="#5b8aa6;#5b8aa6;#93BD22;#93BD22;#5b8aa6;#5b8aa6" keyTimes="0;0.30;0.33;0.70;0.74;1" dur="8s" repeatCount="indefinite"/></rect><rect x="6" y="5" width="46" height="28" rx="2" fill="#0a0f08"><animate attributeName="fill" values="#0a0f08;#0a0f08;#1a2e0a;#1a2e0a;#0a0f08;#0a0f08" keyTimes="0;0.30;0.33;0.70;0.74;1" dur="8s" repeatCount="indefinite"/></rect><path d="M21.0 18.0 l5 5 l11 -11" fill="none" stroke="#93BD22" stroke-width="2.8" stroke-linecap="round" stroke-linejoin="round" opacity="0"><animate attributeName="opacity" values="0;0;1;1;0;0" keyTimes="0;0.31;0.34;0.70;0.73;1" dur="8s" repeatCount="indefinite"/></path><rect x="24.0" y="40" width="10" height="5" fill="#5b8aa6"/><rect x="18.0" y="45" width="22" height="3.5" rx="1.5" fill="#5b8aa6"/><text x="29.0" y="65" text-anchor="middle" fill="#cfd8c2" font-size="12" font-weight="600">PC-09</text></g>
  <g transform="translate(187,578)"><rect x="0" y="0" width="58" height="40" rx="5" fill="#0c1208" stroke="#5b8aa6" stroke-width="1.8"><animate attributeName="stroke" values="#5b8aa6;#5b8aa6;#93BD22;#93BD22;#5b8aa6;#5b8aa6" keyTimes="0;0.30;0.33;0.70;0.74;1" dur="8s" repeatCount="indefinite"/></rect><rect x="6" y="5" width="46" height="28" rx="2" fill="#0a0f08"><animate attributeName="fill" values="#0a0f08;#0a0f08;#1a2e0a;#1a2e0a;#0a0f08;#0a0f08" keyTimes="0;0.30;0.33;0.70;0.74;1" dur="8s" repeatCount="indefinite"/></rect><path d="M21.0 18.0 l5 5 l11 -11" fill="none" stroke="#93BD22" stroke-width="2.8" stroke-linecap="round" stroke-linejoin="round" opacity="0"><animate attributeName="opacity" values="0;0;1;1;0;0" keyTimes="0;0.31;0.34;0.70;0.73;1" dur="8s" repeatCount="indefinite"/></path><rect x="24.0" y="40" width="10" height="5" fill="#5b8aa6"/><rect x="18.0" y="45" width="22" height="3.5" rx="1.5" fill="#5b8aa6"/><text x="29.0" y="65" text-anchor="middle" fill="#cfd8c2" font-size="12" font-weight="600">PC-05</text></g>
  <g transform="translate(187,666)"><rect x="0" y="0" width="58" height="40" rx="5" fill="#0c1208" stroke="#5b8aa6" stroke-width="1.8"><animate attributeName="stroke" values="#5b8aa6;#5b8aa6;#93BD22;#93BD22;#5b8aa6;#5b8aa6" keyTimes="0;0.30;0.33;0.70;0.74;1" dur="8s" repeatCount="indefinite"/></rect><rect x="6" y="5" width="46" height="28" rx="2" fill="#0a0f08"><animate attributeName="fill" values="#0a0f08;#0a0f08;#1a2e0a;#1a2e0a;#0a0f08;#0a0f08" keyTimes="0;0.30;0.33;0.70;0.74;1" dur="8s" repeatCount="indefinite"/></rect><path d="M21.0 18.0 l5 5 l11 -11" fill="none" stroke="#93BD22" stroke-width="2.8" stroke-linecap="round" stroke-linejoin="round" opacity="0"><animate attributeName="opacity" values="0;0;1;1;0;0" keyTimes="0;0.31;0.34;0.70;0.73;1" dur="8s" repeatCount="indefinite"/></path><rect x="24.0" y="40" width="10" height="5" fill="#5b8aa6"/><rect x="18.0" y="45" width="22" height="3.5" rx="1.5" fill="#5b8aa6"/><text x="29.0" y="65" text-anchor="middle" fill="#cfd8c2" font-size="12" font-weight="600">PC-01</text></g>

  <!-- Columna 2 (X:305) -->
  <g transform="translate(305,50)"><rect x="0" y="0" width="58" height="40" rx="5" fill="#0c1208" stroke="#5b8aa6" stroke-width="1.8"><animate attributeName="stroke" values="#5b8aa6;#5b8aa6;#93BD22;#93BD22;#5b8aa6;#5b8aa6" keyTimes="0;0.30;0.33;0.70;0.74;1" dur="8s" repeatCount="indefinite"/></rect><rect x="6" y="5" width="46" height="28" rx="2" fill="#0a0f08"><animate attributeName="fill" values="#0a0f08;#0a0f08;#1a2e0a;#1a2e0a;#0a0f08;#0a0f08" keyTimes="0;0.30;0.33;0.70;0.74;1" dur="8s" repeatCount="indefinite"/></rect><path d="M21.0 18.0 l5 5 l11 -11" fill="none" stroke="#93BD22" stroke-width="2.8" stroke-linecap="round" stroke-linejoin="round" opacity="0"><animate attributeName="opacity" values="0;0;1;1;0;0" keyTimes="0;0.31;0.34;0.70;0.73;1" dur="8s" repeatCount="indefinite"/></path><rect x="24.0" y="40" width="10" height="5" fill="#5b8aa6"/><rect x="18.0" y="45" width="22" height="3.5" rx="1.5" fill="#5b8aa6"/><text x="29.0" y="65" text-anchor="middle" fill="#cfd8c2" font-size="12" font-weight="600">PC-30</text></g>
  <g transform="translate(305,138)"><rect x="0" y="0" width="58" height="40" rx="5" fill="#0c1208" stroke="#5b8aa6" stroke-width="1.8"><animate attributeName="stroke" values="#5b8aa6;#5b8aa6;#93BD22;#93BD22;#5b8aa6;#5b8aa6" keyTimes="0;0.30;0.33;0.70;0.74;1" dur="8s" repeatCount="indefinite"/></rect><rect x="6" y="5" width="46" height="28" rx="2" fill="#0a0f08"><animate attributeName="fill" values="#0a0f08;#0a0f08;#1a2e0a;#1a2e0a;#0a0f08;#0a0f08" keyTimes="0;0.30;0.33;0.70;0.74;1" dur="8s" repeatCount="indefinite"/></rect><path d="M21.0 18.0 l5 5 l11 -11" fill="none" stroke="#93BD22" stroke-width="2.8" stroke-linecap="round" stroke-linejoin="round" opacity="0"><animate attributeName="opacity" values="0;0;1;1;0;0" keyTimes="0;0.31;0.34;0.70;0.73;1" dur="8s" repeatCount="indefinite"/></path><rect x="24.0" y="40" width="10" height="5" fill="#5b8aa6"/><rect x="18.0" y="45" width="22" height="3.5" rx="1.5" fill="#5b8aa6"/><text x="29.0" y="65" text-anchor="middle" fill="#cfd8c2" font-size="12" font-weight="600">PC-26</text></g>
  <g transform="translate(305,226)"><rect x="0" y="0" width="58" height="40" rx="5" fill="#0c1208" stroke="#5b8aa6" stroke-width="1.8"><animate attributeName="stroke" values="#5b8aa6;#5b8aa6;#93BD22;#93BD22;#5b8aa6;#5b8aa6" keyTimes="0;0.30;0.33;0.70;0.74;1" dur="8s" repeatCount="indefinite"/></rect><rect x="6" y="5" width="46" height="28" rx="2" fill="#0a0f08"><animate attributeName="fill" values="#0a0f08;#0a0f08;#1a2e0a;#1a2e0a;#0a0f08;#0a0f08" keyTimes="0;0.30;0.33;0.70;0.74;1" dur="8s" repeatCount="indefinite"/></rect><path d="M21.0 18.0 l5 5 l11 -11" fill="none" stroke="#93BD22" stroke-width="2.8" stroke-linecap="round" stroke-linejoin="round" opacity="0"><animate attributeName="opacity" values="0;0;1;1;0;0" keyTimes="0;0.31;0.34;0.70;0.73;1" dur="8s" repeatCount="indefinite"/></path><rect x="24.0" y="40" width="10" height="5" fill="#5b8aa6"/><rect x="18.0" y="45" width="22" height="3.5" rx="1.5" fill="#5b8aa6"/><text x="29.0" y="65" text-anchor="middle" fill="#cfd8c2" font-size="12" font-weight="600">PC-22</text></g>
  <g transform="translate(305,314)"><rect x="0" y="0" width="58" height="40" rx="5" fill="#0c1208" stroke="#5b8aa6" stroke-width="1.8"><animate attributeName="stroke" values="#5b8aa6;#5b8aa6;#93BD22;#93BD22;#5b8aa6;#5b8aa6" keyTimes="0;0.30;0.33;0.70;0.74;1" dur="8s" repeatCount="indefinite"/></rect><rect x="6" y="5" width="46" height="28" rx="2" fill="#0a0f08"><animate attributeName="fill" values="#0a0f08;#0a0f08;#1a2e0a;#1a2e0a;#0a0f08;#0a0f08" keyTimes="0;0.30;0.33;0.70;0.74;1" dur="8s" repeatCount="indefinite"/></rect><path d="M21.0 18.0 l5 5 l11 -11" fill="none" stroke="#93BD22" stroke-width="2.8" stroke-linecap="round" stroke-linejoin="round" opacity="0"><animate attributeName="opacity" values="0;0;1;1;0;0" keyTimes="0;0.31;0.34;0.70;0.73;1" dur="8s" repeatCount="indefinite"/></path><rect x="24.0" y="40" width="10" height="5" fill="#5b8aa6"/><rect x="18.0" y="45" width="22" height="3.5" rx="1.5" fill="#5b8aa6"/><text x="29.0" y="65" text-anchor="middle" fill="#cfd8c2" font-size="12" font-weight="600">PC-18</text></g>
  <g transform="translate(305,402)"><rect x="0" y="0" width="58" height="40" rx="5" fill="#0c1208" stroke="#5b8aa6" stroke-width="1.8"><animate attributeName="stroke" values="#5b8aa6;#5b8aa6;#93BD22;#93BD22;#5b8aa6;#5b8aa6" keyTimes="0;0.30;0.33;0.70;0.74;1" dur="8s" repeatCount="indefinite"/></rect><rect x="6" y="5" width="46" height="28" rx="2" fill="#0a0f08"><animate attributeName="fill" values="#0a0f08;#0a0f08;#1a2e0a;#1a2e0a;#0a0f08;#0a0f08" keyTimes="0;0.30;0.33;0.70;0.74;1" dur="8s" repeatCount="indefinite"/></rect><path d="M21.0 18.0 l5 5 l11 -11" fill="none" stroke="#93BD22" stroke-width="2.8" stroke-linecap="round" stroke-linejoin="round" opacity="0"><animate attributeName="opacity" values="0;0;1;1;0;0" keyTimes="0;0.31;0.34;0.70;0.73;1" dur="8s" repeatCount="indefinite"/></path><rect x="24.0" y="40" width="10" height="5" fill="#5b8aa6"/><rect x="18.0" y="45" width="22" height="3.5" rx="1.5" fill="#5b8aa6"/><text x="29.0" y="65" text-anchor="middle" fill="#cfd8c2" font-size="12" font-weight="600">PC-14</text></g>
  <g transform="translate(305,490)"><rect x="0" y="0" width="58" height="40" rx="5" fill="#0c1208" stroke="#5b8aa6" stroke-width="1.8"><animate attributeName="stroke" values="#5b8aa6;#5b8aa6;#93BD22;#93BD22;#5b8aa6;#5b8aa6" keyTimes="0;0.30;0.33;0.70;0.74;1" dur="8s" repeatCount="indefinite"/></rect><rect x="6" y="5" width="46" height="28" rx="2" fill="#0a0f08"><animate attributeName="fill" values="#0a0f08;#0a0f08;#1a2e0a;#1a2e0a;#0a0f08;#0a0f08" keyTimes="0;0.30;0.33;0.70;0.74;1" dur="8s" repeatCount="indefinite"/></rect><path d="M21.0 18.0 l5 5 l11 -11" fill="none" stroke="#93BD22" stroke-width="2.8" stroke-linecap="round" stroke-linejoin="round" opacity="0"><animate attributeName="opacity" values="0;0;1;1;0;0" keyTimes="0;0.31;0.34;0.70;0.73;1" dur="8s" repeatCount="indefinite"/></path><rect x="24.0" y="40" width="10" height="5" fill="#5b8aa6"/><rect x="18.0" y="45" width="22" height="3.5" rx="1.5" fill="#5b8aa6"/><text x="29.0" y="65" text-anchor="middle" fill="#cfd8c2" font-size="12" font-weight="600">PC-10</text></g>
  <g transform="translate(305,578)"><rect x="0" y="0" width="58" height="40" rx="5" fill="#0c1208" stroke="#5b8aa6" stroke-width="1.8"><animate attributeName="stroke" values="#5b8aa6;#5b8aa6;#93BD22;#93BD22;#5b8aa6;#5b8aa6" keyTimes="0;0.30;0.33;0.70;0.74;1" dur="8s" repeatCount="indefinite"/></rect><rect x="6" y="5" width="46" height="28" rx="2" fill="#0a0f08"><animate attributeName="fill" values="#0a0f08;#0a0f08;#1a2e0a;#1a2e0a;#0a0f08;#0a0f08" keyTimes="0;0.30;0.33;0.70;0.74;1" dur="8s" repeatCount="indefinite"/></rect><path d="M21.0 18.0 l5 5 l11 -11" fill="none" stroke="#93BD22" stroke-width="2.8" stroke-linecap="round" stroke-linejoin="round" opacity="0"><animate attributeName="opacity" values="0;0;1;1;0;0" keyTimes="0;0.31;0.34;0.70;0.73;1" dur="8s" repeatCount="indefinite"/></path><rect x="24.0" y="40" width="10" height="5" fill="#5b8aa6"/><rect x="18.0" y="45" width="22" height="3.5" rx="1.5" fill="#5b8aa6"/><text x="29.0" y="65" text-anchor="middle" fill="#cfd8c2" font-size="12" font-weight="600">PC-06</text></g>
  <g transform="translate(305,666)"><rect x="0" y="0" width="58" height="40" rx="5" fill="#0c1208" stroke="#5b8aa6" stroke-width="1.8"><animate attributeName="stroke" values="#5b8aa6;#5b8aa6;#93BD22;#93BD22;#5b8aa6;#5b8aa6" keyTimes="0;0.30;0.33;0.70;0.74;1" dur="8s" repeatCount="indefinite"/></rect><rect x="6" y="5" width="46" height="28" rx="2" fill="#0a0f08"><animate attributeName="fill" values="#0a0f08;#0a0f08;#1a2e0a;#1a2e0a;#0a0f08;#0a0f08" keyTimes="0;0.30;0.33;0.70;0.74;1" dur="8s" repeatCount="indefinite"/></rect><path d="M21.0 18.0 l5 5 l11 -11" fill="none" stroke="#93BD22" stroke-width="2.8" stroke-linecap="round" stroke-linejoin="round" opacity="0"><animate attributeName="opacity" values="0;0;1;1;0;0" keyTimes="0;0.31;0.34;0.70;0.73;1" dur="8s" repeatCount="indefinite"/></path><rect x="24.0" y="40" width="10" height="5" fill="#5b8aa6"/><rect x="18.0" y="45" width="22" height="3.5" rx="1.5" fill="#5b8aa6"/><text x="29.0" y="65" text-anchor="middle" fill="#cfd8c2" font-size="12" font-weight="600">PC-02</text></g>

  <!-- Columna 3 (X:423) -->
  <g transform="translate(423,50)"><rect x="0" y="0" width="58" height="40" rx="5" fill="#0c1208" stroke="#5b8aa6" stroke-width="1.8"><animate attributeName="stroke" values="#5b8aa6;#5b8aa6;#93BD22;#93BD22;#5b8aa6;#5b8aa6" keyTimes="0;0.30;0.33;0.70;0.74;1" dur="8s" repeatCount="indefinite"/></rect><rect x="6" y="5" width="46" height="28" rx="2" fill="#0a0f08"><animate attributeName="fill" values="#0a0f08;#0a0f08;#1a2e0a;#1a2e0a;#0a0f08;#0a0f08" keyTimes="0;0.30;0.33;0.70;0.74;1" dur="8s" repeatCount="indefinite"/></rect><path d="M21.0 18.0 l5 5 l11 -11" fill="none" stroke="#93BD22" stroke-width="2.8" stroke-linecap="round" stroke-linejoin="round" opacity="0"><animate attributeName="opacity" values="0;0;1;1;0;0" keyTimes="0;0.31;0.34;0.70;0.73;1" dur="8s" repeatCount="indefinite"/></path><rect x="24.0" y="40" width="10" height="5" fill="#5b8aa6"/><rect x="18.0" y="45" width="22" height="3.5" rx="1.5" fill="#5b8aa6"/><text x="29.0" y="65" text-anchor="middle" fill="#cfd8c2" font-size="12" font-weight="600">PC-31</text></g>
  <g transform="translate(423,138)"><rect x="0" y="0" width="58" height="40" rx="5" fill="#0c1208" stroke="#5b8aa6" stroke-width="1.8"><animate attributeName="stroke" values="#5b8aa6;#5b8aa6;#93BD22;#93BD22;#5b8aa6;#5b8aa6" keyTimes="0;0.30;0.33;0.70;0.74;1" dur="8s" repeatCount="indefinite"/></rect><rect x="6" y="5" width="46" height="28" rx="2" fill="#0a0f08"><animate attributeName="fill" values="#0a0f08;#0a0f08;#1a2e0a;#1a2e0a;#0a0f08;#0a0f08" keyTimes="0;0.30;0.33;0.70;0.74;1" dur="8s" repeatCount="indefinite"/></rect><path d="M21.0 18.0 l5 5 l11 -11" fill="none" stroke="#93BD22" stroke-width="2.8" stroke-linecap="round" stroke-linejoin="round" opacity="0"><animate attributeName="opacity" values="0;0;1;1;0;0" keyTimes="0;0.31;0.34;0.70;0.73;1" dur="8s" repeatCount="indefinite"/></path><rect x="24.0" y="40" width="10" height="5" fill="#5b8aa6"/><rect x="18.0" y="45" width="22" height="3.5" rx="1.5" fill="#5b8aa6"/><text x="29.0" y="65" text-anchor="middle" fill="#cfd8c2" font-size="12" font-weight="600">PC-27</text></g>
  <g transform="translate(423,226)"><rect x="0" y="0" width="58" height="40" rx="5" fill="#0c1208" stroke="#5b8aa6" stroke-width="1.8"><animate attributeName="stroke" values="#5b8aa6;#5b8aa6;#93BD22;#93BD22;#5b8aa6;#5b8aa6" keyTimes="0;0.30;0.33;0.70;0.74;1" dur="8s" repeatCount="indefinite"/></rect><rect x="6" y="5" width="46" height="28" rx="2" fill="#0a0f08"><animate attributeName="fill" values="#0a0f08;#0a0f08;#1a2e0a;#1a2e0a;#0a0f08;#0a0f08" keyTimes="0;0.30;0.33;0.70;0.74;1" dur="8s" repeatCount="indefinite"/></rect><path d="M21.0 18.0 l5 5 l11 -11" fill="none" stroke="#93BD22" stroke-width="2.8" stroke-linecap="round" stroke-linejoin="round" opacity="0"><animate attributeName="opacity" values="0;0;1;1;0;0" keyTimes="0;0.31;0.34;0.70;0.73;1" dur="8s" repeatCount="indefinite"/></path><rect x="24.0" y="40" width="10" height="5" fill="#5b8aa6"/><rect x="18.0" y="45" width="22" height="3.5" rx="1.5" fill="#5b8aa6"/><text x="29.0" y="65" text-anchor="middle" fill="#cfd8c2" font-size="12" font-weight="600">PC-23</text></g>
  <g transform="translate(423,314)"><rect x="0" y="0" width="58" height="40" rx="5" fill="#0c1208" stroke="#5b8aa6" stroke-width="1.8"><animate attributeName="stroke" values="#5b8aa6;#5b8aa6;#93BD22;#93BD22;#5b8aa6;#5b8aa6" keyTimes="0;0.30;0.33;0.70;0.74;1" dur="8s" repeatCount="indefinite"/></rect><rect x="6" y="5" width="46" height="28" rx="2" fill="#0a0f08"><animate attributeName="fill" values="#0a0f08;#0a0f08;#1a2e0a;#1a2e0a;#0a0f08;#0a0f08" keyTimes="0;0.30;0.33;0.70;0.74;1" dur="8s" repeatCount="indefinite"/></rect><path d="M21.0 18.0 l5 5 l11 -11" fill="none" stroke="#93BD22" stroke-width="2.8" stroke-linecap="round" stroke-linejoin="round" opacity="0"><animate attributeName="opacity" values="0;0;1;1;0;0" keyTimes="0;0.31;0.34;0.70;0.73;1" dur="8s" repeatCount="indefinite"/></path><rect x="24.0" y="40" width="10" height="5" fill="#5b8aa6"/><rect x="18.0" y="45" width="22" height="3.5" rx="1.5" fill="#5b8aa6"/><text x="29.0" y="65" text-anchor="middle" fill="#cfd8c2" font-size="12" font-weight="600">PC-19</text></g>
  <g transform="translate(423,402)"><rect x="0" y="0" width="58" height="40" rx="5" fill="#0c1208" stroke="#5b8aa6" stroke-width="1.8"><animate attributeName="stroke" values="#5b8aa6;#5b8aa6;#93BD22;#93BD22;#5b8aa6;#5b8aa6" keyTimes="0;0.30;0.33;0.70;0.74;1" dur="8s" repeatCount="indefinite"/></rect><rect x="6" y="5" width="46" height="28" rx="2" fill="#0a0f08"><animate attributeName="fill" values="#0a0f08;#0a0f08;#1a2e0a;#1a2e0a;#0a0f08;#0a0f08" keyTimes="0;0.30;0.33;0.70;0.74;1" dur="8s" repeatCount="indefinite"/></rect><path d="M21.0 18.0 l5 5 l11 -11" fill="none" stroke="#93BD22" stroke-width="2.8" stroke-linecap="round" stroke-linejoin="round" opacity="0"><animate attributeName="opacity" values="0;0;1;1;0;0" keyTimes="0;0.31;0.34;0.70;0.73;1" dur="8s" repeatCount="indefinite"/></path><rect x="24.0" y="40" width="10" height="5" fill="#5b8aa6"/><rect x="18.0" y="45" width="22" height="3.5" rx="1.5" fill="#5b8aa6"/><text x="29.0" y="65" text-anchor="middle" fill="#cfd8c2" font-size="12" font-weight="600">PC-15</text></g>
  <g transform="translate(423,490)"><rect x="0" y="0" width="58" height="40" rx="5" fill="#0c1208" stroke="#5b8aa6" stroke-width="1.8"><animate attributeName="stroke" values="#5b8aa6;#5b8aa6;#93BD22;#93BD22;#5b8aa6;#5b8aa6" keyTimes="0;0.30;0.33;0.70;0.74;1" dur="8s" repeatCount="indefinite"/></rect><rect x="6" y="5" width="46" height="28" rx="2" fill="#0a0f08"><animate attributeName="fill" values="#0a0f08;#0a0f08;#1a2e0a;#1a2e0a;#0a0f08;#0a0f08" keyTimes="0;0.30;0.33;0.70;0.74;1" dur="8s" repeatCount="indefinite"/></rect><path d="M21.0 18.0 l5 5 l11 -11" fill="none" stroke="#93BD22" stroke-width="2.8" stroke-linecap="round" stroke-linejoin="round" opacity="0"><animate attributeName="opacity" values="0;0;1;1;0;0" keyTimes="0;0.31;0.34;0.70;0.73;1" dur="8s" repeatCount="indefinite"/></path><rect x="24.0" y="40" width="10" height="5" fill="#5b8aa6"/><rect x="18.0" y="45" width="22" height="3.5" rx="1.5" fill="#5b8aa6"/><text x="29.0" y="65" text-anchor="middle" fill="#cfd8c2" font-size="12" font-weight="600">PC-11</text></g>
  <g transform="translate(423,578)"><rect x="0" y="0" width="58" height="40" rx="5" fill="#0c1208" stroke="#5b8aa6" stroke-width="1.8"><animate attributeName="stroke" values="#5b8aa6;#5b8aa6;#93BD22;#93BD22;#5b8aa6;#5b8aa6" keyTimes="0;0.30;0.33;0.70;0.74;1" dur="8s" repeatCount="indefinite"/></rect><rect x="6" y="5" width="46" height="28" rx="2" fill="#0a0f08"><animate attributeName="fill" values="#0a0f08;#0a0f08;#1a2e0a;#1a2e0a;#0a0f08;#0a0f08" keyTimes="0;0.30;0.33;0.70;0.74;1" dur="8s" repeatCount="indefinite"/></rect><path d="M21.0 18.0 l5 5 l11 -11" fill="none" stroke="#93BD22" stroke-width="2.8" stroke-linecap="round" stroke-linejoin="round" opacity="0"><animate attributeName="opacity" values="0;0;1;1;0;0" keyTimes="0;0.31;0.34;0.70;0.73;1" dur="8s" repeatCount="indefinite"/></path><rect x="24.0" y="40" width="10" height="5" fill="#5b8aa6"/><rect x="18.0" y="45" width="22" height="3.5" rx="1.5" fill="#5b8aa6"/><text x="29.0" y="65" text-anchor="middle" fill="#cfd8c2" font-size="12" font-weight="600">PC-07</text></g>
  <g transform="translate(423,666)"><rect x="0" y="0" width="58" height="40" rx="5" fill="#0c1208" stroke="#5b8aa6" stroke-width="1.8"><animate attributeName="stroke" values="#5b8aa6;#5b8aa6;#93BD22;#93BD22;#5b8aa6;#5b8aa6" keyTimes="0;0.30;0.33;0.70;0.74;1" dur="8s" repeatCount="indefinite"/></rect><rect x="6" y="5" width="46" height="28" rx="2" fill="#0a0f08"><animate attributeName="fill" values="#0a0f08;#0a0f08;#1a2e0a;#1a2e0a;#0a0f08;#0a0f08" keyTimes="0;0.30;0.33;0.70;0.74;1" dur="8s" repeatCount="indefinite"/></rect><path d="M21.0 18.0 l5 5 l11 -11" fill="none" stroke="#93BD22" stroke-width="2.8" stroke-linecap="round" stroke-linejoin="round" opacity="0"><animate attributeName="opacity" values="0;0;1;1;0;0" keyTimes="0;0.31;0.34;0.70;0.73;1" dur="8s" repeatCount="indefinite"/></path><rect x="24.0" y="40" width="10" height="5" fill="#5b8aa6"/><rect x="18.0" y="45" width="22" height="3.5" rx="1.5" fill="#5b8aa6"/><text x="29.0" y="65" text-anchor="middle" fill="#cfd8c2" font-size="12" font-weight="600">PC-03</text></g>

  <!-- Columna 4 (X:541) -->
  <g transform="translate(541,50)"><rect x="0" y="0" width="58" height="40" rx="5" fill="#0c1208" stroke="#5b8aa6" stroke-width="1.8"><animate attributeName="stroke" values="#5b8aa6;#5b8aa6;#93BD22;#93BD22;#5b8aa6;#5b8aa6" keyTimes="0;0.30;0.33;0.70;0.74;1" dur="8s" repeatCount="indefinite"/></rect><rect x="6" y="5" width="46" height="28" rx="2" fill="#0a0f08"><animate attributeName="fill" values="#0a0f08;#0a0f08;#1a2e0a;#1a2e0a;#0a0f08;#0a0f08" keyTimes="0;0.30;0.33;0.70;0.74;1" dur="8s" repeatCount="indefinite"/></rect><path d="M21.0 18.0 l5 5 l11 -11" fill="none" stroke="#93BD22" stroke-width="2.8" stroke-linecap="round" stroke-linejoin="round" opacity="0"><animate attributeName="opacity" values="0;0;1;1;0;0" keyTimes="0;0.31;0.34;0.70;0.73;1" dur="8s" repeatCount="indefinite"/></path><rect x="24.0" y="40" width="10" height="5" fill="#5b8aa6"/><rect x="18.0" y="45" width="22" height="3.5" rx="1.5" fill="#5b8aa6"/><text x="29.0" y="65" text-anchor="middle" fill="#cfd8c2" font-size="12" font-weight="600">PC-32</text></g>
  <g transform="translate(541,138)"><rect x="0" y="0" width="58" height="40" rx="5" fill="#0c1208" stroke="#5b8aa6" stroke-width="1.8"><animate attributeName="stroke" values="#5b8aa6;#5b8aa6;#93BD22;#93BD22;#5b8aa6;#5b8aa6" keyTimes="0;0.30;0.33;0.70;0.74;1" dur="8s" repeatCount="indefinite"/></rect><rect x="6" y="5" width="46" height="28" rx="2" fill="#0a0f08"><animate attributeName="fill" values="#0a0f08;#0a0f08;#1a2e0a;#1a2e0a;#0a0f08;#0a0f08" keyTimes="0;0.30;0.33;0.70;0.74;1" dur="8s" repeatCount="indefinite"/></rect><path d="M21.0 18.0 l5 5 l11 -11" fill="none" stroke="#93BD22" stroke-width="2.8" stroke-linecap="round" stroke-linejoin="round" opacity="0"><animate attributeName="opacity" values="0;0;1;1;0;0" keyTimes="0;0.31;0.34;0.70;0.73;1" dur="8s" repeatCount="indefinite"/></path><rect x="24.0" y="40" width="10" height="5" fill="#5b8aa6"/><rect x="18.0" y="45" width="22" height="3.5" rx="1.5" fill="#5b8aa6"/><text x="29.0" y="65" text-anchor="middle" fill="#cfd8c2" font-size="12" font-weight="600">PC-28</text></g>
  <g transform="translate(541,226)"><rect x="0" y="0" width="58" height="40" rx="5" fill="#0c1208" stroke="#5b8aa6" stroke-width="1.8"><animate attributeName="stroke" values="#5b8aa6;#5b8aa6;#93BD22;#93BD22;#5b8aa6;#5b8aa6" keyTimes="0;0.30;0.33;0.70;0.74;1" dur="8s" repeatCount="indefinite"/></rect><rect x="6" y="5" width="46" height="28" rx="2" fill="#0a0f08"><animate attributeName="fill" values="#0a0f08;#0a0f08;#1a2e0a;#1a2e0a;#0a0f08;#0a0f08" keyTimes="0;0.30;0.33;0.70;0.74;1" dur="8s" repeatCount="indefinite"/></rect><path d="M21.0 18.0 l5 5 l11 -11" fill="none" stroke="#93BD22" stroke-width="2.8" stroke-linecap="round" stroke-linejoin="round" opacity="0"><animate attributeName="opacity" values="0;0;1;1;0;0" keyTimes="0;0.31;0.34;0.70;0.73;1" dur="8s" repeatCount="indefinite"/></path><rect x="24.0" y="40" width="10" height="5" fill="#5b8aa6"/><rect x="18.0" y="45" width="22" height="3.5" rx="1.5" fill="#5b8aa6"/><text x="29.0" y="65" text-anchor="middle" fill="#cfd8c2" font-size="12" font-weight="600">PC-24</text></g>
  <g transform="translate(541,314)"><rect x="0" y="0" width="58" height="40" rx="5" fill="#0c1208" stroke="#5b8aa6" stroke-width="1.8"><animate attributeName="stroke" values="#5b8aa6;#5b8aa6;#93BD22;#93BD22;#5b8aa6;#5b8aa6" keyTimes="0;0.30;0.33;0.70;0.74;1" dur="8s" repeatCount="indefinite"/></rect><rect x="6" y="5" width="46" height="28" rx="2" fill="#0a0f08"><animate attributeName="fill" values="#0a0f08;#0a0f08;#1a2e0a;#1a2e0a;#0a0f08;#0a0f08" keyTimes="0;0.30;0.33;0.70;0.74;1" dur="8s" repeatCount="indefinite"/></rect><path d="M21.0 18.0 l5 5 l11 -11" fill="none" stroke="#93BD22" stroke-width="2.8" stroke-linecap="round" stroke-linejoin="round" opacity="0"><animate attributeName="opacity" values="0;0;1;1;0;0" keyTimes="0;0.31;0.34;0.70;0.73;1" dur="8s" repeatCount="indefinite"/></path><rect x="24.0" y="40" width="10" height="5" fill="#5b8aa6"/><rect x="18.0" y="45" width="22" height="3.5" rx="1.5" fill="#5b8aa6"/><text x="29.0" y="65" text-anchor="middle" fill="#cfd8c2" font-size="12" font-weight="600">PC-20</text></g>
  <g transform="translate(541,402)"><rect x="0" y="0" width="58" height="40" rx="5" fill="#0c1208" stroke="#5b8aa6" stroke-width="1.8"><animate attributeName="stroke" values="#5b8aa6;#5b8aa6;#93BD22;#93BD22;#5b8aa6;#5b8aa6" keyTimes="0;0.30;0.33;0.70;0.74;1" dur="8s" repeatCount="indefinite"/></rect><rect x="6" y="5" width="46" height="28" rx="2" fill="#0a0f08"><animate attributeName="fill" values="#0a0f08;#0a0f08;#1a2e0a;#1a2e0a;#0a0f08;#0a0f08" keyTimes="0;0.30;0.33;0.70;0.74;1" dur="8s" repeatCount="indefinite"/></rect><path d="M21.0 18.0 l5 5 l11 -11" fill="none" stroke="#93BD22" stroke-width="2.8" stroke-linecap="round" stroke-linejoin="round" opacity="0"><animate attributeName="opacity" values="0;0;1;1;0;0" keyTimes="0;0.31;0.34;0.70;0.73;1" dur="8s" repeatCount="indefinite"/></path><rect x="24.0" y="40" width="10" height="5" fill="#5b8aa6"/><rect x="18.0" y="45" width="22" height="3.5" rx="1.5" fill="#5b8aa6"/><text x="29.0" y="65" text-anchor="middle" fill="#cfd8c2" font-size="12" font-weight="600">PC-16</text></g>
  <g transform="translate(541,490)"><rect x="0" y="0" width="58" height="40" rx="5" fill="#0c1208" stroke="#5b8aa6" stroke-width="1.8"><animate attributeName="stroke" values="#5b8aa6;#5b8aa6;#93BD22;#93BD22;#5b8aa6;#5b8aa6" keyTimes="0;0.30;0.33;0.70;0.74;1" dur="8s" repeatCount="indefinite"/></rect><rect x="6" y="5" width="46" height="28" rx="2" fill="#0a0f08"><animate attributeName="fill" values="#0a0f08;#0a0f08;#1a2e0a;#1a2e0a;#0a0f08;#0a0f08" keyTimes="0;0.30;0.33;0.70;0.74;1" dur="8s" repeatCount="indefinite"/></rect><path d="M21.0 18.0 l5 5 l11 -11" fill="none" stroke="#93BD22" stroke-width="2.8" stroke-linecap="round" stroke-linejoin="round" opacity="0"><animate attributeName="opacity" values="0;0;1;1;0;0" keyTimes="0;0.31;0.34;0.70;0.73;1" dur="8s" repeatCount="indefinite"/></path><rect x="24.0" y="40" width="10" height="5" fill="#5b8aa6"/><rect x="18.0" y="45" width="22" height="3.5" rx="1.5" fill="#5b8aa6"/><text x="29.0" y="65" text-anchor="middle" fill="#cfd8c2" font-size="12" font-weight="600">PC-12</text></g>
  <g transform="translate(541,578)"><rect x="0" y="0" width="58" height="40" rx="5" fill="#0c1208" stroke="#5b8aa6" stroke-width="1.8"><animate attributeName="stroke" values="#5b8aa6;#5b8aa6;#93BD22;#93BD22;#5b8aa6;#5b8aa6" keyTimes="0;0.30;0.33;0.70;0.74;1" dur="8s" repeatCount="indefinite"/></rect><rect x="6" y="5" width="46" height="28" rx="2" fill="#0a0f08"><animate attributeName="fill" values="#0a0f08;#0a0f08;#1a2e0a;#1a2e0a;#0a0f08;#0a0f08" keyTimes="0;0.30;0.33;0.70;0.74;1" dur="8s" repeatCount="indefinite"/></rect><path d="M21.0 18.0 l5 5 l11 -11" fill="none" stroke="#93BD22" stroke-width="2.8" stroke-linecap="round" stroke-linejoin="round" opacity="0"><animate attributeName="opacity" values="0;0;1;1;0;0" keyTimes="0;0.31;0.34;0.70;0.73;1" dur="8s" repeatCount="indefinite"/></path><rect x="24.0" y="40" width="10" height="5" fill="#5b8aa6"/><rect x="18.0" y="45" width="22" height="3.5" rx="1.5" fill="#5b8aa6"/><text x="29.0" y="65" text-anchor="middle" fill="#cfd8c2" font-size="12" font-weight="600">PC-08</text></g>
  <g transform="translate(541,666)"><rect x="0" y="0" width="58" height="40" rx="5" fill="#0c1208" stroke="#5b8aa6" stroke-width="1.8"><animate attributeName="stroke" values="#5b8aa6;#5b8aa6;#93BD22;#93BD22;#5b8aa6;#5b8aa6" keyTimes="0;0.30;0.33;0.70;0.74;1" dur="8s" repeatCount="indefinite"/></rect><rect x="6" y="5" width="46" height="28" rx="2" fill="#0a0f08"><animate attributeName="fill" values="#0a0f08;#0a0f08;#1a2e0a;#1a2e0a;#0a0f08;#0a0f08" keyTimes="0;0.30;0.33;0.70;0.74;1" dur="8s" repeatCount="indefinite"/></rect><path d="M21.0 18.0 l5 5 l11 -11" fill="none" stroke="#93BD22" stroke-width="2.8" stroke-linecap="round" stroke-linejoin="round" opacity="0"><animate attributeName="opacity" values="0;0;1;1;0;0" keyTimes="0;0.31;0.34;0.70;0.73;1" dur="8s" repeatCount="indefinite"/></path><rect x="24.0" y="40" width="10" height="5" fill="#5b8aa6"/><rect x="18.0" y="45" width="22" height="3.5" rx="1.5" fill="#5b8aa6"/><text x="29.0" y="65" text-anchor="middle" fill="#cfd8c2" font-size="12" font-weight="600">PC-04</text></g>

  <!-- Puesto del Profesor -->
  <g transform="translate(541,830)">
    <rect x="0" y="0" width="58" height="40" rx="4" fill="url(#profGrad)" stroke="#93BD22" stroke-width="2.5"/>
    <g transform="translate(16.0,9.0) scale(0.24)">
      <path d="M10 12 L58 50 L10 88" fill="none" stroke="#93BD22" stroke-width="13" stroke-linecap="round" stroke-linejoin="round"/>
      <line x1="52" y1="88" x2="92" y2="88" stroke="#93BD22" stroke-width="13" stroke-linecap="round"/>
    </g>
    <rect x="24.0" y="40" width="10" height="5" fill="#93BD22"/>
    <rect x="19.0" y="45" width="20" height="3" rx="1.5" fill="#93BD22"/>
    <text x="29.0" y="64" text-anchor="middle" fill="#93BD22" font-size="11.5" font-weight="700">PROFESOR</text>
  </g>

  <!-- Acceso al Aula (Esquina Inferior Izquierda) -->
  <g transform="translate(110,815)">
    <g transform="translate(0,18)" style="filter: drop-shadow(0 0 8px rgba(147,189,34,0.6));">
      <path d="M-12,18 L0,4 L12,18" fill="none" stroke="#93BD22" stroke-width="4" stroke-linecap="round" stroke-linejoin="round">
        <animate attributeName="opacity" values="1;0.2;1" dur="1.5s" begin="0s" repeatCount="indefinite"/>
      </path>
      <path d="M-12,4 L0,-10 L12,4" fill="none" stroke="#93BD22" stroke-width="4" stroke-linecap="round" stroke-linejoin="round">
        <animate attributeName="opacity" values="1;0.2;1" dur="1.5s" begin="0.25s" repeatCount="indefinite"/>
      </path>
      <path d="M-12,-10 L0,-24 L12,-10" fill="none" stroke="#93BD22" stroke-width="4" stroke-linecap="round" stroke-linejoin="round">
        <animate attributeName="opacity" values="1;0.2;1" dur="1.5s" begin="0.5s" repeatCount="indefinite"/>
      </path>
    </g>
    <text x="0" y="66" text-anchor="middle" fill="#93BD22" font-size="11" font-weight="bold" letter-spacing="2" font-family="sans-serif" opacity="0.9">ACCESO AL AULA</text>
    <text x="0" y="106" text-anchor="middle" fill="#93BD22" font-size="30" font-weight="300" opacity="0.55">L1-A-ESC</text>
  </g>
</svg>
