<svg viewBox="0 0 760 1080" xmlns="http://www.w3.org/2000/svg" font-family="system-ui, -apple-system, 'Segoe UI', Roboto, sans-serif" role="img" aria-label="Plano del aula L1-D-ATC: el equipo del profesor lanza un comando que se ejecuta a la vez en los 20 puestos del aula.">
  <defs>
    <radialGradient id="aulaBg" cx="50%" cy="28%" r="85%">
      <stop offset="0%" stop-color="#11180f"/>
      <stop offset="55%" stop-color="#0a0e08"/>
      <stop offset="100%" stop-color="#070a05"/>
    </radialGradient>
    <linearGradient id="profGrad" x1="0%" y1="0%" x2="100%" y2="100%">
      <stop offset="0%" stop-color="rgba(147,189,34,0.35)"/>
      <stop offset="100%" stop-color="rgba(10,10,10,0.92)"/>
    </linearGradient>
    <pattern id="aulaGrid" width="40" height="40" patternUnits="userSpaceOnUse">
      <path d="M 40 0 L 0 0 0 40" fill="none" stroke="#93BD22" stroke-width="0.6" opacity="0.08"/>
    </pattern>
    <pattern id="aulaGridMajor" width="200" height="200" patternUnits="userSpaceOnUse">
      <path d="M 200 0 L 0 0 0 200" fill="none" stroke="#93BD22" stroke-width="1" opacity="0.12"/>
    </pattern>
  </defs>

  <rect width="760" height="1080" rx="14" fill="url(#aulaBg)" stroke="#93BD22" stroke-width="1.5"/>
  <rect width="760" height="1080" rx="14" fill="url(#aulaGrid)"/>
  <rect width="760" height="1080" rx="14" fill="url(#aulaGridMajor)"/>

  <!-- Profesor: arriba derecha, translate(620,55) -->
  <!-- Bus de pulsos: baja del prof (centro x=649, y=95), bus horizontal en y=100 -->
  <!-- Col IZQ x=55: centro x=84, PC-10 en y=167 → bus sube a y=167 -->
  <!-- Col CEN x=292: centro x=321, PC-14 en y=255 → bus sube a y=255 -->
  <!-- Col DER x=560: centro x=589, PC-20 en y=167 → bus sube a y=167 -->

  <!-- Circuito estático (azul tenue) -->
  <!-- Pulso sale del lateral izquierdo del profesor: x=620, y=75 (centro vertical 55+20) -->
  <!-- Bus horizontal en y=75, ramales bajan hasta top de primer PC de cada col -->
  <g stroke="#5b8aa6" stroke-width="1.5" opacity="0.28">
    <path d="M620,75 L84,75" fill="none"/>
    <path d="M84,75 L84,167" fill="none"/>
    <path d="M321,75 L321,343" fill="none"/>
    <path d="M589,75 L589,255" fill="none"/>
  </g>

  <!-- Buses internos verdes: de bottom del primer PC hasta bottom del último PC de cada col -->
  <g>
    <line x1="84" y1="207" x2="84" y2="955" stroke="#93BD22" stroke-width="1.5" opacity="0.18"/>
    <line x1="321" y1="383" x2="321" y2="647" stroke="#93BD22" stroke-width="1.5" opacity="0.18"/>
    <line x1="589" y1="295" x2="589" y2="735" stroke="#93BD22" stroke-width="1.5" opacity="0.18"/>
  </g>

  <!-- Pulsos animados -->
  <g>
    <g opacity="0"><path d="M-6,-6 L6,0 L-6,6" fill="none" stroke="#93BD22" stroke-width="3" stroke-linecap="round" stroke-linejoin="round" style="filter: drop-shadow(0 0 6px rgba(147,189,34,0.9));"/><animateMotion dur="8s" repeatCount="indefinite" keyPoints="0;1;1" keyTimes="0;0.31;1" calcMode="linear" rotate="auto" path="M620,75 L84,75 L84,167"/><animate attributeName="opacity" values="0;1;1;0;0" keyTimes="0;0.02;0.29;0.32;1" dur="8s" repeatCount="indefinite"/></g>
    <g opacity="0"><path d="M-6,-6 L6,0 L-6,6" fill="none" stroke="#93BD22" stroke-width="3" stroke-linecap="round" stroke-linejoin="round" style="filter: drop-shadow(0 0 6px rgba(147,189,34,0.9));"/><animateMotion dur="8s" repeatCount="indefinite" keyPoints="0;1;1" keyTimes="0;0.31;1" calcMode="linear" rotate="auto" path="M620,75 L321,75 L321,343"/><animate attributeName="opacity" values="0;1;1;0;0" keyTimes="0;0.02;0.29;0.32;1" dur="8s" repeatCount="indefinite"/></g>
    <g opacity="0"><path d="M-6,-6 L6,0 L-6,6" fill="none" stroke="#93BD22" stroke-width="3" stroke-linecap="round" stroke-linejoin="round" style="filter: drop-shadow(0 0 6px rgba(147,189,34,0.9));"/><animateMotion dur="8s" repeatCount="indefinite" keyPoints="0;1;1" keyTimes="0;0.31;1" calcMode="linear" rotate="auto" path="M620,75 L589,75 L589,255"/><animate attributeName="opacity" values="0;1;1;0;0" keyTimes="0;0.02;0.29;0.32;1" dur="8s" repeatCount="indefinite"/></g>
  </g>

  <!-- Profesor: arriba derecha -->
  <g transform="translate(620,55)">
    <rect x="0" y="0" width="58" height="40" rx="4" fill="url(#profGrad)" stroke="#93BD22" stroke-width="2.5"/>
    <g transform="translate(16.0,9.0) scale(0.24)">
      <path d="M10 12 L58 50 L10 88" fill="none" stroke="#93BD22" stroke-width="13" stroke-linecap="round" stroke-linejoin="round"/>
      <line x1="52" y1="88" x2="92" y2="88" stroke="#93BD22" stroke-width="13" stroke-linecap="round"/>
    </g>
    <rect x="24.0" y="40" width="10" height="5" fill="#93BD22"/>
    <rect x="19.0" y="45" width="20" height="3" rx="1.5" fill="#93BD22"/>
    <text x="29.0" y="64" text-anchor="middle" fill="#93BD22" font-size="11.5" font-weight="700">PROFESOR</text>
  </g>

  <!-- Columna IZQ: PC-10..PC-01 (x=55, y desde 167, step=88) -->
  <g transform="translate(55,167)"><rect x="0" y="0" width="58" height="40" rx="5" fill="#0c1208" stroke="#5b8aa6" stroke-width="1.8"><animate attributeName="stroke" values="#5b8aa6;#5b8aa6;#93BD22;#93BD22;#5b8aa6;#5b8aa6" keyTimes="0;0.30;0.33;0.70;0.74;1" dur="8s" repeatCount="indefinite"/></rect><rect x="6" y="5" width="46" height="28" rx="2" fill="#0a0f08"><animate attributeName="fill" values="#0a0f08;#0a0f08;#1a2e0a;#1a2e0a;#0a0f08;#0a0f08" keyTimes="0;0.30;0.33;0.70;0.74;1" dur="8s" repeatCount="indefinite"/></rect><path d="M21.0 18.0 l5 5 l11 -11" fill="none" stroke="#93BD22" stroke-width="2.8" stroke-linecap="round" stroke-linejoin="round" opacity="0"><animate attributeName="opacity" values="0;0;1;1;0;0" keyTimes="0;0.31;0.34;0.70;0.73;1" dur="8s" repeatCount="indefinite"/></path><rect x="24.0" y="40" width="10" height="5" fill="#5b8aa6"/><rect x="18.0" y="45" width="22" height="3.5" rx="1.5" fill="#5b8aa6"/><text x="29.0" y="65" text-anchor="middle" fill="#cfd8c2" font-size="12" font-weight="600">PC-10</text></g>
  <g transform="translate(55,255)"><rect x="0" y="0" width="58" height="40" rx="5" fill="#0c1208" stroke="#5b8aa6" stroke-width="1.8"><animate attributeName="stroke" values="#5b8aa6;#5b8aa6;#93BD22;#93BD22;#5b8aa6;#5b8aa6" keyTimes="0;0.30;0.33;0.70;0.74;1" dur="8s" repeatCount="indefinite"/></rect><rect x="6" y="5" width="46" height="28" rx="2" fill="#0a0f08"><animate attributeName="fill" values="#0a0f08;#0a0f08;#1a2e0a;#1a2e0a;#0a0f08;#0a0f08" keyTimes="0;0.30;0.33;0.70;0.74;1" dur="8s" repeatCount="indefinite"/></rect><path d="M21.0 18.0 l5 5 l11 -11" fill="none" stroke="#93BD22" stroke-width="2.8" stroke-linecap="round" stroke-linejoin="round" opacity="0"><animate attributeName="opacity" values="0;0;1;1;0;0" keyTimes="0;0.31;0.34;0.70;0.73;1" dur="8s" repeatCount="indefinite"/></path><rect x="24.0" y="40" width="10" height="5" fill="#5b8aa6"/><rect x="18.0" y="45" width="22" height="3.5" rx="1.5" fill="#5b8aa6"/><text x="29.0" y="65" text-anchor="middle" fill="#cfd8c2" font-size="12" font-weight="600">PC-09</text></g>
  <g transform="translate(55,343)"><rect x="0" y="0" width="58" height="40" rx="5" fill="#0c1208" stroke="#5b8aa6" stroke-width="1.8"><animate attributeName="stroke" values="#5b8aa6;#5b8aa6;#93BD22;#93BD22;#5b8aa6;#5b8aa6" keyTimes="0;0.30;0.33;0.70;0.74;1" dur="8s" repeatCount="indefinite"/></rect><rect x="6" y="5" width="46" height="28" rx="2" fill="#0a0f08"><animate attributeName="fill" values="#0a0f08;#0a0f08;#1a2e0a;#1a2e0a;#0a0f08;#0a0f08" keyTimes="0;0.30;0.33;0.70;0.74;1" dur="8s" repeatCount="indefinite"/></rect><path d="M21.0 18.0 l5 5 l11 -11" fill="none" stroke="#93BD22" stroke-width="2.8" stroke-linecap="round" stroke-linejoin="round" opacity="0"><animate attributeName="opacity" values="0;0;1;1;0;0" keyTimes="0;0.31;0.34;0.70;0.73;1" dur="8s" repeatCount="indefinite"/></path><rect x="24.0" y="40" width="10" height="5" fill="#5b8aa6"/><rect x="18.0" y="45" width="22" height="3.5" rx="1.5" fill="#5b8aa6"/><text x="29.0" y="65" text-anchor="middle" fill="#cfd8c2" font-size="12" font-weight="600">PC-08</text></g>
  <g transform="translate(55,431)"><rect x="0" y="0" width="58" height="40" rx="5" fill="#0c1208" stroke="#5b8aa6" stroke-width="1.8"><animate attributeName="stroke" values="#5b8aa6;#5b8aa6;#93BD22;#93BD22;#5b8aa6;#5b8aa6" keyTimes="0;0.30;0.33;0.70;0.74;1" dur="8s" repeatCount="indefinite"/></rect><rect x="6" y="5" width="46" height="28" rx="2" fill="#0a0f08"><animate attributeName="fill" values="#0a0f08;#0a0f08;#1a2e0a;#1a2e0a;#0a0f08;#0a0f08" keyTimes="0;0.30;0.33;0.70;0.74;1" dur="8s" repeatCount="indefinite"/></rect><path d="M21.0 18.0 l5 5 l11 -11" fill="none" stroke="#93BD22" stroke-width="2.8" stroke-linecap="round" stroke-linejoin="round" opacity="0"><animate attributeName="opacity" values="0;0;1;1;0;0" keyTimes="0;0.31;0.34;0.70;0.73;1" dur="8s" repeatCount="indefinite"/></path><rect x="24.0" y="40" width="10" height="5" fill="#5b8aa6"/><rect x="18.0" y="45" width="22" height="3.5" rx="1.5" fill="#5b8aa6"/><text x="29.0" y="65" text-anchor="middle" fill="#cfd8c2" font-size="12" font-weight="600">PC-07</text></g>
  <g transform="translate(55,519)"><rect x="0" y="0" width="58" height="40" rx="5" fill="#0c1208" stroke="#5b8aa6" stroke-width="1.8"><animate attributeName="stroke" values="#5b8aa6;#5b8aa6;#93BD22;#93BD22;#5b8aa6;#5b8aa6" keyTimes="0;0.30;0.33;0.70;0.74;1" dur="8s" repeatCount="indefinite"/></rect><rect x="6" y="5" width="46" height="28" rx="2" fill="#0a0f08"><animate attributeName="fill" values="#0a0f08;#0a0f08;#1a2e0a;#1a2e0a;#0a0f08;#0a0f08" keyTimes="0;0.30;0.33;0.70;0.74;1" dur="8s" repeatCount="indefinite"/></rect><path d="M21.0 18.0 l5 5 l11 -11" fill="none" stroke="#93BD22" stroke-width="2.8" stroke-linecap="round" stroke-linejoin="round" opacity="0"><animate attributeName="opacity" values="0;0;1;1;0;0" keyTimes="0;0.31;0.34;0.70;0.73;1" dur="8s" repeatCount="indefinite"/></path><rect x="24.0" y="40" width="10" height="5" fill="#5b8aa6"/><rect x="18.0" y="45" width="22" height="3.5" rx="1.5" fill="#5b8aa6"/><text x="29.0" y="65" text-anchor="middle" fill="#cfd8c2" font-size="12" font-weight="600">PC-06</text></g>
  <g transform="translate(55,607)"><rect x="0" y="0" width="58" height="40" rx="5" fill="#0c1208" stroke="#5b8aa6" stroke-width="1.8"><animate attributeName="stroke" values="#5b8aa6;#5b8aa6;#93BD22;#93BD22;#5b8aa6;#5b8aa6" keyTimes="0;0.30;0.33;0.70;0.74;1" dur="8s" repeatCount="indefinite"/></rect><rect x="6" y="5" width="46" height="28" rx="2" fill="#0a0f08"><animate attributeName="fill" values="#0a0f08;#0a0f08;#1a2e0a;#1a2e0a;#0a0f08;#0a0f08" keyTimes="0;0.30;0.33;0.70;0.74;1" dur="8s" repeatCount="indefinite"/></rect><path d="M21.0 18.0 l5 5 l11 -11" fill="none" stroke="#93BD22" stroke-width="2.8" stroke-linecap="round" stroke-linejoin="round" opacity="0"><animate attributeName="opacity" values="0;0;1;1;0;0" keyTimes="0;0.31;0.34;0.70;0.73;1" dur="8s" repeatCount="indefinite"/></path><rect x="24.0" y="40" width="10" height="5" fill="#5b8aa6"/><rect x="18.0" y="45" width="22" height="3.5" rx="1.5" fill="#5b8aa6"/><text x="29.0" y="65" text-anchor="middle" fill="#cfd8c2" font-size="12" font-weight="600">PC-05</text></g>
  <g transform="translate(55,695)"><rect x="0" y="0" width="58" height="40" rx="5" fill="#0c1208" stroke="#5b8aa6" stroke-width="1.8"><animate attributeName="stroke" values="#5b8aa6;#5b8aa6;#93BD22;#93BD22;#5b8aa6;#5b8aa6" keyTimes="0;0.30;0.33;0.70;0.74;1" dur="8s" repeatCount="indefinite"/></rect><rect x="6" y="5" width="46" height="28" rx="2" fill="#0a0f08"><animate attributeName="fill" values="#0a0f08;#0a0f08;#1a2e0a;#1a2e0a;#0a0f08;#0a0f08" keyTimes="0;0.30;0.33;0.70;0.74;1" dur="8s" repeatCount="indefinite"/></rect><path d="M21.0 18.0 l5 5 l11 -11" fill="none" stroke="#93BD22" stroke-width="2.8" stroke-linecap="round" stroke-linejoin="round" opacity="0"><animate attributeName="opacity" values="0;0;1;1;0;0" keyTimes="0;0.31;0.34;0.70;0.73;1" dur="8s" repeatCount="indefinite"/></path><rect x="24.0" y="40" width="10" height="5" fill="#5b8aa6"/><rect x="18.0" y="45" width="22" height="3.5" rx="1.5" fill="#5b8aa6"/><text x="29.0" y="65" text-anchor="middle" fill="#cfd8c2" font-size="12" font-weight="600">PC-04</text></g>
  <g transform="translate(55,783)"><rect x="0" y="0" width="58" height="40" rx="5" fill="#0c1208" stroke="#5b8aa6" stroke-width="1.8"><animate attributeName="stroke" values="#5b8aa6;#5b8aa6;#93BD22;#93BD22;#5b8aa6;#5b8aa6" keyTimes="0;0.30;0.33;0.70;0.74;1" dur="8s" repeatCount="indefinite"/></rect><rect x="6" y="5" width="46" height="28" rx="2" fill="#0a0f08"><animate attributeName="fill" values="#0a0f08;#0a0f08;#1a2e0a;#1a2e0a;#0a0f08;#0a0f08" keyTimes="0;0.30;0.33;0.70;0.74;1" dur="8s" repeatCount="indefinite"/></rect><path d="M21.0 18.0 l5 5 l11 -11" fill="none" stroke="#93BD22" stroke-width="2.8" stroke-linecap="round" stroke-linejoin="round" opacity="0"><animate attributeName="opacity" values="0;0;1;1;0;0" keyTimes="0;0.31;0.34;0.70;0.73;1" dur="8s" repeatCount="indefinite"/></path><rect x="24.0" y="40" width="10" height="5" fill="#5b8aa6"/><rect x="18.0" y="45" width="22" height="3.5" rx="1.5" fill="#5b8aa6"/><text x="29.0" y="65" text-anchor="middle" fill="#cfd8c2" font-size="12" font-weight="600">PC-03</text></g>
  <g transform="translate(55,871)"><rect x="0" y="0" width="58" height="40" rx="5" fill="#0c1208" stroke="#5b8aa6" stroke-width="1.8"><animate attributeName="stroke" values="#5b8aa6;#5b8aa6;#93BD22;#93BD22;#5b8aa6;#5b8aa6" keyTimes="0;0.30;0.33;0.70;0.74;1" dur="8s" repeatCount="indefinite"/></rect><rect x="6" y="5" width="46" height="28" rx="2" fill="#0a0f08"><animate attributeName="fill" values="#0a0f08;#0a0f08;#1a2e0a;#1a2e0a;#0a0f08;#0a0f08" keyTimes="0;0.30;0.33;0.70;0.74;1" dur="8s" repeatCount="indefinite"/></rect><path d="M21.0 18.0 l5 5 l11 -11" fill="none" stroke="#93BD22" stroke-width="2.8" stroke-linecap="round" stroke-linejoin="round" opacity="0"><animate attributeName="opacity" values="0;0;1;1;0;0" keyTimes="0;0.31;0.34;0.70;0.73;1" dur="8s" repeatCount="indefinite"/></path><rect x="24.0" y="40" width="10" height="5" fill="#5b8aa6"/><rect x="18.0" y="45" width="22" height="3.5" rx="1.5" fill="#5b8aa6"/><text x="29.0" y="65" text-anchor="middle" fill="#cfd8c2" font-size="12" font-weight="600">PC-02</text></g>
  <g transform="translate(55,959)"><rect x="0" y="0" width="58" height="40" rx="5" fill="#0c1208" stroke="#5b8aa6" stroke-width="1.8"><animate attributeName="stroke" values="#5b8aa6;#5b8aa6;#93BD22;#93BD22;#5b8aa6;#5b8aa6" keyTimes="0;0.30;0.33;0.70;0.74;1" dur="8s" repeatCount="indefinite"/></rect><rect x="6" y="5" width="46" height="28" rx="2" fill="#0a0f08"><animate attributeName="fill" values="#0a0f08;#0a0f08;#1a2e0a;#1a2e0a;#0a0f08;#0a0f08" keyTimes="0;0.30;0.33;0.70;0.74;1" dur="8s" repeatCount="indefinite"/></rect><path d="M21.0 18.0 l5 5 l11 -11" fill="none" stroke="#93BD22" stroke-width="2.8" stroke-linecap="round" stroke-linejoin="round" opacity="0"><animate attributeName="opacity" values="0;0;1;1;0;0" keyTimes="0;0.31;0.34;0.70;0.73;1" dur="8s" repeatCount="indefinite"/></path><rect x="24.0" y="40" width="10" height="5" fill="#5b8aa6"/><rect x="18.0" y="45" width="22" height="3.5" rx="1.5" fill="#5b8aa6"/><text x="29.0" y="65" text-anchor="middle" fill="#cfd8c2" font-size="12" font-weight="600">PC-01</text></g>

  <!-- Columna CEN: PC-14..PC-11 (x=292, y desde 255, step=88) -->
  <g transform="translate(292,343)"><rect x="0" y="0" width="58" height="40" rx="5" fill="#0c1208" stroke="#5b8aa6" stroke-width="1.8"><animate attributeName="stroke" values="#5b8aa6;#5b8aa6;#93BD22;#93BD22;#5b8aa6;#5b8aa6" keyTimes="0;0.30;0.33;0.70;0.74;1" dur="8s" repeatCount="indefinite"/></rect><rect x="6" y="5" width="46" height="28" rx="2" fill="#0a0f08"><animate attributeName="fill" values="#0a0f08;#0a0f08;#1a2e0a;#1a2e0a;#0a0f08;#0a0f08" keyTimes="0;0.30;0.33;0.70;0.74;1" dur="8s" repeatCount="indefinite"/></rect><path d="M21.0 18.0 l5 5 l11 -11" fill="none" stroke="#93BD22" stroke-width="2.8" stroke-linecap="round" stroke-linejoin="round" opacity="0"><animate attributeName="opacity" values="0;0;1;1;0;0" keyTimes="0;0.31;0.34;0.70;0.73;1" dur="8s" repeatCount="indefinite"/></path><rect x="24.0" y="40" width="10" height="5" fill="#5b8aa6"/><rect x="18.0" y="45" width="22" height="3.5" rx="1.5" fill="#5b8aa6"/><text x="29.0" y="65" text-anchor="middle" fill="#cfd8c2" font-size="12" font-weight="600">PC-14</text></g>
  <g transform="translate(292,431)"><rect x="0" y="0" width="58" height="40" rx="5" fill="#0c1208" stroke="#5b8aa6" stroke-width="1.8"><animate attributeName="stroke" values="#5b8aa6;#5b8aa6;#93BD22;#93BD22;#5b8aa6;#5b8aa6" keyTimes="0;0.30;0.33;0.70;0.74;1" dur="8s" repeatCount="indefinite"/></rect><rect x="6" y="5" width="46" height="28" rx="2" fill="#0a0f08"><animate attributeName="fill" values="#0a0f08;#0a0f08;#1a2e0a;#1a2e0a;#0a0f08;#0a0f08" keyTimes="0;0.30;0.33;0.70;0.74;1" dur="8s" repeatCount="indefinite"/></rect><path d="M21.0 18.0 l5 5 l11 -11" fill="none" stroke="#93BD22" stroke-width="2.8" stroke-linecap="round" stroke-linejoin="round" opacity="0"><animate attributeName="opacity" values="0;0;1;1;0;0" keyTimes="0;0.31;0.34;0.70;0.73;1" dur="8s" repeatCount="indefinite"/></path><rect x="24.0" y="40" width="10" height="5" fill="#5b8aa6"/><rect x="18.0" y="45" width="22" height="3.5" rx="1.5" fill="#5b8aa6"/><text x="29.0" y="65" text-anchor="middle" fill="#cfd8c2" font-size="12" font-weight="600">PC-13</text></g>
  <g transform="translate(292,519)"><rect x="0" y="0" width="58" height="40" rx="5" fill="#0c1208" stroke="#5b8aa6" stroke-width="1.8"><animate attributeName="stroke" values="#5b8aa6;#5b8aa6;#93BD22;#93BD22;#5b8aa6;#5b8aa6" keyTimes="0;0.30;0.33;0.70;0.74;1" dur="8s" repeatCount="indefinite"/></rect><rect x="6" y="5" width="46" height="28" rx="2" fill="#0a0f08"><animate attributeName="fill" values="#0a0f08;#0a0f08;#1a2e0a;#1a2e0a;#0a0f08;#0a0f08" keyTimes="0;0.30;0.33;0.70;0.74;1" dur="8s" repeatCount="indefinite"/></rect><path d="M21.0 18.0 l5 5 l11 -11" fill="none" stroke="#93BD22" stroke-width="2.8" stroke-linecap="round" stroke-linejoin="round" opacity="0"><animate attributeName="opacity" values="0;0;1;1;0;0" keyTimes="0;0.31;0.34;0.70;0.73;1" dur="8s" repeatCount="indefinite"/></path><rect x="24.0" y="40" width="10" height="5" fill="#5b8aa6"/><rect x="18.0" y="45" width="22" height="3.5" rx="1.5" fill="#5b8aa6"/><text x="29.0" y="65" text-anchor="middle" fill="#cfd8c2" font-size="12" font-weight="600">PC-12</text></g>
  <g transform="translate(292,607)"><rect x="0" y="0" width="58" height="40" rx="5" fill="#0c1208" stroke="#5b8aa6" stroke-width="1.8"><animate attributeName="stroke" values="#5b8aa6;#5b8aa6;#93BD22;#93BD22;#5b8aa6;#5b8aa6" keyTimes="0;0.30;0.33;0.70;0.74;1" dur="8s" repeatCount="indefinite"/></rect><rect x="6" y="5" width="46" height="28" rx="2" fill="#0a0f08"><animate attributeName="fill" values="#0a0f08;#0a0f08;#1a2e0a;#1a2e0a;#0a0f08;#0a0f08" keyTimes="0;0.30;0.33;0.70;0.74;1" dur="8s" repeatCount="indefinite"/></rect><path d="M21.0 18.0 l5 5 l11 -11" fill="none" stroke="#93BD22" stroke-width="2.8" stroke-linecap="round" stroke-linejoin="round" opacity="0"><animate attributeName="opacity" values="0;0;1;1;0;0" keyTimes="0;0.31;0.34;0.70;0.73;1" dur="8s" repeatCount="indefinite"/></path><rect x="24.0" y="40" width="10" height="5" fill="#5b8aa6"/><rect x="18.0" y="45" width="22" height="3.5" rx="1.5" fill="#5b8aa6"/><text x="29.0" y="65" text-anchor="middle" fill="#cfd8c2" font-size="12" font-weight="600">PC-11</text></g>

  <!-- Columna DER: PC-20..PC-15 (x=560, y desde 167, step=88) -->
  <g transform="translate(560,255)"><rect x="0" y="0" width="58" height="40" rx="5" fill="#0c1208" stroke="#5b8aa6" stroke-width="1.8"><animate attributeName="stroke" values="#5b8aa6;#5b8aa6;#93BD22;#93BD22;#5b8aa6;#5b8aa6" keyTimes="0;0.30;0.33;0.70;0.74;1" dur="8s" repeatCount="indefinite"/></rect><rect x="6" y="5" width="46" height="28" rx="2" fill="#0a0f08"><animate attributeName="fill" values="#0a0f08;#0a0f08;#1a2e0a;#1a2e0a;#0a0f08;#0a0f08" keyTimes="0;0.30;0.33;0.70;0.74;1" dur="8s" repeatCount="indefinite"/></rect><path d="M21.0 18.0 l5 5 l11 -11" fill="none" stroke="#93BD22" stroke-width="2.8" stroke-linecap="round" stroke-linejoin="round" opacity="0"><animate attributeName="opacity" values="0;0;1;1;0;0" keyTimes="0;0.31;0.34;0.70;0.73;1" dur="8s" repeatCount="indefinite"/></path><rect x="24.0" y="40" width="10" height="5" fill="#5b8aa6"/><rect x="18.0" y="45" width="22" height="3.5" rx="1.5" fill="#5b8aa6"/><text x="29.0" y="65" text-anchor="middle" fill="#cfd8c2" font-size="12" font-weight="600">PC-20</text></g>
  <g transform="translate(560,343)"><rect x="0" y="0" width="58" height="40" rx="5" fill="#0c1208" stroke="#5b8aa6" stroke-width="1.8"><animate attributeName="stroke" values="#5b8aa6;#5b8aa6;#93BD22;#93BD22;#5b8aa6;#5b8aa6" keyTimes="0;0.30;0.33;0.70;0.74;1" dur="8s" repeatCount="indefinite"/></rect><rect x="6" y="5" width="46" height="28" rx="2" fill="#0a0f08"><animate attributeName="fill" values="#0a0f08;#0a0f08;#1a2e0a;#1a2e0a;#0a0f08;#0a0f08" keyTimes="0;0.30;0.33;0.70;0.74;1" dur="8s" repeatCount="indefinite"/></rect><path d="M21.0 18.0 l5 5 l11 -11" fill="none" stroke="#93BD22" stroke-width="2.8" stroke-linecap="round" stroke-linejoin="round" opacity="0"><animate attributeName="opacity" values="0;0;1;1;0;0" keyTimes="0;0.31;0.34;0.70;0.73;1" dur="8s" repeatCount="indefinite"/></path><rect x="24.0" y="40" width="10" height="5" fill="#5b8aa6"/><rect x="18.0" y="45" width="22" height="3.5" rx="1.5" fill="#5b8aa6"/><text x="29.0" y="65" text-anchor="middle" fill="#cfd8c2" font-size="12" font-weight="600">PC-19</text></g>
  <g transform="translate(560,431)"><rect x="0" y="0" width="58" height="40" rx="5" fill="#0c1208" stroke="#5b8aa6" stroke-width="1.8"><animate attributeName="stroke" values="#5b8aa6;#5b8aa6;#93BD22;#93BD22;#5b8aa6;#5b8aa6" keyTimes="0;0.30;0.33;0.70;0.74;1" dur="8s" repeatCount="indefinite"/></rect><rect x="6" y="5" width="46" height="28" rx="2" fill="#0a0f08"><animate attributeName="fill" values="#0a0f08;#0a0f08;#1a2e0a;#1a2e0a;#0a0f08;#0a0f08" keyTimes="0;0.30;0.33;0.70;0.74;1" dur="8s" repeatCount="indefinite"/></rect><path d="M21.0 18.0 l5 5 l11 -11" fill="none" stroke="#93BD22" stroke-width="2.8" stroke-linecap="round" stroke-linejoin="round" opacity="0"><animate attributeName="opacity" values="0;0;1;1;0;0" keyTimes="0;0.31;0.34;0.70;0.73;1" dur="8s" repeatCount="indefinite"/></path><rect x="24.0" y="40" width="10" height="5" fill="#5b8aa6"/><rect x="18.0" y="45" width="22" height="3.5" rx="1.5" fill="#5b8aa6"/><text x="29.0" y="65" text-anchor="middle" fill="#cfd8c2" font-size="12" font-weight="600">PC-18</text></g>
  <g transform="translate(560,519)"><rect x="0" y="0" width="58" height="40" rx="5" fill="#0c1208" stroke="#5b8aa6" stroke-width="1.8"><animate attributeName="stroke" values="#5b8aa6;#5b8aa6;#93BD22;#93BD22;#5b8aa6;#5b8aa6" keyTimes="0;0.30;0.33;0.70;0.74;1" dur="8s" repeatCount="indefinite"/></rect><rect x="6" y="5" width="46" height="28" rx="2" fill="#0a0f08"><animate attributeName="fill" values="#0a0f08;#0a0f08;#1a2e0a;#1a2e0a;#0a0f08;#0a0f08" keyTimes="0;0.30;0.33;0.70;0.74;1" dur="8s" repeatCount="indefinite"/></rect><path d="M21.0 18.0 l5 5 l11 -11" fill="none" stroke="#93BD22" stroke-width="2.8" stroke-linecap="round" stroke-linejoin="round" opacity="0"><animate attributeName="opacity" values="0;0;1;1;0;0" keyTimes="0;0.31;0.34;0.70;0.73;1" dur="8s" repeatCount="indefinite"/></path><rect x="24.0" y="40" width="10" height="5" fill="#5b8aa6"/><rect x="18.0" y="45" width="22" height="3.5" rx="1.5" fill="#5b8aa6"/><text x="29.0" y="65" text-anchor="middle" fill="#cfd8c2" font-size="12" font-weight="600">PC-17</text></g>
  <g transform="translate(560,607)"><rect x="0" y="0" width="58" height="40" rx="5" fill="#0c1208" stroke="#5b8aa6" stroke-width="1.8"><animate attributeName="stroke" values="#5b8aa6;#5b8aa6;#93BD22;#93BD22;#5b8aa6;#5b8aa6" keyTimes="0;0.30;0.33;0.70;0.74;1" dur="8s" repeatCount="indefinite"/></rect><rect x="6" y="5" width="46" height="28" rx="2" fill="#0a0f08"><animate attributeName="fill" values="#0a0f08;#0a0f08;#1a2e0a;#1a2e0a;#0a0f08;#0a0f08" keyTimes="0;0.30;0.33;0.70;0.74;1" dur="8s" repeatCount="indefinite"/></rect><path d="M21.0 18.0 l5 5 l11 -11" fill="none" stroke="#93BD22" stroke-width="2.8" stroke-linecap="round" stroke-linejoin="round" opacity="0"><animate attributeName="opacity" values="0;0;1;1;0;0" keyTimes="0;0.31;0.34;0.70;0.73;1" dur="8s" repeatCount="indefinite"/></path><rect x="24.0" y="40" width="10" height="5" fill="#5b8aa6"/><rect x="18.0" y="45" width="22" height="3.5" rx="1.5" fill="#5b8aa6"/><text x="29.0" y="65" text-anchor="middle" fill="#cfd8c2" font-size="12" font-weight="600">PC-16</text></g>
  <g transform="translate(560,695)"><rect x="0" y="0" width="58" height="40" rx="5" fill="#0c1208" stroke="#5b8aa6" stroke-width="1.8"><animate attributeName="stroke" values="#5b8aa6;#5b8aa6;#93BD22;#93BD22;#5b8aa6;#5b8aa6" keyTimes="0;0.30;0.33;0.70;0.74;1" dur="8s" repeatCount="indefinite"/></rect><rect x="6" y="5" width="46" height="28" rx="2" fill="#0a0f08"><animate attributeName="fill" values="#0a0f08;#0a0f08;#1a2e0a;#1a2e0a;#0a0f08;#0a0f08" keyTimes="0;0.30;0.33;0.70;0.74;1" dur="8s" repeatCount="indefinite"/></rect><path d="M21.0 18.0 l5 5 l11 -11" fill="none" stroke="#93BD22" stroke-width="2.8" stroke-linecap="round" stroke-linejoin="round" opacity="0"><animate attributeName="opacity" values="0;0;1;1;0;0" keyTimes="0;0.31;0.34;0.70;0.73;1" dur="8s" repeatCount="indefinite"/></path><rect x="24.0" y="40" width="10" height="5" fill="#5b8aa6"/><rect x="18.0" y="45" width="22" height="3.5" rx="1.5" fill="#5b8aa6"/><text x="29.0" y="65" text-anchor="middle" fill="#cfd8c2" font-size="12" font-weight="600">PC-15</text></g>

  <!-- Acceso al aula: abajo derecha -->
  <g transform="translate(648,955)">
    <text x="0" y="0" text-anchor="middle" fill="#93BD22" font-size="30" font-weight="300" opacity="0.55">L1-D-ATC</text>
    <text x="0" y="34" text-anchor="middle" fill="#93BD22" font-size="11" font-weight="bold" letter-spacing="2" font-family="sans-serif" opacity="0.9">ACCESO AL AULA</text>
    <g transform="translate(0,80)" style="filter: drop-shadow(0 0 8px rgba(147,189,34,0.6));">
      <path d="M18,-12 L4,0 L18,12" fill="none" stroke="#93BD22" stroke-width="4" stroke-linecap="round" stroke-linejoin="round"><animate attributeName="opacity" values="1;0.2;1" dur="1.5s" begin="0s" repeatCount="indefinite"/></path>
      <path d="M4,-12 L-10,0 L4,12" fill="none" stroke="#93BD22" stroke-width="4" stroke-linecap="round" stroke-linejoin="round"><animate attributeName="opacity" values="1;0.2;1" dur="1.5s" begin="0.25s" repeatCount="indefinite"/></path>
      <path d="M-10,-12 L-24,0 L-10,12" fill="none" stroke="#93BD22" stroke-width="4" stroke-linecap="round" stroke-linejoin="round"><animate attributeName="opacity" values="1;0.2;1" dur="1.5s" begin="0.5s" repeatCount="indefinite"/></path>
    </g>
  </g>
</svg>