<svg viewBox="0 0 760 1080" xmlns="http://www.w3.org/2000/svg" font-family="system-ui, -apple-system, 'Segoe UI', Roboto, sans-serif" role="img" aria-label="Plano del aula L2-D-ATC: el equipo del profesor lanza un comando que se ejecuta a la vez en los 22 puestos del aula.">
  <defs>
    <radialGradient id="aulaBg" cx="50%" cy="28%" r="85%">
      <stop offset="0%" stop-color="#11180f"/>
      <stop offset="55%" stop-color="#0a0e08"/>
      <stop offset="100%" stop-color="#070a05"/>
    </radialGradient>
    <linearGradient id="profGrad" x1="0%" y1="0%" x2="100%" y2="100%">
      <stop offset="0%" stop-color="rgba(147,189,34,0.35)"/>
      <stop offset="100%" stop-color="rgba(10,10,10,0.92)"/>
    </linearGradient>
    <pattern id="aulaGrid" width="40" height="40" patternUnits="userSpaceOnUse">
      <path d="M 40 0 L 0 0 0 40" fill="none" stroke="#93BD22" stroke-width="0.6" opacity="0.08"/>
    </pattern>
    <pattern id="aulaGridMajor" width="200" height="200" patternUnits="userSpaceOnUse">
      <path d="M 200 0 L 0 0 0 200" fill="none" stroke="#93BD22" stroke-width="1" opacity="0.12"/>
    </pattern>
  </defs>

  <rect width="760" height="1080" rx="14" fill="url(#aulaBg)" stroke="#93BD22" stroke-width="1.5"/>
  <rect width="760" height="1080" rx="14" fill="url(#aulaGrid)"/>
  <rect width="760" height="1080" rx="14" fill="url(#aulaGridMajor)"/>

  <!-- Circuito estático azul: solo hasta el top del primer PC de cada columna -->
  <!-- Profesor en translate(620,980): lateral izq x=620, centro vertical y=1000 -->
  <!-- Col A: PC-22 en translate(55,35) → top y=35, centro x=84 -->
  <!-- Col B: PC-11 en translate(292,95) → top y=95, centro x=321 -->
  <!-- Col C: PC-10 en translate(410,95) → top y=95, centro x=439 -->
  <!-- Circuito estático: bus horizontal bajo todos los PCs (y=960), ramales suben hasta bottom del último PC -->
  <!-- Col A: PC-21 bottom y=163, centro x=84 -->
  <!-- Col B: PC-20 bottom y=927, centro x=321 -->
  <!-- Col C: PC-01 bottom y=927, centro x=439 -->
  <g stroke="#5b8aa6" stroke-width="1.5" opacity="0.28">
    <path d="M620,1000 L84,1000" fill="none"/>
    <path d="M84,1000 L84,163" fill="none"/>
    <path d="M321,1000 L321,927" fill="none"/>
    <path d="M439,1000 L439,927" fill="none"/>
  </g>

  <!-- Buses internos verdes: top del primer PC hasta bottom del último de cada col -->
  <g>
    <line x1="84" y1="35" x2="84" y2="163" stroke="#93BD22" stroke-width="1.5" opacity="0.18"/>
    <line x1="321" y1="95" x2="321" y2="927" stroke="#93BD22" stroke-width="1.5" opacity="0.18"/>
    <line x1="439" y1="95" x2="439" y2="927" stroke="#93BD22" stroke-width="1.5" opacity="0.18"/>
  </g>

  <!-- Pulsos: salen del lateral izq del profesor (x=620,y=1000), suben hasta bottom del último PC y desaparecen -->
  <g>
    <g opacity="0"><path d="M-6,-6 L6,0 L-6,6" fill="none" stroke="#93BD22" stroke-width="3" stroke-linecap="round" stroke-linejoin="round" style="filter: drop-shadow(0 0 6px rgba(147,189,34,0.9));"/><animateMotion dur="8s" repeatCount="indefinite" keyPoints="0;1;1" keyTimes="0;0.31;1" calcMode="linear" rotate="auto" path="M620,1000 L84,1000 L84,170"/><animate attributeName="opacity" values="0;1;1;0;0" keyTimes="0;0.02;0.29;0.32;1" dur="8s" repeatCount="indefinite"/></g>
    <g opacity="0"><path d="M-6,-6 L6,0 L-6,6" fill="none" stroke="#93BD22" stroke-width="3" stroke-linecap="round" stroke-linejoin="round" style="filter: drop-shadow(0 0 6px rgba(147,189,34,0.9));"/><animateMotion dur="8s" repeatCount="indefinite" keyPoints="0;1;1" keyTimes="0;0.31;1" calcMode="linear" rotate="auto" path="M620,1000 L321,1000 L321,950"/><animate attributeName="opacity" values="0;1;1;0;0" keyTimes="0;0.02;0.29;0.32;1" dur="8s" repeatCount="indefinite"/></g>
    <g opacity="0"><path d="M-6,-6 L6,0 L-6,6" fill="none" stroke="#93BD22" stroke-width="3" stroke-linecap="round" stroke-linejoin="round" style="filter: drop-shadow(0 0 6px rgba(147,189,34,0.9));"/><animateMotion dur="8s" repeatCount="indefinite" keyPoints="0;1;1" keyTimes="0;0.31;1" calcMode="linear" rotate="auto" path="M620,1000 L439,1000 L439,950"/><animate attributeName="opacity" values="0;1;1;0;0" keyTimes="0;0.02;0.29;0.32;1" dur="8s" repeatCount="indefinite"/></g>
  </g>

  <!-- Columna A: 2 sueltos arriba-izquierda -->
  <g transform="translate(55,35)"><rect x="0" y="0" width="58" height="40" rx="5" fill="#0c1208" stroke="#5b8aa6" stroke-width="1.8"><animate attributeName="stroke" values="#5b8aa6;#5b8aa6;#93BD22;#93BD22;#5b8aa6;#5b8aa6" keyTimes="0;0.30;0.33;0.70;0.74;1" dur="8s" repeatCount="indefinite"/></rect><rect x="6" y="5" width="46" height="28" rx="2" fill="#0a0f08"><animate attributeName="fill" values="#0a0f08;#0a0f08;#1a2e0a;#1a2e0a;#0a0f08;#0a0f08" keyTimes="0;0.30;0.33;0.70;0.74;1" dur="8s" repeatCount="indefinite"/></rect><path d="M21.0 18.0 l5 5 l11 -11" fill="none" stroke="#93BD22" stroke-width="2.8" stroke-linecap="round" stroke-linejoin="round" opacity="0"><animate attributeName="opacity" values="0;0;1;1;0;0" keyTimes="0;0.33;0.34;0.70;0.73;1" dur="8s" repeatCount="indefinite"/></path><rect x="24.0" y="40" width="10" height="5" fill="#5b8aa6"/><rect x="18.0" y="45" width="22" height="3.5" rx="1.5" fill="#5b8aa6"/><text x="29.0" y="65" text-anchor="middle" fill="#cfd8c2" font-size="12" font-weight="600">PC-22</text></g>
  <g transform="translate(55,123)"><rect x="0" y="0" width="58" height="40" rx="5" fill="#0c1208" stroke="#5b8aa6" stroke-width="1.8"><animate attributeName="stroke" values="#5b8aa6;#5b8aa6;#93BD22;#93BD22;#5b8aa6;#5b8aa6" keyTimes="0;0.30;0.33;0.70;0.74;1" dur="8s" repeatCount="indefinite"/></rect><rect x="6" y="5" width="46" height="28" rx="2" fill="#0a0f08"><animate attributeName="fill" values="#0a0f08;#0a0f08;#1a2e0a;#1a2e0a;#0a0f08;#0a0f08" keyTimes="0;0.30;0.33;0.70;0.74;1" dur="8s" repeatCount="indefinite"/></rect><path d="M21.0 18.0 l5 5 l11 -11" fill="none" stroke="#93BD22" stroke-width="2.8" stroke-linecap="round" stroke-linejoin="round" opacity="0"><animate attributeName="opacity" values="0;0;1;1;0;0" keyTimes="0;0.33;0.34;0.70;0.73;1" dur="8s" repeatCount="indefinite"/></path><rect x="24.0" y="40" width="10" height="5" fill="#5b8aa6"/><rect x="18.0" y="45" width="22" height="3.5" rx="1.5" fill="#5b8aa6"/><text x="29.0" y="65" text-anchor="middle" fill="#cfd8c2" font-size="12" font-weight="600">PC-21</text></g>

  <!-- Columna B (larga) -->
  <g transform="translate(292,95)"><rect x="0" y="0" width="58" height="40" rx="5" fill="#0c1208" stroke="#5b8aa6" stroke-width="1.8"><animate attributeName="stroke" values="#5b8aa6;#5b8aa6;#93BD22;#93BD22;#5b8aa6;#5b8aa6" keyTimes="0;0.30;0.33;0.70;0.74;1" dur="8s" repeatCount="indefinite"/></rect><rect x="6" y="5" width="46" height="28" rx="2" fill="#0a0f08"><animate attributeName="fill" values="#0a0f08;#0a0f08;#1a2e0a;#1a2e0a;#0a0f08;#0a0f08" keyTimes="0;0.30;0.33;0.70;0.74;1" dur="8s" repeatCount="indefinite"/></rect><path d="M21.0 18.0 l5 5 l11 -11" fill="none" stroke="#93BD22" stroke-width="2.8" stroke-linecap="round" stroke-linejoin="round" opacity="0"><animate attributeName="opacity" values="0;0;1;1;0;0" keyTimes="0;0.33;0.34;0.70;0.73;1" dur="8s" repeatCount="indefinite"/></path><rect x="24.0" y="40" width="10" height="5" fill="#5b8aa6"/><rect x="18.0" y="45" width="22" height="3.5" rx="1.5" fill="#5b8aa6"/><text x="29.0" y="65" text-anchor="middle" fill="#cfd8c2" font-size="12" font-weight="600">PC-11</text></g>
  <g transform="translate(292,183)"><rect x="0" y="0" width="58" height="40" rx="5" fill="#0c1208" stroke="#5b8aa6" stroke-width="1.8"><animate attributeName="stroke" values="#5b8aa6;#5b8aa6;#93BD22;#93BD22;#5b8aa6;#5b8aa6" keyTimes="0;0.30;0.33;0.70;0.74;1" dur="8s" repeatCount="indefinite"/></rect><rect x="6" y="5" width="46" height="28" rx="2" fill="#0a0f08"><animate attributeName="fill" values="#0a0f08;#0a0f08;#1a2e0a;#1a2e0a;#0a0f08;#0a0f08" keyTimes="0;0.30;0.33;0.70;0.74;1" dur="8s" repeatCount="indefinite"/></rect><path d="M21.0 18.0 l5 5 l11 -11" fill="none" stroke="#93BD22" stroke-width="2.8" stroke-linecap="round" stroke-linejoin="round" opacity="0"><animate attributeName="opacity" values="0;0;1;1;0;0" keyTimes="0;0.33;0.34;0.70;0.73;1" dur="8s" repeatCount="indefinite"/></path><rect x="24.0" y="40" width="10" height="5" fill="#5b8aa6"/><rect x="18.0" y="45" width="22" height="3.5" rx="1.5" fill="#5b8aa6"/><text x="29.0" y="65" text-anchor="middle" fill="#cfd8c2" font-size="12" font-weight="600">PC-12</text></g>
  <g transform="translate(292,271)"><rect x="0" y="0" width="58" height="40" rx="5" fill="#0c1208" stroke="#5b8aa6" stroke-width="1.8"><animate attributeName="stroke" values="#5b8aa6;#5b8aa6;#93BD22;#93BD22;#5b8aa6;#5b8aa6" keyTimes="0;0.30;0.33;0.70;0.74;1" dur="8s" repeatCount="indefinite"/></rect><rect x="6" y="5" width="46" height="28" rx="2" fill="#0a0f08"><animate attributeName="fill" values="#0a0f08;#0a0f08;#1a2e0a;#1a2e0a;#0a0f08;#0a0f08" keyTimes="0;0.30;0.33;0.70;0.74;1" dur="8s" repeatCount="indefinite"/></rect><path d="M21.0 18.0 l5 5 l11 -11" fill="none" stroke="#93BD22" stroke-width="2.8" stroke-linecap="round" stroke-linejoin="round" opacity="0"><animate attributeName="opacity" values="0;0;1;1;0;0" keyTimes="0;0.33;0.34;0.70;0.73;1" dur="8s" repeatCount="indefinite"/></path><rect x="24.0" y="40" width="10" height="5" fill="#5b8aa6"/><rect x="18.0" y="45" width="22" height="3.5" rx="1.5" fill="#5b8aa6"/><text x="29.0" y="65" text-anchor="middle" fill="#cfd8c2" font-size="12" font-weight="600">PC-13</text></g>
  <g transform="translate(292,359)"><rect x="0" y="0" width="58" height="40" rx="5" fill="#0c1208" stroke="#5b8aa6" stroke-width="1.8"><animate attributeName="stroke" values="#5b8aa6;#5b8aa6;#93BD22;#93BD22;#5b8aa6;#5b8aa6" keyTimes="0;0.30;0.33;0.70;0.74;1" dur="8s" repeatCount="indefinite"/></rect><rect x="6" y="5" width="46" height="28" rx="2" fill="#0a0f08"><animate attributeName="fill" values="#0a0f08;#0a0f08;#1a2e0a;#1a2e0a;#0a0f08;#0a0f08" keyTimes="0;0.30;0.33;0.70;0.74;1" dur="8s" repeatCount="indefinite"/></rect><path d="M21.0 18.0 l5 5 l11 -11" fill="none" stroke="#93BD22" stroke-width="2.8" stroke-linecap="round" stroke-linejoin="round" opacity="0"><animate attributeName="opacity" values="0;0;1;1;0;0" keyTimes="0;0.33;0.34;0.70;0.73;1" dur="8s" repeatCount="indefinite"/></path><rect x="24.0" y="40" width="10" height="5" fill="#5b8aa6"/><rect x="18.0" y="45" width="22" height="3.5" rx="1.5" fill="#5b8aa6"/><text x="29.0" y="65" text-anchor="middle" fill="#cfd8c2" font-size="12" font-weight="600">PC-14</text></g>
  <g transform="translate(292,447)"><rect x="0" y="0" width="58" height="40" rx="5" fill="#0c1208" stroke="#5b8aa6" stroke-width="1.8"><animate attributeName="stroke" values="#5b8aa6;#5b8aa6;#93BD22;#93BD22;#5b8aa6;#5b8aa6" keyTimes="0;0.30;0.33;0.70;0.74;1" dur="8s" repeatCount="indefinite"/></rect><rect x="6" y="5" width="46" height="28" rx="2" fill="#0a0f08"><animate attributeName="fill" values="#0a0f08;#0a0f08;#1a2e0a;#1a2e0a;#0a0f08;#0a0f08" keyTimes="0;0.30;0.33;0.70;0.74;1" dur="8s" repeatCount="indefinite"/></rect><path d="M21.0 18.0 l5 5 l11 -11" fill="none" stroke="#93BD22" stroke-width="2.8" stroke-linecap="round" stroke-linejoin="round" opacity="0"><animate attributeName="opacity" values="0;0;1;1;0;0" keyTimes="0;0.33;0.34;0.70;0.73;1" dur="8s" repeatCount="indefinite"/></path><rect x="24.0" y="40" width="10" height="5" fill="#5b8aa6"/><rect x="18.0" y="45" width="22" height="3.5" rx="1.5" fill="#5b8aa6"/><text x="29.0" y="65" text-anchor="middle" fill="#cfd8c2" font-size="12" font-weight="600">PC-15</text></g>
  <g transform="translate(292,535)"><rect x="0" y="0" width="58" height="40" rx="5" fill="#0c1208" stroke="#5b8aa6" stroke-width="1.8"><animate attributeName="stroke" values="#5b8aa6;#5b8aa6;#93BD22;#93BD22;#5b8aa6;#5b8aa6" keyTimes="0;0.30;0.33;0.70;0.74;1" dur="8s" repeatCount="indefinite"/></rect><rect x="6" y="5" width="46" height="28" rx="2" fill="#0a0f08"><animate attributeName="fill" values="#0a0f08;#0a0f08;#1a2e0a;#1a2e0a;#0a0f08;#0a0f08" keyTimes="0;0.30;0.33;0.70;0.74;1" dur="8s" repeatCount="indefinite"/></rect><path d="M21.0 18.0 l5 5 l11 -11" fill="none" stroke="#93BD22" stroke-width="2.8" stroke-linecap="round" stroke-linejoin="round" opacity="0"><animate attributeName="opacity" values="0;0;1;1;0;0" keyTimes="0;0.33;0.34;0.70;0.73;1" dur="8s" repeatCount="indefinite"/></path><rect x="24.0" y="40" width="10" height="5" fill="#5b8aa6"/><rect x="18.0" y="45" width="22" height="3.5" rx="1.5" fill="#5b8aa6"/><text x="29.0" y="65" text-anchor="middle" fill="#cfd8c2" font-size="12" font-weight="600">PC-16</text></g>
  <g transform="translate(292,623)"><rect x="0" y="0" width="58" height="40" rx="5" fill="#0c1208" stroke="#5b8aa6" stroke-width="1.8"><animate attributeName="stroke" values="#5b8aa6;#5b8aa6;#93BD22;#93BD22;#5b8aa6;#5b8aa6" keyTimes="0;0.30;0.33;0.70;0.74;1" dur="8s" repeatCount="indefinite"/></rect><rect x="6" y="5" width="46" height="28" rx="2" fill="#0a0f08"><animate attributeName="fill" values="#0a0f08;#0a0f08;#1a2e0a;#1a2e0a;#0a0f08;#0a0f08" keyTimes="0;0.30;0.33;0.70;0.74;1" dur="8s" repeatCount="indefinite"/></rect><path d="M21.0 18.0 l5 5 l11 -11" fill="none" stroke="#93BD22" stroke-width="2.8" stroke-linecap="round" stroke-linejoin="round" opacity="0"><animate attributeName="opacity" values="0;0;1;1;0;0" keyTimes="0;0.33;0.34;0.70;0.73;1" dur="8s" repeatCount="indefinite"/></path><rect x="24.0" y="40" width="10" height="5" fill="#5b8aa6"/><rect x="18.0" y="45" width="22" height="3.5" rx="1.5" fill="#5b8aa6"/><text x="29.0" y="65" text-anchor="middle" fill="#cfd8c2" font-size="12" font-weight="600">PC-17</text></g>
  <g transform="translate(292,711)"><rect x="0" y="0" width="58" height="40" rx="5" fill="#0c1208" stroke="#5b8aa6" stroke-width="1.8"><animate attributeName="stroke" values="#5b8aa6;#5b8aa6;#93BD22;#93BD22;#5b8aa6;#5b8aa6" keyTimes="0;0.30;0.33;0.70;0.74;1" dur="8s" repeatCount="indefinite"/></rect><rect x="6" y="5" width="46" height="28" rx="2" fill="#0a0f08"><animate attributeName="fill" values="#0a0f08;#0a0f08;#1a2e0a;#1a2e0a;#0a0f08;#0a0f08" keyTimes="0;0.30;0.33;0.70;0.74;1" dur="8s" repeatCount="indefinite"/></rect><path d="M21.0 18.0 l5 5 l11 -11" fill="none" stroke="#93BD22" stroke-width="2.8" stroke-linecap="round" stroke-linejoin="round" opacity="0"><animate attributeName="opacity" values="0;0;1;1;0;0" keyTimes="0;0.33;0.34;0.70;0.73;1" dur="8s" repeatCount="indefinite"/></path><rect x="24.0" y="40" width="10" height="5" fill="#5b8aa6"/><rect x="18.0" y="45" width="22" height="3.5" rx="1.5" fill="#5b8aa6"/><text x="29.0" y="65" text-anchor="middle" fill="#cfd8c2" font-size="12" font-weight="600">PC-18</text></g>
  <g transform="translate(292,799)"><rect x="0" y="0" width="58" height="40" rx="5" fill="#0c1208" stroke="#5b8aa6" stroke-width="1.8"><animate attributeName="stroke" values="#5b8aa6;#5b8aa6;#93BD22;#93BD22;#5b8aa6;#5b8aa6" keyTimes="0;0.30;0.33;0.70;0.74;1" dur="8s" repeatCount="indefinite"/></rect><rect x="6" y="5" width="46" height="28" rx="2" fill="#0a0f08"><animate attributeName="fill" values="#0a0f08;#0a0f08;#1a2e0a;#1a2e0a;#0a0f08;#0a0f08" keyTimes="0;0.30;0.33;0.70;0.74;1" dur="8s" repeatCount="indefinite"/></rect><path d="M21.0 18.0 l5 5 l11 -11" fill="none" stroke="#93BD22" stroke-width="2.8" stroke-linecap="round" stroke-linejoin="round" opacity="0"><animate attributeName="opacity" values="0;0;1;1;0;0" keyTimes="0;0.33;0.34;0.70;0.73;1" dur="8s" repeatCount="indefinite"/></path><rect x="24.0" y="40" width="10" height="5" fill="#5b8aa6"/><rect x="18.0" y="45" width="22" height="3.5" rx="1.5" fill="#5b8aa6"/><text x="29.0" y="65" text-anchor="middle" fill="#cfd8c2" font-size="12" font-weight="600">PC-19</text></g>
  <g transform="translate(292,887)"><rect x="0" y="0" width="58" height="40" rx="5" fill="#0c1208" stroke="#5b8aa6" stroke-width="1.8"><animate attributeName="stroke" values="#5b8aa6;#5b8aa6;#93BD22;#93BD22;#5b8aa6;#5b8aa6" keyTimes="0;0.30;0.33;0.70;0.74;1" dur="8s" repeatCount="indefinite"/></rect><rect x="6" y="5" width="46" height="28" rx="2" fill="#0a0f08"><animate attributeName="fill" values="#0a0f08;#0a0f08;#1a2e0a;#1a2e0a;#0a0f08;#0a0f08" keyTimes="0;0.30;0.33;0.70;0.74;1" dur="8s" repeatCount="indefinite"/></rect><path d="M21.0 18.0 l5 5 l11 -11" fill="none" stroke="#93BD22" stroke-width="2.8" stroke-linecap="round" stroke-linejoin="round" opacity="0"><animate attributeName="opacity" values="0;0;1;1;0;0" keyTimes="0;0.33;0.34;0.70;0.73;1" dur="8s" repeatCount="indefinite"/></path><rect x="24.0" y="40" width="10" height="5" fill="#5b8aa6"/><rect x="18.0" y="45" width="22" height="3.5" rx="1.5" fill="#5b8aa6"/><text x="29.0" y="65" text-anchor="middle" fill="#cfd8c2" font-size="12" font-weight="600">PC-20</text></g>

  <!-- Columna C (larga) -->
  <g transform="translate(410,95)"><rect x="0" y="0" width="58" height="40" rx="5" fill="#0c1208" stroke="#5b8aa6" stroke-width="1.8"><animate attributeName="stroke" values="#5b8aa6;#5b8aa6;#93BD22;#93BD22;#5b8aa6;#5b8aa6" keyTimes="0;0.30;0.33;0.70;0.74;1" dur="8s" repeatCount="indefinite"/></rect><rect x="6" y="5" width="46" height="28" rx="2" fill="#0a0f08"><animate attributeName="fill" values="#0a0f08;#0a0f08;#1a2e0a;#1a2e0a;#0a0f08;#0a0f08" keyTimes="0;0.30;0.33;0.70;0.74;1" dur="8s" repeatCount="indefinite"/></rect><path d="M21.0 18.0 l5 5 l11 -11" fill="none" stroke="#93BD22" stroke-width="2.8" stroke-linecap="round" stroke-linejoin="round" opacity="0"><animate attributeName="opacity" values="0;0;1;1;0;0" keyTimes="0;0.33;0.34;0.70;0.73;1" dur="8s" repeatCount="indefinite"/></path><rect x="24.0" y="40" width="10" height="5" fill="#5b8aa6"/><rect x="18.0" y="45" width="22" height="3.5" rx="1.5" fill="#5b8aa6"/><text x="29.0" y="65" text-anchor="middle" fill="#cfd8c2" font-size="12" font-weight="600">PC-10</text></g>
  <g transform="translate(410,183)"><rect x="0" y="0" width="58" height="40" rx="5" fill="#0c1208" stroke="#5b8aa6" stroke-width="1.8"><animate attributeName="stroke" values="#5b8aa6;#5b8aa6;#93BD22;#93BD22;#5b8aa6;#5b8aa6" keyTimes="0;0.30;0.33;0.70;0.74;1" dur="8s" repeatCount="indefinite"/></rect><rect x="6" y="5" width="46" height="28" rx="2" fill="#0a0f08"><animate attributeName="fill" values="#0a0f08;#0a0f08;#1a2e0a;#1a2e0a;#0a0f08;#0a0f08" keyTimes="0;0.30;0.33;0.70;0.74;1" dur="8s" repeatCount="indefinite"/></rect><path d="M21.0 18.0 l5 5 l11 -11" fill="none" stroke="#93BD22" stroke-width="2.8" stroke-linecap="round" stroke-linejoin="round" opacity="0"><animate attributeName="opacity" values="0;0;1;1;0;0" keyTimes="0;0.33;0.34;0.70;0.73;1" dur="8s" repeatCount="indefinite"/></path><rect x="24.0" y="40" width="10" height="5" fill="#5b8aa6"/><rect x="18.0" y="45" width="22" height="3.5" rx="1.5" fill="#5b8aa6"/><text x="29.0" y="65" text-anchor="middle" fill="#cfd8c2" font-size="12" font-weight="600">PC-09</text></g>
  <g transform="translate(410,271)"><rect x="0" y="0" width="58" height="40" rx="5" fill="#0c1208" stroke="#5b8aa6" stroke-width="1.8"><animate attributeName="stroke" values="#5b8aa6;#5b8aa6;#93BD22;#93BD22;#5b8aa6;#5b8aa6" keyTimes="0;0.30;0.33;0.70;0.74;1" dur="8s" repeatCount="indefinite"/></rect><rect x="6" y="5" width="46" height="28" rx="2" fill="#0a0f08"><animate attributeName="fill" values="#0a0f08;#0a0f08;#1a2e0a;#1a2e0a;#0a0f08;#0a0f08" keyTimes="0;0.30;0.33;0.70;0.74;1" dur="8s" repeatCount="indefinite"/></rect><path d="M21.0 18.0 l5 5 l11 -11" fill="none" stroke="#93BD22" stroke-width="2.8" stroke-linecap="round" stroke-linejoin="round" opacity="0"><animate attributeName="opacity" values="0;0;1;1;0;0" keyTimes="0;0.33;0.34;0.70;0.73;1" dur="8s" repeatCount="indefinite"/></path><rect x="24.0" y="40" width="10" height="5" fill="#5b8aa6"/><rect x="18.0" y="45" width="22" height="3.5" rx="1.5" fill="#5b8aa6"/><text x="29.0" y="65" text-anchor="middle" fill="#cfd8c2" font-size="12" font-weight="600">PC-08</text></g>
  <g transform="translate(410,359)"><rect x="0" y="0" width="58" height="40" rx="5" fill="#0c1208" stroke="#5b8aa6" stroke-width="1.8"><animate attributeName="stroke" values="#5b8aa6;#5b8aa6;#93BD22;#93BD22;#5b8aa6;#5b8aa6" keyTimes="0;0.30;0.33;0.70;0.74;1" dur="8s" repeatCount="indefinite"/></rect><rect x="6" y="5" width="46" height="28" rx="2" fill="#0a0f08"><animate attributeName="fill" values="#0a0f08;#0a0f08;#1a2e0a;#1a2e0a;#0a0f08;#0a0f08" keyTimes="0;0.30;0.33;0.70;0.74;1" dur="8s" repeatCount="indefinite"/></rect><path d="M21.0 18.0 l5 5 l11 -11" fill="none" stroke="#93BD22" stroke-width="2.8" stroke-linecap="round" stroke-linejoin="round" opacity="0"><animate attributeName="opacity" values="0;0;1;1;0;0" keyTimes="0;0.33;0.34;0.70;0.73;1" dur="8s" repeatCount="indefinite"/></path><rect x="24.0" y="40" width="10" height="5" fill="#5b8aa6"/><rect x="18.0" y="45" width="22" height="3.5" rx="1.5" fill="#5b8aa6"/><text x="29.0" y="65" text-anchor="middle" fill="#cfd8c2" font-size="12" font-weight="600">PC-07</text></g>
  <g transform="translate(410,447)"><rect x="0" y="0" width="58" height="40" rx="5" fill="#0c1208" stroke="#5b8aa6" stroke-width="1.8"><animate attributeName="stroke" values="#5b8aa6;#5b8aa6;#93BD22;#93BD22;#5b8aa6;#5b8aa6" keyTimes="0;0.30;0.33;0.70;0.74;1" dur="8s" repeatCount="indefinite"/></rect><rect x="6" y="5" width="46" height="28" rx="2" fill="#0a0f08"><animate attributeName="fill" values="#0a0f08;#0a0f08;#1a2e0a;#1a2e0a;#0a0f08;#0a0f08" keyTimes="0;0.30;0.33;0.70;0.74;1" dur="8s" repeatCount="indefinite"/></rect><path d="M21.0 18.0 l5 5 l11 -11" fill="none" stroke="#93BD22" stroke-width="2.8" stroke-linecap="round" stroke-linejoin="round" opacity="0"><animate attributeName="opacity" values="0;0;1;1;0;0" keyTimes="0;0.33;0.34;0.70;0.73;1" dur="8s" repeatCount="indefinite"/></path><rect x="24.0" y="40" width="10" height="5" fill="#5b8aa6"/><rect x="18.0" y="45" width="22" height="3.5" rx="1.5" fill="#5b8aa6"/><text x="29.0" y="65" text-anchor="middle" fill="#cfd8c2" font-size="12" font-weight="600">PC-06</text></g>
  <g transform="translate(410,535)"><rect x="0" y="0" width="58" height="40" rx="5" fill="#0c1208" stroke="#5b8aa6" stroke-width="1.8"><animate attributeName="stroke" values="#5b8aa6;#5b8aa6;#93BD22;#93BD22;#5b8aa6;#5b8aa6" keyTimes="0;0.30;0.33;0.70;0.74;1" dur="8s" repeatCount="indefinite"/></rect><rect x="6" y="5" width="46" height="28" rx="2" fill="#0a0f08"><animate attributeName="fill" values="#0a0f08;#0a0f08;#1a2e0a;#1a2e0a;#0a0f08;#0a0f08" keyTimes="0;0.30;0.33;0.70;0.74;1" dur="8s" repeatCount="indefinite"/></rect><path d="M21.0 18.0 l5 5 l11 -11" fill="none" stroke="#93BD22" stroke-width="2.8" stroke-linecap="round" stroke-linejoin="round" opacity="0"><animate attributeName="opacity" values="0;0;1;1;0;0" keyTimes="0;0.33;0.34;0.70;0.73;1" dur="8s" repeatCount="indefinite"/></path><rect x="24.0" y="40" width="10" height="5" fill="#5b8aa6"/><rect x="18.0" y="45" width="22" height="3.5" rx="1.5" fill="#5b8aa6"/><text x="29.0" y="65" text-anchor="middle" fill="#cfd8c2" font-size="12" font-weight="600">PC-05</text></g>
  <g transform="translate(410,623)"><rect x="0" y="0" width="58" height="40" rx="5" fill="#0c1208" stroke="#5b8aa6" stroke-width="1.8"><animate attributeName="stroke" values="#5b8aa6;#5b8aa6;#93BD22;#93BD22;#5b8aa6;#5b8aa6" keyTimes="0;0.30;0.33;0.70;0.74;1" dur="8s" repeatCount="indefinite"/></rect><rect x="6" y="5" width="46" height="28" rx="2" fill="#0a0f08"><animate attributeName="fill" values="#0a0f08;#0a0f08;#1a2e0a;#1a2e0a;#0a0f08;#0a0f08" keyTimes="0;0.30;0.33;0.70;0.74;1" dur="8s" repeatCount="indefinite"/></rect><path d="M21.0 18.0 l5 5 l11 -11" fill="none" stroke="#93BD22" stroke-width="2.8" stroke-linecap="round" stroke-linejoin="round" opacity="0"><animate attributeName="opacity" values="0;0;1;1;0;0" keyTimes="0;0.33;0.34;0.70;0.73;1" dur="8s" repeatCount="indefinite"/></path><rect x="24.0" y="40" width="10" height="5" fill="#5b8aa6"/><rect x="18.0" y="45" width="22" height="3.5" rx="1.5" fill="#5b8aa6"/><text x="29.0" y="65" text-anchor="middle" fill="#cfd8c2" font-size="12" font-weight="600">PC-04</text></g>
  <g transform="translate(410,711)"><rect x="0" y="0" width="58" height="40" rx="5" fill="#0c1208" stroke="#5b8aa6" stroke-width="1.8"><animate attributeName="stroke" values="#5b8aa6;#5b8aa6;#93BD22;#93BD22;#5b8aa6;#5b8aa6" keyTimes="0;0.30;0.33;0.70;0.74;1" dur="8s" repeatCount="indefinite"/></rect><rect x="6" y="5" width="46" height="28" rx="2" fill="#0a0f08"><animate attributeName="fill" values="#0a0f08;#0a0f08;#1a2e0a;#1a2e0a;#0a0f08;#0a0f08" keyTimes="0;0.30;0.33;0.70;0.74;1" dur="8s" repeatCount="indefinite"/></rect><path d="M21.0 18.0 l5 5 l11 -11" fill="none" stroke="#93BD22" stroke-width="2.8" stroke-linecap="round" stroke-linejoin="round" opacity="0"><animate attributeName="opacity" values="0;0;1;1;0;0" keyTimes="0;0.33;0.34;0.70;0.73;1" dur="8s" repeatCount="indefinite"/></path><rect x="24.0" y="40" width="10" height="5" fill="#5b8aa6"/><rect x="18.0" y="45" width="22" height="3.5" rx="1.5" fill="#5b8aa6"/><text x="29.0" y="65" text-anchor="middle" fill="#cfd8c2" font-size="12" font-weight="600">PC-03</text></g>
  <g transform="translate(410,799)"><rect x="0" y="0" width="58" height="40" rx="5" fill="#0c1208" stroke="#5b8aa6" stroke-width="1.8"><animate attributeName="stroke" values="#5b8aa6;#5b8aa6;#93BD22;#93BD22;#5b8aa6;#5b8aa6" keyTimes="0;0.30;0.33;0.70;0.74;1" dur="8s" repeatCount="indefinite"/></rect><rect x="6" y="5" width="46" height="28" rx="2" fill="#0a0f08"><animate attributeName="fill" values="#0a0f08;#0a0f08;#1a2e0a;#1a2e0a;#0a0f08;#0a0f08" keyTimes="0;0.30;0.33;0.70;0.74;1" dur="8s" repeatCount="indefinite"/></rect><path d="M21.0 18.0 l5 5 l11 -11" fill="none" stroke="#93BD22" stroke-width="2.8" stroke-linecap="round" stroke-linejoin="round" opacity="0"><animate attributeName="opacity" values="0;0;1;1;0;0" keyTimes="0;0.33;0.34;0.70;0.73;1" dur="8s" repeatCount="indefinite"/></path><rect x="24.0" y="40" width="10" height="5" fill="#5b8aa6"/><rect x="18.0" y="45" width="22" height="3.5" rx="1.5" fill="#5b8aa6"/><text x="29.0" y="65" text-anchor="middle" fill="#cfd8c2" font-size="12" font-weight="600">PC-02</text></g>
  <g transform="translate(410,887)"><rect x="0" y="0" width="58" height="40" rx="5" fill="#0c1208" stroke="#5b8aa6" stroke-width="1.8"><animate attributeName="stroke" values="#5b8aa6;#5b8aa6;#93BD22;#93BD22;#5b8aa6;#5b8aa6" keyTimes="0;0.30;0.33;0.70;0.74;1" dur="8s" repeatCount="indefinite"/></rect><rect x="6" y="5" width="46" height="28" rx="2" fill="#0a0f08"><animate attributeName="fill" values="#0a0f08;#0a0f08;#1a2e0a;#1a2e0a;#0a0f08;#0a0f08" keyTimes="0;0.30;0.33;0.70;0.74;1" dur="8s" repeatCount="indefinite"/></rect><path d="M21.0 18.0 l5 5 l11 -11" fill="none" stroke="#93BD22" stroke-width="2.8" stroke-linecap="round" stroke-linejoin="round" opacity="0"><animate attributeName="opacity" values="0;0;1;1;0;0" keyTimes="0;0.33;0.34;0.70;0.73;1" dur="8s" repeatCount="indefinite"/></path><rect x="24.0" y="40" width="10" height="5" fill="#5b8aa6"/><rect x="18.0" y="45" width="22" height="3.5" rx="1.5" fill="#5b8aa6"/><text x="29.0" y="65" text-anchor="middle" fill="#cfd8c2" font-size="12" font-weight="600">PC-01</text></g>

  <!-- Profesor -->
  <g transform="translate(620,980)">
    <rect x="0" y="0" width="58" height="40" rx="4" fill="url(#profGrad)" stroke="#93BD22" stroke-width="2.5"/>
    <g transform="translate(16.0,9.0) scale(0.24)">
      <path d="M10 12 L58 50 L10 88" fill="none" stroke="#93BD22" stroke-width="13" stroke-linecap="round" stroke-linejoin="round"/>
      <line x1="52" y1="88" x2="92" y2="88" stroke="#93BD22" stroke-width="13" stroke-linecap="round"/>
    </g>
    <rect x="24.0" y="40" width="10" height="5" fill="#93BD22"/>
    <rect x="19.0" y="45" width="20" height="3" rx="1.5" fill="#93BD22"/>
    <text x="29.0" y="64" text-anchor="middle" fill="#93BD22" font-size="11.5" font-weight="700">PROFESOR</text>
  </g>

  <!-- Acceso al aula -->
  <g transform="translate(648,70)">
    <text x="0" y="0" text-anchor="middle" fill="#93BD22" font-size="30" font-weight="300" opacity="0.55">L2-D-ATC</text>
    <text x="0" y="34" text-anchor="middle" fill="#93BD22" font-size="11" font-weight="bold" letter-spacing="2" font-family="sans-serif" opacity="0.9">ACCESO AL AULA</text>
    <g transform="translate(0,80)" style="filter: drop-shadow(0 0 8px rgba(147,189,34,0.6));">
      <path d="M18,-12 L4,0 L18,12" fill="none" stroke="#93BD22" stroke-width="4" stroke-linecap="round" stroke-linejoin="round"><animate attributeName="opacity" values="1;0.2;1" dur="1.5s" begin="0s" repeatCount="indefinite"/></path>
      <path d="M4,-12 L-10,0 L4,12" fill="none" stroke="#93BD22" stroke-width="4" stroke-linecap="round" stroke-linejoin="round"><animate attributeName="opacity" values="1;0.2;1" dur="1.5s" begin="0.25s" repeatCount="indefinite"/></path>
      <path d="M-10,-12 L-24,0 L-10,12" fill="none" stroke="#93BD22" stroke-width="4" stroke-linecap="round" stroke-linejoin="round"><animate attributeName="opacity" values="1;0.2;1" dur="1.5s" begin="0.5s" repeatCount="indefinite"/></path>
    </g>
  </g>
</svg>
