<svg version="1.0" xmlns="http://www.w3.org/2000/svg" width="608px" height="657px" viewBox="0 0 608 657" preserveAspectRatio="xMidYMid meet" transform="rotate(0) scale(1, 1)">
 <g fill="#ffffff">
  <path d="M0 328.50 l0 -328.50 304 0 304 0 0 328.50 0 328.50 -304 0 -304 0 0 -328.50z m351.75 318.75 c2.75 -0.40 7.05 -1.30 9.60 -2 5.10 -1.35 14.35 -5.75 15.10 -7.15 0.55 -1 2.35 -12.15 2.80 -17.15 l0.30 -3.35 3.20 -0.80 c8.40 -2.10 14.40 -5.10 17.60 -8.80 1.70 -1.95 2.85 -6.70 2.80 -11.50 0 -2.35 -1.30 -13.55 -2.85 -24.95 -1.55 -11.35 -2.80 -21.20 -2.80 -21.85 0 -1.15 0.20 -1.20 2.95 -1.20 l3 0 2.50 -3.60 c3.75 -5.45 6.70 -7 14.15 -7.65 2 -0.15 5.65 -0.55 8.05 -0.80 2.45 -0.30 6 -0.40 7.95 -0.20 3.20 0.35 3.70 0.55 5.60 2.35 1.10 1.10 3.30 2.60 4.80 3.30 2.70 1.30 3.05 1.30 14.60 1.50 13.40 0.25 22.25 -0.40 25.50 -1.90 6.05 -2.70 11.80 -7.15 15.85 -12.20 2.65 -3.35 2.95 -4.05 4.20 -9.15 4.40 -17.65 3.70 -35.50 -2.05 -52.70 -1.75 -5.30 -2.20 -6.15 -6.65 -11.95 -8.70 -11.40 -9.95 -13.95 -9.95 -20.55 0 -4.10 1 -6.95 5.60 -16.20 12.65 -25.25 18.05 -45.55 21 -78.75 0.85 -9.75 0.85 -42.30 0 -50.50 -2.75 -26.45 -8.05 -48.30 -16.85 -69.25 -3 -7.20 -9.75 -20.25 -14 -27.05 -6.55 -10.40 -12.10 -17.20 -24.60 -30.05 -4.40 -4.50 -9.10 -11 -11.75 -16.40 -3.60 -7.15 -5.25 -13.15 -9.40 -34.50 -3.25 -16.75 -5.50 -24.20 -10.05 -33.55 -3.95 -8.10 -6.85 -12.45 -13.10 -19.50 -14.05 -15.95 -26.80 -26.45 -42.10 -34.85 -11.95 -6.50 -22.15 -10.15 -37 -13.10 -12.25 -2.45 -16.15 -2.85 -29 -2.85 -15.25 -0.05 -23.45 1 -39.80 5.10 -22.55 5.65 -41.75 12.95 -59.20 22.45 -11.60 6.30 -26.65 17.95 -34.05 26.35 -6.75 7.75 -7.05 8.25 -8.70 16.50 -0.85 4.05 -1.50 7.45 -1.50 7.50 0 0.10 -2.70 1.55 -6 3.20 -5.05 2.55 -6.25 3.35 -7.75 5.40 -2.60 3.50 -7.55 13.70 -9.10 18.85 -1.30 4.30 -1.40 5 -1.35 14.15 l0.05 9.60 -1.80 0 c-4.30 0 -5.15 0.60 -13.35 9.40 -19.45 20.75 -33.35 40.60 -44.50 63.45 -14 28.75 -20.95 55.70 -24.30 93.90 -0.90 10.10 -0.85 39.60 0.05 47.50 6 53.35 31.50 104.30 66.25 132.50 3.15 2.55 7.95 8.55 9.75 12.20 3.65 7.25 4.55 12.85 4.90 29.70 l0.30 13.40 3.30 3 c10.65 9.65 34.10 21.20 54.30 26.70 11.60 3.20 14.25 3.50 26.90 3.40 l11.35 -0.10 0 3.85 c0.05 6.70 1.35 12.10 6.75 28.35 1.20 3.60 2.65 8.30 3.25 10.50 2.35 8.65 6.10 19.75 7.30 21.60 3.05 4.50 3.65 4.90 12.80 8.20 8.45 3.05 12.50 3.25 54.90 3.05 22.45 -0.10 30.40 -0.30 34.25 -0.85z"/>
  <path d="M312.50 635.70 c-22.80 -0.90 -40.55 -3.75 -50.60 -8.10 -2.50 -1.10 -2.85 -1.70 -5.75 -9.10 -7.75 -19.90 -17.35 -63.45 -22.60 -102.50 -1.55 -11.25 -4.05 -34.85 -4.05 -37.85 0 -1.40 0.20 -1.65 1.65 -1.90 15.10 -2.55 31.40 -4.55 44.85 -5.55 12.40 -0.95 66.75 -1.30 73.15 -0.55 3.20 0.40 3.50 0.55 5.75 2.95 4.15 4.40 4.30 5 5.35 22.20 0.60 10.55 5.85 105.05 7.05 128.05 l0.35 6.10 -1.20 0.30 c-2.10 0.45 -13.55 2.75 -17.70 3.50 -10.40 1.90 -25.15 2.90 -36.25 2.45z"/>
  <path d="M370.30 598.90 c-0.80 -9.25 -2.85 -42.15 -2.70 -43.20 0.15 -1.10 0.75 -1.45 4.55 -2.75 5.50 -1.80 6.65 -1.80 10.35 0.05 2.90 1.45 2.95 1.55 3.95 4.85 1.20 4.20 3.35 15.75 4.10 22.40 0.80 7 0.30 13.25 -1.60 20.40 l-0.50 1.85 -8.95 0 -8.90 0 -0.30 -3.60z"/>
  <path d="M222.50 559.75 c-14.45 -1.85 -28.35 -5.55 -42.75 -11.25 -7 -2.80 -20.55 -10.35 -27.50 -15.40 -3.40 -2.45 -4.25 -3.35 -5.60 -6.05 -2.45 -4.90 -2.70 -7.60 -2.35 -24.10 0.35 -15.90 0.05 -21.05 -2.10 -35.95 -3.85 -27.10 -7.95 -45.55 -15.20 -69 -4.55 -14.65 -7.50 -27.10 -8.30 -35 l-0.30 -3.30 4.85 -3.95 c18.90 -15.35 22.15 -17.85 34.25 -26 14.05 -9.50 27.55 -15.25 35.75 -15.25 l3.10 0 5.50 5.90 c10.90 11.65 17.10 16 35.75 25.25 10.75 5.35 13.15 6.75 16.05 9.40 5.30 4.80 7.45 7.90 11.80 16.95 0.30 0.70 0.45 0.85 0.30 0.35 -1.50 -5.20 -1.55 -22.25 -0.05 -27.60 0.95 -3.30 4.50 -10.85 5.55 -11.75 1.10 -0.90 11.10 -1.25 15.05 -0.50 5.80 1.05 13.35 4.05 27.80 11.05 l13.90 6.70 0 1.80 c0 1.70 -0.25 2 -3 3.75 -1.65 1.10 -3 2.10 -3 2.25 0 0.15 0.60 0.60 1.30 1 2.40 1.25 5.55 5.35 6.90 8.85 2.20 5.75 2.15 5.95 -4.05 10.85 -8.25 6.55 -19.70 13.40 -28.25 16.90 -5.65 2.35 -16.90 5.85 -18.80 5.85 -1.35 0 -1.65 -0.30 -2.85 -2.85 -2.30 -4.95 -4.35 -9.70 -6.55 -15.40 -2.20 -5.60 -2.80 -6.40 -1.45 -1.95 0.40 1.35 1.40 5.40 2.20 8.95 2.20 9.65 3.20 12 6.60 15.30 1.70 1.70 3.65 3.10 4.80 3.45 4.30 1.30 4.65 1.55 4.65 3.05 0 0.80 -0.55 3.10 -1.25 5.15 -2.30 6.90 -1.25 11.65 3.55 15.55 1.30 1.05 8.35 4.90 15.65 8.55 8.35 4.15 15.05 7.85 17.95 9.90 2.55 1.80 4.85 3.30 5.15 3.30 0.25 0 0.45 0.90 0.45 1.95 l0 2 -2.60 0.25 c-7.95 0.85 -29.40 2.80 -33.90 3.10 -2.90 0.15 -9.30 0.75 -14.25 1.30 -7.05 0.80 -13.55 1.05 -29.85 1.25 l-20.90 0.25 0 -31.55 0 -31.55 -1.55 0 -1.55 0 0.15 24.90 c0.20 26.20 0.10 27.85 -2.10 32.90 -0.90 1.95 -1.20 2.20 -2.60 2.20 -0.90 0 -4.65 -1 -8.35 -2.25 -3.65 -1.25 -6.75 -2.15 -6.90 -2.05 -0.10 0.15 0.30 2.50 0.85 5.35 1.45 6.95 1.40 7.85 -0.30 8.25 -10.65 2.60 -10.40 2.50 -10.55 4.15 l-0.15 1.55 15 0 14.95 0 0.30 1.40 c0.55 2.70 3.25 21.50 4.25 29.60 1.95 15.40 4.55 44.90 4.55 51 l0 2 -2.60 -0.05 c-1.45 -0.05 -4.80 -0.35 -7.40 -0.70z"/>
  <path d="M367.50 542.15 c0 -0.25 -0.25 -1.75 -0.50 -3.40 -2.15 -12.85 -3 -25.15 -3 -44.15 0 -16.85 0.40 -20.65 2.40 -22.75 l1.30 -1.35 7.50 0.10 7.45 0.15 1.20 3.50 c3.40 9.75 5.35 20.05 6.10 32.25 0.90 13.85 1.70 32.55 1.40 32.80 -0.30 0.30 -3.25 0.75 -13.85 2.20 -7.90 1.05 -10 1.20 -10 0.65z"/>
  <path d="M465 534.25 c-0.40 -0.10 -2.25 -0.35 -4.10 -0.50 l-3.40 -0.35 0 -2.90 0 -2.95 2.90 -0.55 c5.05 -0.95 5.20 -1.30 0.95 -1.90 -2.30 -0.35 -10.10 -0.60 -18.85 -0.60 l-14.90 0 -0.30 -1.85 c-0.20 -1.05 -1.35 -9.30 -2.55 -18.35 -2.65 -19.25 -2.95 -28.50 -1.30 -35.45 0.50 -2.15 1.15 -4.10 1.35 -4.35 1.55 -1.45 27.85 -13.50 33.70 -15.40 4.10 -1.35 11.30 -2.60 14.95 -2.60 2.40 0 3.35 0.30 5.85 1.80 6.15 3.70 7.85 6.40 11.90 19 3.70 11.45 8.30 32.60 8.30 37.90 0 2.35 -1.15 7.65 -2.30 10.50 -1.10 2.85 -6.50 10.55 -8.35 11.90 -3.70 2.80 -7.80 4.90 -10.85 5.60 -3.25 0.75 -11.60 1.40 -13 1.05z m9.50 -31.45 c-0.30 -0.40 -1.60 -1.15 -2.80 -1.60 -2.40 -0.90 -5.80 -1.05 -20.80 -0.80 l-8.40 0.10 0 1.50 0 1.50 16.30 0 c14.20 0 16.25 -0.10 15.70 -0.70z m-8.65 -15.65 l4.15 -0.90 -1.65 -1.80 c-1.65 -1.75 -1.75 -1.80 -6.65 -2.15 -5.75 -0.40 -11.45 0.30 -15.90 1.85 -2.85 1.05 -3.05 1.20 -3.20 2.80 l-0.15 1.70 9.65 -0.30 c6.20 -0.20 11.10 -0.65 13.75 -1.20z m-18.35 -9.40 c0.95 -0.35 3.65 -1.70 6 -3 2.35 -1.30 6.15 -3.45 8.50 -4.75 3.80 -2.15 4.25 -2.55 4.40 -3.95 l0.15 -1.55 -3.65 0.30 c-4.50 0.40 -11 2.25 -14.80 4.15 -2.95 1.50 -12.25 8.10 -11.90 8.45 0.10 0.10 1.30 0.50 2.65 0.85 2.55 0.70 5.70 0.50 8.65 -0.50z"/>
  <path d="M403.50 530.15 c0 -0.25 -0.25 -1.75 -0.50 -3.40 -1.85 -10.90 -4.10 -28.10 -4.50 -34 -0.45 -6.95 0 -16.85 0.95 -20.70 0.25 -1 0.60 -2.40 0.75 -3.15 0.25 -1.20 0.55 -1.40 2.05 -1.40 1 0 2.15 0.20 2.65 0.45 0.45 0.30 2.40 1 4.30 1.60 l3.40 1.05 1.65 3.60 c3.25 7 5 14.95 5.75 26.30 0.95 13.60 1.65 26.55 1.40 26.75 -0.10 0.10 -3.50 0.90 -7.50 1.75 -7.25 1.50 -10.40 1.85 -10.40 1.15z"/>
  <path d="M124.75 470.50 c-1.10 -1.40 -3 -3.70 -4.20 -5.15 -3.90 -4.70 -14.10 -18.50 -17.80 -24.10 -8.75 -13.30 -17.05 -29.65 -22.75 -44.75 -6.25 -16.45 -10.75 -35.70 -12.50 -52.95 -0.75 -7.70 -0.60 -32.40 0.25 -42.20 2.15 -24.50 7.75 -48.40 16.25 -69.35 2.80 -6.95 11.25 -24.10 14.65 -29.75 9.15 -15.25 20.50 -30.75 31 -42.35 l3.95 -4.40 2.95 0 c2.95 0 2.95 0 2.95 1.45 0 0.80 -0.35 3.10 -0.75 5.15 -5.45 25.90 -4.35 50 3 65.35 3.20 6.60 6.25 11.10 9.60 14.05 3 2.60 4.85 3.60 12.35 6.35 3.35 1.20 7.05 3 8.40 4 2.55 1.85 5.60 5.55 7.15 8.65 2.45 4.80 11.40 35.10 11.15 37.65 -0.15 1.35 -1.15 2.20 -9.40 7.70 -9.95 6.70 -26.15 16.95 -29 18.40 -0.95 0.45 -3.20 1.85 -5 3 -1.80 1.20 -7.75 4.65 -13.25 7.75 -12.95 7.25 -20.55 12.30 -24.50 16.15 l-3.15 3.10 -0.35 3.95 c-0.75 8.15 0.85 15.30 7.55 33.20 2.65 7.05 6.05 16.55 7.50 21.10 2.75 8.35 8.95 30.60 10.50 37.50 1.10 4.85 1.15 16.65 0.10 20.25 -0.70 2.40 -0.75 2.50 -2.70 2.60 -1.80 0.15 -2.10 -0.05 -3.95 -2.35z"/>
  <path d="M387.25 456 c-3 -0.20 -6.70 -0.40 -8.10 -0.45 l-2.65 -0.05 0 -2.60 c0 -1.50 0.45 -3.50 0.95 -4.65 0.95 -2.10 6.95 -12.25 15.50 -26.25 9.05 -14.80 13.65 -22.70 14.65 -25.25 1.15 -2.95 1.05 -6.80 -0.35 -11.75 -0.80 -3 -0.85 -4.90 -0.60 -23.15 0.35 -24.70 0 -27.80 -4.40 -35.60 -0.90 -1.65 -2.95 -4.25 -4.45 -5.65 -2.60 -2.45 -2.80 -2.85 -2.80 -4.90 0 -1.70 0.65 -3.50 2.75 -7.70 l2.75 -5.50 2.90 0 c3.75 0 3.45 -0.20 23.10 17.10 10 8.80 13.20 12.50 16.60 19.30 l2.55 5.15 -0.30 7.10 c-0.85 19.95 -7.40 46.65 -16.90 69.35 -4.25 10.05 -13.25 26.95 -16.60 31 -1.05 1.30 -4.55 3.40 -6.60 3.95 -2.75 0.75 -11.35 1.05 -18 0.55z"/>
  <path d="M342.75 449.05 c-1.65 -0.45 -9.10 -3.80 -19.75 -8.95 -9.75 -4.70 -18.45 -8.85 -24.85 -11.90 l-5.65 -2.65 0 -3.70 c0 -10.60 3.35 -16.15 15.25 -25 7.65 -5.75 10.45 -7.10 14.75 -7.10 l3.20 0 4.65 7.25 c5.05 7.90 10.75 18.65 14.40 27.25 3.15 7.35 7.75 21.35 7.75 23.50 l0 1.75 -4.10 -0.05 c-2.30 -0.05 -4.80 -0.20 -5.65 -0.40z"/>
  <path d="M427.50 441.15 c0 -3.65 0.35 -6.70 1 -9.40 0.50 -2.20 6 -19.10 12.20 -37.60 13.85 -41.25 13.95 -41.60 14 -51.15 0 -6.30 -0.10 -7.55 -1.05 -9.75 -2.15 -5.20 -4.35 -8.05 -9.65 -12.75 -8.60 -7.65 -16.80 -15.30 -24.35 -22.85 -6 -5.95 -7.15 -7.35 -7.15 -8.60 0 -0.80 1.05 -4.15 2.30 -7.40 11.35 -29 19.75 -59.40 24.65 -89.65 0.85 -5.05 3.05 -20.60 3.05 -21.30 0 -0.70 3.50 0.05 5.90 1.25 3.95 2 9.45 8.60 18.45 22.10 17.80 26.65 28.50 54.90 34.45 91.20 1.20 7.30 1.35 9.60 1.55 26.45 0.30 20.25 -0.15 28.80 -2.15 43.80 -3.05 22.65 -8.75 42.40 -17.25 59.55 -3.70 7.35 -11.70 20.20 -13.75 22 -2.05 1.80 -15.30 6.25 -21.95 7.40 -4.15 0.70 -16.10 2.05 -18.35 2.05 l-1.90 0 0 -5.35z"/>
  <path d="M361.25 443.15 c-3.50 -3.90 -4.90 -6.30 -9 -15.15 -10.05 -21.60 -14.10 -30.35 -17.05 -36.55 -2.45 -5.20 -3.20 -7.35 -3.20 -9.10 l0 -2.20 3.90 -1.80 c6.30 -2.85 9.15 -3.50 15.35 -3.45 6.05 0 10.35 1.10 16.25 4.10 l3 1.50 0 20.65 c0 20.50 -0.30 26.60 -1.80 37.10 -1.10 8.05 -1 7.75 -3.15 7.75 -1.55 0 -2.15 -0.40 -4.30 -2.85z m1.45 -27.90 c1.25 -4.95 1.40 -4.75 -3.20 -4.75 l-4.05 0 0.15 3.10 0.15 3.05 2.50 0.90 c1.40 0.50 2.75 0.90 3.05 0.90 0.30 0.05 0.95 -1.40 1.40 -3.20z m-3.25 -22.50 c0.60 -1.55 1.05 -3 1.05 -3.20 0 -0.40 -5 -2.25 -5.25 -1.95 -0.20 0.25 -1.75 6.80 -1.75 7.40 0 0.25 1.10 0.50 2.45 0.50 l2.50 0 1 -2.75z"/>
  <path d="M373.50 437.90 c0 -1.20 0.25 -6.30 0.50 -11.40 0.30 -5.10 0.85 -16.10 1.20 -24.50 0.70 -16.05 1 -17.80 3.40 -20.35 0.95 -1.05 1.55 -1.15 5.45 -1.15 8.90 0 13.20 1.50 19.85 6.85 1.90 1.55 2.10 1.95 2.10 3.90 0 1.55 -0.50 3.15 -1.70 5.35 -7.90 14.80 -9.85 18.30 -12.75 22.90 -3.10 5 -7.05 10.65 -12.05 17.40 -2.05 2.75 -2.40 3.05 -4.10 3.05 l-1.90 0.05 0 -2.10z"/>
  <path d="M373.35 373.95 c-4.05 -0.40 -12.45 -1.80 -13.95 -2.25 -0.80 -0.25 -0.90 -1.05 -0.90 -7.75 0 -6.65 0.10 -7.50 0.90 -7.80 1.95 -0.75 3.10 -1.75 2.65 -2.35 -0.90 -1.05 -3.55 -9.15 -3.55 -10.75 0 -1.35 0.45 -1.75 4.40 -4.20 7.30 -4.50 11.70 -6.70 15.40 -7.80 4.40 -1.30 12.55 -2.15 16.30 -1.75 l2.85 0.35 0.85 2.80 c4.45 15.25 5.45 30.30 2.70 40.20 l-0.55 1.85 -11.60 -0.05 c-6.40 -0.05 -13.35 -0.25 -15.50 -0.50z"/>
  <path d="M337.50 368.35 c0 -0.10 -0.65 -3.55 -1.50 -7.60 -2.10 -10.25 -2.10 -10.05 1.30 -11.60 1.65 -0.75 4.10 -1.40 5.95 -1.55 l3.20 -0.25 3 6.10 c1.70 3.35 3.05 6.70 3.05 7.55 0 1.40 -0.35 1.65 -6 4.50 -3.35 1.70 -6.65 3 -7.50 3 -0.80 0 -1.50 -0.10 -1.50 -0.15z"/>
  <path d="M249.25 346.55 c-5.25 -1.55 -10.35 -4 -14.15 -6.85 -2 -1.50 -3.95 -2.85 -4.35 -3 -0.50 -0.20 -0.75 -1 -0.75 -2.25 l0 -1.95 9.15 -0.10 c15.60 -0.20 16.40 -0.15 18.85 1.90 1.95 1.65 1.95 3 -0.05 8.70 l-1.60 4.50 -2.05 -0.05 c-1.10 0 -3.40 -0.40 -5.05 -0.90z"/>
  <path d="M328.50 339.85 c0 -0.90 0.70 -2.95 1.55 -4.50 l1.55 -2.85 10.45 0 10.45 0 0 1.65 c0 0.90 -0.70 2.95 -1.55 4.50 l-1.55 2.85 -10.45 0 -10.45 0 0 -1.65z"/>
  <path d="M243.25 326.70 c-8.20 -0.80 -12 -1.35 -13.65 -2 -10.05 -4.15 -17.20 -9.70 -22.50 -17.55 -1.95 -2.90 -8.50 -15.75 -11.05 -21.65 -5.20 -12.20 -7.90 -22.95 -8.40 -33.50 l-0.25 -6.25 1.75 -2.25 c1.60 -2 5.15 -9.35 4.75 -9.75 -0.10 -0.10 -1.30 0.40 -2.65 1.10 -4.45 2.25 -13.25 4.15 -19.55 4.15 -9.35 0 -11.65 -1.35 -18.55 -10.95 -8.90 -12.30 -12.70 -26 -10.45 -37.65 0.95 -4.90 1.95 -7.50 4.35 -11.55 4.35 -7.35 7.75 -9.50 18.25 -11.60 3.45 -0.70 5 -0.75 9.85 -0.30 3.20 0.30 6.10 0.70 6.45 0.85 0.35 0.15 1.80 1.60 3.20 3.25 2.30 2.60 2.85 3.75 4.85 9.85 1.25 3.75 2.55 8.15 2.90 9.75 0.35 1.55 0.85 2.85 1.10 2.85 0.30 0 4.35 -1.05 9 -2.35 l8.45 -2.40 -0.35 -2 c-3.20 -19.75 -3.60 -47.35 -0.95 -62.50 0.70 -4.05 0.90 -8.45 0.95 -23 0.10 -16.40 0.20 -18.30 1.10 -21.25 0.55 -1.80 1.20 -3.70 1.45 -4.25 0.35 -0.85 0.10 -0.75 -1.25 0.40 -2.30 1.90 -4.95 3.20 -8.40 4.10 -3.50 0.90 -14.75 2.55 -20.75 3.05 l-4.30 0.35 -1.30 -2.55 c-0.85 -1.70 -1.30 -3.40 -1.30 -5 0 -2.40 0 -2.40 6.50 -9.20 6.35 -6.65 10.45 -10.05 19.75 -16.25 11.35 -7.55 21.20 -11.30 31.50 -12 l4.75 -0.30 0 1.80 c0 2.45 -2.50 6.45 -5.25 8.35 -1.20 0.80 -3.85 2.25 -5.85 3.20 l-3.75 1.65 -0.30 3.35 c-0.20 1.85 -0.75 4.35 -1.35 5.65 -0.55 1.25 -1 2.35 -1 2.50 0 0.10 2.30 -1.90 5.15 -4.45 19.05 -17.35 38.50 -28.70 57.60 -33.65 12.40 -3.20 14.10 -3.45 25.75 -3.45 5.90 0 13 0.25 15.75 0.60 9 1.15 19.20 4 30.25 8.45 23.55 9.55 33.85 17.30 47.15 35.65 5.35 7.40 6.35 9.05 6.35 10.60 0 1.80 0 1.85 -2.35 2.15 -3.35 0.40 -9.10 1.70 -10.95 2.50 -1.05 0.45 -2.45 1.95 -4.35 4.80 -1.55 2.30 -2.70 4.25 -2.65 4.35 0.10 0.05 1.70 -0.10 3.60 -0.40 11.60 -1.65 21.90 1.65 30.20 9.70 3.25 3.15 9.30 11.75 11.55 16.50 3.30 6.90 3.70 9.55 3.65 25.55 0 9.35 -0.30 16.90 -0.85 22.75 -4.60 47.10 -4.45 45.90 -7.45 57.50 -8.80 34.30 -25.50 63.55 -46.15 80.80 -8.10 6.80 -25.95 14.65 -39.15 17.20 -6.95 1.35 -20.90 2.15 -26.85 1.45 -10.85 -1.15 -12.45 -1.65 -21.60 -6.20 -19.45 -9.75 -34.05 -21.80 -44.30 -36.50 -3.35 -4.85 -6.95 -11.80 -8.50 -16.50 -0.75 -2.25 -1.50 -3.55 -2 -3.65 -1.20 -0.25 -1.10 0.35 1.30 5.80 6 13.60 7.40 15.55 32.95 44.80 4.45 5.05 4.85 5.75 4.90 7.60 0 1.90 -0.15 2.10 -1.85 2.85 -8.65 3.75 -14.40 4.95 -24.65 5.10 -4.55 0.10 -9.15 0.05 -10.25 -0.05z m114.80 -39.25 c7 -0.70 11.95 -2.05 14.95 -3.95 2.10 -1.35 2.90 -2.30 4.05 -4.70 l1.45 -3.05 -1.85 -0.30 c-1.05 -0.20 -4.95 -0.50 -8.65 -0.65 -29.60 -1.50 -33.90 -1.90 -41.50 -4.10 l-4.25 -1.20 -7.40 -7.50 -7.45 -7.50 -2.95 0 -2.95 0 0 3.10 c0 3.05 0.05 3.15 3.65 7.85 4.30 5.70 10.80 12.25 15.90 16.10 7.75 5.90 19.45 7.75 37 5.90z m6.35 -26.80 l6.10 -0.30 0 -5.95 c0 -3.25 -0.05 -5.90 -0.15 -5.90 -0.10 0 -13.50 -1.90 -29.85 -4.25 -16.30 -2.35 -29.75 -4.15 -29.85 -4.05 -0.60 0.60 1.05 4.40 2.60 5.95 4.80 4.90 17.70 11.40 26.10 13.10 7.30 1.45 15.55 1.95 25.05 1.40z m25.10 -1.80 c9.45 -4.15 18.70 -11.45 23.60 -18.75 l1.80 -2.70 -0.75 -2.30 c-0.45 -1.30 -0.95 -2.50 -1.10 -2.70 -0.20 -0.25 -2.25 0.40 -4.55 1.35 -3.90 1.70 -24.55 9.25 -29.50 10.85 l-2.25 0.75 -0.15 7.55 -0.15 7.60 4.65 0 c4.15 0 5.05 -0.20 8.40 -1.65z m-29.25 -20.15 c14.45 -1.85 29.75 -7.55 37.70 -13.95 6.65 -5.35 9.85 -9.60 11.65 -15.45 0.90 -3.05 0.95 -3.75 0.45 -6.90 -0.90 -5.55 -3.65 -9.95 -10.30 -16.40 -3.30 -3.20 -11.60 -12.40 -15.55 -17.25 -2.60 -3.15 -9.40 -13.40 -11.95 -18 -2.10 -3.70 -5.75 -11.25 -7 -14.35 -0.65 -1.65 -0.95 -1.90 -2.30 -1.90 l-1.60 0 0.30 5.90 c0.40 7.50 2.05 14.10 5.25 20.80 3.10 6.50 6.40 11.45 14.35 21.50 9.35 11.85 12.25 16.75 14.50 24.65 0.70 2.35 1.40 5.80 1.55 7.65 l0.35 3.35 -4.85 0.30 c-4.50 0.25 -5.20 0.45 -10.70 3 -6.90 3.25 -12.50 5.05 -19.30 6.10 -2.70 0.45 -6.75 1.25 -9 1.75 -3.65 0.90 -7.30 1.30 -7.30 0.80 0 -0.20 -2.40 -12.25 -2.75 -13.65 -0.20 -0.90 -0.65 -1.15 -1.75 -1.15 l-1.50 0 -0.10 3.65 c-0.35 11 0.30 14.30 3.60 17.80 l2.40 2.55 3.95 0 c2.15 0 6.65 -0.35 9.90 -0.80z m-192.30 -34.30 c1.60 -13.40 1.30 -12.40 3.65 -12.40 2.40 0 5.35 1.45 7.05 3.45 0.65 0.80 2.30 3.65 3.55 6.25 2.15 4.40 2.50 4.80 3.80 4.80 1.40 0 1.40 -0.05 1.75 -3.90 0.45 -5.05 -0.35 -9.40 -2.55 -13.95 -2.10 -4.25 -2.40 -4.55 -7 -6.85 -4.45 -2.20 -9.15 -3.05 -14.10 -2.45 l-3.65 0.40 -2 4.75 c-1.05 2.60 -1.95 4.90 -1.95 5.15 0 0.20 0.80 0 1.80 -0.40 1 -0.40 2.60 -0.75 3.50 -0.75 l1.70 0 0 12 0 11.95 1.40 0.75 c0.75 0.40 1.45 0.75 1.60 0.80 0.15 0 0.80 -4.35 1.45 -9.60z m150.65 -29.20 c5.55 -1.45 7.85 -3.10 11.25 -8.25 1.10 -1.70 1.25 -2.30 1 -4.85 -0.45 -5.35 -3.70 -10.90 -14.75 -25.35 l-5.75 -7.50 0.30 5.25 c0.40 6.90 2.10 13 5.85 20.80 1.65 3.40 3 6.90 3 7.70 0 1.40 -0.10 1.50 -1.85 1.50 -1.05 0 -6.75 -0.55 -12.65 -1.25 -5.90 -0.70 -11.15 -1.25 -11.60 -1.25 -0.80 0 -0.90 0.55 -0.90 4.20 l0 4.20 1.85 1.10 c2 1.20 8.20 3.35 11.35 4 3.50 0.70 9.55 0.55 12.90 -0.30z m99.75 -8.40 c4.75 -1.25 6.20 -2.30 7.30 -5.05 0.50 -1.35 1.15 -4.10 1.40 -6.05 0.45 -3.55 0.45 -3.60 -2.05 -9.75 -1.35 -3.35 -3.45 -7.70 -4.55 -9.60 -1.90 -3.25 -6.70 -8.80 -7.10 -8.30 -0.15 0.10 0.30 4.95 0.95 10.70 0.65 5.80 1.15 11.25 1.10 12.15 l-0.15 1.65 -8.55 2.85 -8.55 2.85 0.70 2.75 c0.40 1.50 0.95 3.60 1.20 4.65 l0.50 1.85 7.60 0 c4.90 0 8.55 -0.25 10.20 -0.70z m-159.20 -48 c5.20 -6.90 11.40 -12.25 17.20 -14.85 3.50 -1.60 12 -3.95 18.05 -4.95 3 -0.50 3.60 -0.75 3.40 -1.40 -0.15 -0.50 -0.60 -2.75 -1.05 -5.10 -0.45 -2.35 -0.95 -4.65 -1.10 -5.20 -0.25 -0.85 -0.70 -0.90 -7.35 -0.65 -5.75 0.20 -7.80 0.50 -11.15 1.55 -5 1.60 -12.10 6.15 -14.80 9.50 -4.50 5.45 -7.40 12.15 -8.05 18.55 -0.20 1.65 -0.45 3.75 -0.60 4.65 -0.25 1.50 -0.15 1.60 1.20 1.60 1.25 0 1.90 -0.60 4.25 -3.70z"/>
  <path d="M197.25 174.90 c-2.75 -3.95 -5.75 -7.95 -6.60 -8.95 -1.85 -2.05 -7.65 -6.10 -10.50 -7.25 -2.80 -1.20 -8.60 -1.40 -18.95 -0.70 -5.10 0.35 -9.35 0.50 -9.45 0.40 -0.60 -0.60 -0.80 -20.75 -0.30 -26.65 1 -11.70 1.70 -14.30 5.15 -19.45 7.60 -11.35 19.10 -19.70 32.40 -23.55 3.95 -1.15 5.45 -1.30 9 -1.15 2.70 0.15 4.85 0.55 5.90 1.05 l1.60 0.90 0 46.20 0 46.25 -1.65 0 c-1.55 0 -1.95 -0.40 -6.60 -7.10z"/>
 </g>
 <g fill="#93bd22">
  <path d="M283 649.65 c-10.90 -0.35 -16.45 -1.15 -21.90 -3.10 -9.15 -3.30 -9.75 -3.70 -12.80 -8.20 -1.20 -1.85 -4.95 -12.95 -7.30 -21.60 -0.60 -2.20 -2.05 -6.90 -3.25 -10.50 -5.45 -16.30 -6.70 -21.65 -6.75 -28.45 l0 -3.95 -5.60 0.40 c-7.30 0.50 -11.95 0.35 -18.40 -0.50 -21.70 -2.80 -54.65 -17.10 -68.55 -29.70 l-3.30 -3 -0.30 -13.40 c-0.35 -16.85 -1.25 -22.45 -4.90 -29.70 -1.80 -3.65 -6.60 -9.65 -9.75 -12.20 -14.05 -11.40 -27.15 -27.10 -37.60 -45 -14.90 -25.70 -25.25 -57.15 -28.65 -87.50 -0.90 -7.95 -0.95 -40.30 -0.05 -50.50 3.35 -38.20 10.30 -65.15 24.30 -93.90 11.15 -22.85 25.05 -42.70 44.50 -63.45 8.20 -8.80 9.05 -9.40 13.30 -9.40 l1.75 0 0 -9.60 c0.05 -9.05 0.10 -9.95 1.40 -14.15 1.55 -5.10 6.50 -15.35 9.10 -18.85 1.50 -2.05 2.70 -2.85 7.75 -5.40 3.30 -1.65 6 -3.10 6 -3.20 0 -0.05 0.65 -3.45 1.50 -7.50 1.30 -6.60 1.70 -7.70 3.35 -10 6.30 -8.55 16.95 -18.35 28.20 -25.85 19 -12.75 41.80 -22.25 70.40 -29.45 16.85 -4.20 24.45 -5.15 41.30 -5.15 14.30 0.05 17.95 0.40 30.50 2.90 14.85 2.95 25.05 6.60 37 13.10 15.30 8.40 28.05 18.90 42.10 34.85 6.25 7.05 9.15 11.40 13.10 19.50 4.55 9.35 6.80 16.80 10.05 33.55 4.15 21.35 5.80 27.35 9.40 34.50 2.65 5.40 7.35 11.90 11.75 16.40 9.25 9.50 12.35 12.95 16.65 18.60 18.95 25 32 58.20 37.15 94.50 2 14.15 2.30 19.05 2.30 39.50 -0.05 46.65 -5.60 74 -21.65 106 -5.80 11.65 -6.40 14.10 -4.70 19.65 1.05 3.35 2.30 5.30 9.05 14.10 4.45 5.80 4.90 6.65 6.65 11.95 5.80 17.35 6.55 37.60 2.05 55.70 -1.25 5.10 -1.55 5.80 -4.20 9.15 -4.05 5.05 -9.80 9.50 -15.85 12.20 -3.35 1.50 -12 2.15 -27 1.90 -13.20 -0.15 -13.40 -0.20 -16.10 -1.50 -1.50 -0.70 -3.70 -2.20 -4.90 -3.35 -2.15 -2.10 -2.20 -2.10 -7.35 -2.20 -3.40 0 -14.85 1.25 -17 1.90 -3.50 1.05 -5.50 2.65 -8.30 6.65 l-2.50 3.60 -2.95 0 c-2.95 0 -2.95 0 -2.75 1.40 1.70 9.45 5.40 40.40 5.45 45.10 0.05 6.35 -0.95 10.80 -2.85 13 -3.20 3.70 -9.20 6.70 -17.60 8.80 l-3.20 0.80 -0.30 3.35 c-0.45 5 -2.25 16.15 -2.80 17.15 -0.75 1.40 -10 5.80 -15.10 7.15 -9.50 2.55 -12.50 2.75 -45.40 2.90 -16.90 0.05 -32.40 0.05 -34.45 0z m53.55 -16.40 c3.90 -0.45 8.80 -1.15 10.90 -1.55 4.15 -0.75 15.60 -3.05 17.45 -3.45 1.15 -0.30 1.15 -0.40 0.85 -4.90 -0.15 -2.55 -1.65 -29.10 -3.25 -59.10 -4.65 -85.15 -4.50 -82.95 -6.15 -86 -0.35 -0.65 -1.65 -2.30 -2.95 -3.65 -2.25 -2.40 -2.55 -2.55 -5.75 -2.95 -1.90 -0.20 -15.90 -0.35 -31.15 -0.30 -36.05 0.05 -47.55 0.85 -75.45 5.15 -5.35 0.80 -9.75 1.55 -9.85 1.65 -0.30 0.30 2.25 24.60 3.85 36.35 5.25 39.05 14.85 82.60 22.60 102.50 2.90 7.40 3.25 8 5.75 9.10 5.55 2.40 9.70 3.50 19.25 5.10 18.15 3.05 38.55 3.80 53.90 2.05z m50.90 -34.10 c1.85 -6.95 2.25 -11.40 1.55 -17.45 -0.70 -6.50 -2.80 -18.10 -4.05 -22.35 -1 -3.30 -1.05 -3.40 -3.95 -4.85 l-2.95 -1.50 -4.30 1.45 c-2.40 0.80 -4.40 1.55 -4.50 1.65 -0.15 0.15 0.45 10.20 1.25 22.45 0.85 12.20 1.50 22.25 1.50 22.35 0 0.05 3.35 0.10 7.50 0.10 l7.45 0 0.50 -1.85z m-156.45 -40.65 c0 -1.90 -1.70 -23 -2.50 -31.25 -1.50 -15.10 -4.95 -41.25 -6.30 -47.85 l-0.30 -1.40 -14.95 0 -15 0 0.15 -3.05 0.15 -3.05 5.65 -1.45 c3.15 -0.75 5.75 -1.45 5.85 -1.55 0.10 -0.10 -0.50 -3.40 -1.30 -7.40 -0.75 -3.95 -1.35 -7.25 -1.30 -7.30 0.05 -0.05 3.60 1.10 7.85 2.55 4.25 1.45 8.25 2.75 8.85 2.95 0.95 0.30 1.20 0.05 2.05 -1.90 2.25 -5 2.35 -6.65 2.15 -32.90 l-0.15 -24.90 3.05 0 3.05 0 0 31.55 0 31.55 18.65 -0.25 c10.20 -0.15 19.95 -0.40 21.60 -0.55 1.65 -0.15 6.15 -0.60 10 -1 3.85 -0.40 9.25 -0.90 12 -1.05 4.35 -0.25 26 -2.25 33.65 -3.05 1.40 -0.15 2.60 -0.50 2.60 -0.75 0 -0.25 -0.20 -0.45 -0.45 -0.45 -0.30 0 -2.60 -1.50 -5.15 -3.30 -2.90 -2.05 -9.60 -5.75 -17.95 -9.90 -7.30 -3.65 -14.35 -7.50 -15.65 -8.55 -5 -4.10 -6.30 -10.50 -3.65 -18.25 1.40 -4.20 1.50 -4.10 -2.55 -5.25 -1.95 -0.60 -3.35 -1.50 -5.50 -3.65 -3.45 -3.35 -4.45 -5.70 -6.60 -15.15 -4.55 -20 -8.10 -27.50 -16.85 -35.40 -2.90 -2.65 -5.30 -4.05 -16.05 -9.40 -18.65 -9.25 -24.85 -13.60 -35.75 -25.25 -6.45 -6.90 -5.85 -6.70 -14.15 -4.40 -12.40 3.50 -29.60 14 -50.75 31.05 -16.70 13.50 -15.40 12.30 -15.10 14.35 1.30 9.15 4 20.15 8.15 33.60 7.25 23.45 11.35 41.90 15.20 69 2.15 14.75 2.45 20.10 2.15 36.25 -0.30 16.65 -0.05 19.05 2.30 23.80 1.35 2.70 2.20 3.60 5.60 6.05 6.95 5.05 20.50 12.60 27.50 15.40 14.40 5.70 28.30 9.40 42.75 11.25 6.30 0.80 7 0.85 7 0.25z m146.75 -18.75 c8.80 -1.20 11.85 -1.65 12.05 -1.90 0.25 -0.20 -1.05 -27.95 -1.55 -34.10 -0.75 -8.95 -3.05 -19.80 -5.90 -28 l-1.20 -3.50 -5.95 -0.15 c-5.95 -0.15 -6 -0.15 -7.30 1.25 -1.95 2.05 -2.40 5.85 -2.40 21.25 0 17.50 0.90 30.10 3 42.65 0.25 1.65 0.50 3.15 0.50 3.35 0 0.20 0.75 0.25 1.65 0.10 0.85 -0.10 4.10 -0.55 7.10 -0.95z m98.75 -8.05 c3.05 -0.70 7.10 -2.75 10.85 -5.60 1.75 -1.30 7.10 -8.85 8.30 -11.70 0.40 -1 1.15 -3.50 1.60 -5.55 0.75 -3.45 0.75 -4.10 0.05 -8.40 -2.65 -15.45 -8.45 -36.60 -11.85 -42.95 -0.85 -1.60 -2.25 -3.55 -3.10 -4.40 -2.30 -2.20 -7.30 -5.10 -8.90 -5.10 -2.35 0 -10.10 1.50 -13.45 2.60 -5.85 1.90 -32.15 13.95 -33.70 15.40 -1.10 1.05 -2.30 8.45 -2.30 14.30 0 5.20 2.60 27.55 4.75 40.80 l0.30 1.80 17.10 0.25 c15.90 0.20 17.45 0.30 22.35 1.45 2.90 0.65 5 1.35 4.75 1.50 -0.30 0.15 -2.50 0.65 -5 1.15 -9.45 1.75 -9.25 1.65 -9.25 3.25 0 1.40 0.10 1.45 3.40 1.75 1.85 0.15 3.70 0.40 4.10 0.50 1.25 0.25 6.55 -0.30 10 -1.05z m-62.80 -4.50 c3.30 -0.65 6.05 -1.30 6.15 -1.40 0.15 -0.15 -0.35 -9 -1.35 -23.80 -0.75 -11.30 -2.50 -19.30 -5.75 -26.30 l-1.65 -3.60 -3.40 -1.05 c-1.90 -0.60 -3.85 -1.35 -4.35 -1.60 -1.25 -0.70 -1.30 -0.60 -2.15 3.10 -1.10 4.80 -1.55 12.60 -1.15 19.50 0.35 5.25 2.65 22.45 4.45 33.20 0.25 1.65 0.50 3.20 0.50 3.45 0 0.20 0.60 0.25 1.35 0.05 0.75 -0.15 4.05 -0.85 7.35 -1.55z m-283.80 -58.50 c0.95 -3.40 0.90 -12.55 -0.10 -17.20 -1.50 -6.70 -7.70 -29.05 -10.50 -37.50 -1.45 -4.55 -4.85 -14.05 -7.50 -21.10 -6.95 -18.55 -8.50 -26 -7.55 -36.20 l0.35 -3.95 3.15 -3.10 c3.95 -3.85 11.55 -8.90 24.50 -16.15 5.50 -3.10 11.45 -6.55 13.25 -7.75 1.80 -1.15 4.05 -2.55 5 -3 4.25 -2.15 35.95 -22.65 37.85 -24.45 0.45 -0.40 -0.10 -3 -2.40 -11.05 -3.40 -12.15 -6.65 -22.15 -8.10 -25 -1.60 -3.30 -4.60 -7 -7.25 -8.90 -1.35 -1 -5.05 -2.80 -8.40 -4 -7.50 -2.75 -9.35 -3.75 -12.35 -6.35 -3.35 -2.95 -6.40 -7.45 -9.60 -14.05 -7.30 -15.20 -8.55 -39.65 -3.45 -66.20 0.40 -2.20 0.90 -4.40 1 -4.85 0.20 -0.70 -0.05 -0.90 -1.20 -0.90 -1.25 0 -2.15 0.75 -5.45 4.40 -10.50 11.60 -21.85 27.10 -31 42.35 -3.40 5.65 -11.85 22.80 -14.65 29.75 -8.50 20.95 -14.10 44.85 -16.25 69.35 -0.85 9.75 -1 31.65 -0.25 39.20 3.40 33.65 15.85 68.20 35.25 97.70 3.70 5.60 13.90 19.40 17.80 24.10 1.20 1.45 3.10 3.75 4.20 5.10 1.10 1.40 2.20 2.45 2.50 2.35 0.25 -0.05 0.75 -1.25 1.15 -2.60z m273.85 -14.75 c2.05 -0.55 5.50 -2.60 6.60 -3.95 0.35 -0.40 2.10 -3.10 3.85 -6 15.70 -25.60 27.90 -63.70 29.60 -92.60 l0.35 -5.85 -2.55 -5.15 c-4.05 -8.10 -6.25 -10.45 -28.10 -29.40 -5.50 -4.80 -8.65 -7 -10.10 -7 -1.25 0 -1.65 0.50 -4.15 5.50 -1.50 3 -2.75 5.80 -2.75 6.20 0 0.40 1.25 1.95 2.80 3.40 3.95 3.75 6.85 9.15 8.35 15.65 0.35 1.70 0.55 10.10 0.60 25.50 0 21.20 0.05 23.20 0.90 25.25 1.35 3.20 1.30 9.45 -0.05 12.75 -1.05 2.55 -5.80 10.80 -14.65 25.25 -13.75 22.55 -17.40 29.25 -16.40 30.25 0.15 0.10 3.80 0.40 8.20 0.65 8.50 0.55 14.25 0.40 17.50 -0.45z m-52.75 -6.20 c0 -0.90 -5.85 -17.60 -7.75 -22 -3.70 -8.65 -9.35 -19.35 -14.40 -27.25 -4.60 -7.15 -4.65 -7.25 -6.40 -7.20 -2.80 0.10 -6.70 2.15 -13.20 7.05 -11.30 8.40 -15.25 14.50 -15.25 23.50 l0 2.20 5.65 2.65 c6.40 3.05 15.10 7.20 24.85 11.90 10.65 5.15 18.10 8.50 19.75 8.95 1.70 0.40 6.75 0.60 6.75 0.20z m85.50 -3.50 c8.80 -1 11.80 -1.55 17.25 -3.10 5.70 -1.60 13.20 -4.50 14.45 -5.60 2.05 -1.80 10.05 -14.65 13.75 -22 8.50 -17.15 14.20 -36.90 17.25 -59.55 2 -14.85 2.45 -23.70 2.15 -42.30 -0.20 -15.20 -0.40 -17.80 -1.55 -24.95 -5.95 -36.20 -16.65 -64.55 -34.45 -91.20 -9 -13.50 -14.50 -20.10 -18.45 -22.10 -1.60 -0.80 -2.90 -1.40 -2.90 -1.25 0 0.70 -2.20 16.25 -3.05 21.30 -5.10 31.30 -13.90 62.85 -25.90 92.90 l-1.05 2.65 7.15 7.10 c7.55 7.55 15.75 15.20 24.35 22.85 5.30 4.70 7.45 7.55 9.65 12.75 1 2.25 1.10 3.35 1.05 11.25 -0.05 7.80 -0.20 9.30 -1.40 13.90 -0.75 2.85 -6.40 20.30 -12.60 38.75 -6.20 18.50 -11.70 35.40 -12.20 37.60 -0.95 3.90 -1.35 11.75 -0.60 11.75 0.20 0 3.40 -0.35 7.10 -0.75z m-70.35 -0.85 c0.50 -2.10 1.85 -12.05 2.35 -17.65 0.25 -3 0.50 -14.10 0.50 -24.60 l0 -19.15 -3 -1.50 c-1.65 -0.80 -4.75 -2.05 -6.85 -2.75 -4.70 -1.55 -10.90 -1.75 -15.15 -0.45 -4.40 1.30 -10.50 4.25 -10.50 5.05 0 0.45 1.45 3.85 3.20 7.60 2.95 6.20 7 14.95 17.05 36.55 1.95 4.25 4.25 8.80 5.05 10.05 1.50 2.40 6.20 7.90 6.75 7.95 0.20 0 0.45 -0.50 0.60 -1.10z m11.85 -8 c5 -6.75 8.95 -12.40 12.05 -17.40 2.90 -4.60 4.85 -8.10 12.75 -22.90 0.95 -1.70 1.70 -3.45 1.70 -3.85 0 -0.75 -2.90 -3.25 -7.05 -5.95 -3.05 -2 -8.30 -3.30 -13.40 -3.30 -3.25 0 -4.40 0.80 -5.80 4.20 -0.90 2.10 -0.95 2.95 -2 26.55 -0.40 9.10 -0.90 18.60 -1.05 21.15 -0.20 2.50 -0.10 4.60 0.10 4.55 0.25 0 1.45 -1.35 2.70 -3.05z m-91.75 -37.65 c10.35 -3.20 17.80 -6.70 28.30 -13.25 3.90 -2.45 14.60 -10.50 15.15 -11.45 0.55 -0.85 -2.35 -7.05 -4.25 -9.20 -1.05 -1.25 -3.05 -2.95 -4.45 -3.85 -1.35 -0.90 -2.50 -1.80 -2.50 -2 0 -0.20 1.80 -1.55 4 -3 2.20 -1.45 4 -2.75 4 -2.95 0 -0.60 -27.80 -13.70 -33 -15.55 -6.80 -2.45 -11.65 -3.25 -16.65 -2.80 -3.90 0.40 -3.90 0.40 -5.20 2.45 -4.90 7.70 -6.65 17.75 -5.15 29.65 0.75 6.15 5 17.90 11.25 31.35 0.75 1.60 1.60 2.80 1.95 2.70 0.30 -0.10 3.25 -1.05 6.55 -2.10z m113.25 -26.65 c1.70 -6.50 2 -14.60 0.75 -21.90 -0.90 -5.20 -3.70 -16.80 -4.25 -17.70 -0.40 -0.65 -6.95 -0.85 -10.65 -0.25 -4.10 0.65 -9.15 2.35 -12.85 4.40 -6.90 3.75 -12.55 7.45 -12.30 8 0.10 0.35 0.80 2.30 1.55 4.45 0.70 2.10 1.85 4.40 2.55 5.15 0.65 0.70 1.20 1.45 1.20 1.65 0 0.20 -1.25 1 -2.75 1.80 l-2.75 1.40 0 5.90 c0 6.80 -0.65 6.05 6.35 7.25 7.50 1.30 11.85 1.60 22.50 1.70 l10.10 0.05 0.55 -1.90z m-51.55 -16.15 l-3 -6.05 -1.85 0.35 c-1 0.15 -3.05 0.85 -4.50 1.50 -2.25 1.05 -2.60 1.35 -2.35 2.35 0.35 1.45 2.75 13.45 2.75 13.70 0 0.10 2.70 -1.15 6 -2.80 l6 -3 -3.05 -6.05z m-91.55 -13.30 c1.45 -4.15 1.50 -4.45 0.70 -5.35 -1.90 -2.10 -3.75 -2.40 -14.80 -2.35 -9.50 0.10 -12.15 0.30 -10.50 0.90 0.30 0.10 2.35 1.50 4.55 3.15 2.20 1.65 5.65 3.70 7.70 4.55 3.45 1.50 8.95 3.35 10.25 3.40 0.30 0.05 1.25 -1.90 2.10 -4.30z m92.95 -4.25 c0.75 -1.45 1.45 -2.80 1.55 -3 0.10 -0.25 -3.90 -0.40 -8.85 -0.40 l-9.05 0 -1.35 2.65 c-0.75 1.40 -1.45 2.75 -1.55 3 -0.10 0.20 3.90 0.35 8.85 0.35 l9.05 0 1.35 -2.60z m-84.60 -13.35 c6.90 -1.60 13.90 -4.30 13.65 -5.35 -0.15 -0.60 -4.50 -5.70 -18.60 -21.90 -8.30 -9.55 -11.30 -13.55 -14.70 -19.80 -1.90 -3.50 -8.10 -17.10 -8.10 -17.85 0 -0.10 1.40 -0.15 3.10 -0.05 l3.05 0.15 1.20 3.50 c1.55 4.70 5.15 11.65 8.50 16.50 10.25 14.70 24.80 26.70 44.30 36.50 8.15 4.10 8.90 4.35 14.60 5.30 9.75 1.65 21.60 1.35 32.45 -0.85 11.95 -2.40 29.90 -10.45 37.55 -16.90 14.55 -12.15 27.10 -30.05 36.60 -52.25 4.15 -9.70 9.40 -26.60 11.85 -38.05 0.65 -3.30 1.90 -14.65 5.15 -48 0.50 -5.50 0.85 -13.40 0.85 -21.25 0.05 -14.35 -0.40 -17.35 -3.65 -24.05 -2.25 -4.75 -8.30 -13.35 -11.55 -16.50 -5.05 -4.90 -11.10 -8.10 -17.75 -9.50 -5.10 -1.05 -11.95 -0.40 -15.75 1.55 -1.35 0.70 -2.70 1.25 -2.95 1.25 -1.15 0 7.25 -13.60 8.90 -14.50 1.40 -0.70 8 -2.35 11 -2.70 1.50 -0.20 2.85 -0.45 2.95 -0.55 0.25 -0.20 -1.95 -3.35 -8.80 -12.75 -10.85 -14.75 -22.60 -23.25 -44.60 -32.15 -16.95 -6.80 -28 -9.05 -44.50 -9.05 -10 0 -12.25 0.35 -24.25 3.45 -20.35 5.30 -41.80 18.25 -61.35 37.20 -5.25 5.10 -6.55 6.65 -8.05 9.70 -3.30 6.70 -3.45 8.05 -3.60 27.85 -0.05 14.10 -0.25 18.75 -0.90 22.50 -2.60 14.55 -2.15 41.55 0.95 59.70 0.40 2.45 0.55 4.60 0.35 4.80 -0.55 0.45 -20.30 6.05 -20.55 5.80 -0.10 -0.10 -0.60 -2 -1.15 -4.15 -0.55 -2.15 -1.90 -6.65 -3.05 -10.05 -1.75 -5.25 -2.45 -6.60 -4.60 -9.10 -1.40 -1.60 -2.90 -3.05 -3.35 -3.20 -0.45 -0.20 -2.90 -0.50 -5.45 -0.75 -8.35 -0.75 -18.50 2.25 -22.40 6.65 -2 2.30 -5.35 7.95 -6.35 10.80 -1.15 3.10 -2.25 9.10 -2.25 12 0 4.20 2.75 13.80 5.50 19.25 2.55 5.10 7.20 11.95 10.65 15.75 2.75 3 6.80 4.50 12.05 4.50 5.80 0 14.20 -2.20 20.70 -5.45 2.80 -1.40 5.20 -2.55 5.30 -2.55 0.65 0 -5.45 13.50 -7 15.45 l-1.80 2.30 0.35 4.95 c0.60 9.60 3.45 20.40 8.30 31.80 2.55 5.90 9.10 18.75 11.05 21.65 5.30 7.85 12.45 13.40 22.50 17.55 1.65 0.65 5.25 1.15 13.65 2 4.95 0.50 15.60 -0.15 20 -1.15z m-60.75 -188.30 l0 -44.70 -1.60 -0.85 c-2.85 -1.45 -6.65 -1.45 -11.90 0.05 -13.30 3.85 -24.80 12.20 -32.40 23.55 -2.60 3.95 -3.10 5.05 -3.80 8.75 -1.35 6.95 -1.95 17.95 -1.55 26.55 l0.35 7.90 4.35 -0.40 c2.35 -0.20 8.35 -0.35 13.30 -0.35 10.15 0 10.30 0.05 16.30 4.05 4.30 2.90 5.45 4.20 11.70 13.10 2.70 3.90 5 7.10 5.10 7.10 0.10 0 0.15 -20.15 0.15 -44.75z m-11.75 -55.30 c12.95 -1.75 15.85 -3 21.75 -9.35 4.65 -4.95 7.35 -10.40 7.85 -15.90 l0.30 -3.35 3.75 -1.65 c5.25 -2.45 7.80 -4.30 9.55 -7.20 0.85 -1.40 1.55 -2.65 1.55 -2.80 0 -0.50 -6.50 0.30 -10.50 1.30 -9.85 2.50 -17.85 6.80 -31.60 16.85 -4.90 3.60 -17.40 16.35 -17.40 17.75 0 0.50 0.55 2.05 1.25 3.45 l1.30 2.50 2.60 -0.30 c1.45 -0.20 5.75 -0.75 9.60 -1.30z"/>
  <path d="M441 502.10 l0 -2.95 13.15 -0.35 c13.05 -0.30 17.55 0 20 1.30 1.30 0.70 5.35 4.20 5.35 4.65 0 0.15 -8.65 0.25 -19.25 0.25 l-19.25 0 0 -2.90z"/>
  <path d="M441.10 486.95 l0.15 -3.20 3.10 -1.10 c4.65 -1.65 10.50 -2.30 17.55 -1.90 l6.15 0.35 2.75 2.80 c1.50 1.50 2.55 2.95 2.30 3.20 -0.20 0.20 -2.60 0.85 -5.35 1.45 -3.90 0.80 -7.45 1.10 -15.90 1.30 l-10.90 0.30 0.15 -3.20z"/>
  <path d="M436.15 479.45 c-2 -0.60 -3.65 -1.30 -3.65 -1.65 0 -0.80 10.55 -8.55 14.05 -10.30 4.40 -2.25 10.60 -3.85 16.35 -4.25 l5.15 -0.40 -0.15 3.15 -0.15 3.10 -4.25 2.40 c-2.35 1.30 -6.15 3.45 -8.50 4.75 -5.45 3.05 -7.40 3.75 -11.75 4 -2.60 0.20 -4.40 -0.05 -7.10 -0.80z"/>
  <path d="M358.25 419.55 l-4 -1.40 -0.15 -4.55 -0.15 -4.60 6.05 0 c6 0 6 0 5.75 1.15 -0.15 0.60 -0.80 3.20 -1.40 5.80 -0.60 2.60 -1.35 4.80 -1.60 4.85 -0.30 0.05 -2.30 -0.50 -4.50 -1.25z"/>
  <path d="M351 396.90 c0.40 -2.55 3 -11.65 3.30 -11.65 0.75 0 7.95 2.35 8.35 2.70 0.30 0.30 -1 4.75 -2.40 8.20 -0.30 0.70 -1.05 0.85 -4.80 0.85 -2.45 0 -4.45 -0.05 -4.45 -0.10z"/>
  <path d="M338.50 289.45 c-8.90 -1.05 -14.25 -2.85 -18.95 -6.40 -5.10 -3.85 -11.60 -10.40 -15.90 -16.10 l-3.65 -4.75 0 -4.60 0 -4.60 4.45 0 4.45 0 7.45 7.50 7.40 7.50 4.25 1.20 c6.65 1.90 9.35 2.25 23.25 3.05 18.05 1 29.40 1.75 29.60 1.90 0.20 0.20 -1.70 5.10 -2.85 7.35 -1.95 3.85 -8 6.35 -18.15 7.45 -6.95 0.75 -17.15 1 -21.35 0.50z"/>
  <path d="M346.50 261.95 c-7.30 -0.65 -11.95 -1.75 -18.50 -4.40 -6.20 -2.50 -13.30 -6.85 -16.25 -9.90 -1.90 -1.95 -2.75 -4.25 -2.75 -7.55 l0 -2.15 1.65 0.30 c1.45 0.25 60.85 8.75 61.20 8.75 0.10 0 0.15 3.35 0.15 7.40 l0 7.45 -6.10 0.30 c-7.35 0.40 -13.05 0.35 -19.40 -0.20z"/>
  <path d="M375.10 252.90 l0.15 -9.05 2.25 -0.75 c9.55 -3.10 30 -10.85 34 -12.85 1.35 -0.70 2.55 -1.05 2.65 -0.85 0.10 0.20 0.80 2.20 1.55 4.45 l1.35 4.10 -2.10 3.15 c-5.30 7.85 -14.25 15 -23.95 19.25 -3.55 1.55 -4.05 1.65 -9.90 1.65 l-6.10 0 0.10 -9.10z"/>
  <path d="M342.65 238.65 c-1.25 -1.35 -2.50 -2.95 -2.75 -3.65 -0.90 -2.30 -1.40 -9.65 -1.05 -15.35 l0.30 -5.65 2.90 0 c2.65 0 2.95 0.10 3.20 1.15 0.15 0.60 0.80 3.90 1.50 7.30 0.70 3.45 1.30 6.30 1.40 6.35 0.10 0.10 1.95 -0.25 4.20 -0.80 2.20 -0.50 6.25 -1.30 8.95 -1.75 6.75 -1.05 12.40 -2.85 19.30 -6.05 6.15 -2.90 6.70 -3.05 12.05 -3.15 l3.40 -0.05 -0.30 -1.85 c-1.80 -10.70 -5.30 -17.40 -16.25 -31.25 -14.55 -18.45 -18.75 -27.90 -19.35 -43.50 l-0.30 -7.40 3.10 0 3.05 0 0.75 1.90 c1.25 3.10 4.90 10.65 7 14.35 2.55 4.60 9.35 14.85 11.95 18 3.95 4.85 12.25 14.05 15.55 17.25 6.35 6.20 9.25 10.70 10.20 15.75 0.80 4.25 0.70 7.25 -0.45 10.80 -1.70 5.60 -5 9.95 -11.55 15.20 -10.40 8.40 -31.60 14.75 -49.10 14.75 l-5.45 0 -2.25 -2.35z"/>
  <path d="M164.90 215.45 l-2.90 -1.45 0 -12.05 c0 -11.30 -0.05 -12.05 -0.85 -11.70 -2.75 1.10 -7.60 2.65 -7.80 2.45 -0.25 -0.25 5.20 -13.95 5.75 -14.50 0.65 -0.60 10.50 -0.80 13.75 -0.20 3.20 0.55 9.45 3.25 11.25 4.85 1.40 1.25 4.30 7.75 4.85 10.85 0.65 3.40 0.70 6.80 0.25 11.25 l-0.35 3.05 -2.90 0 -2.90 0 -2.35 -4.85 c-1.30 -2.65 -3 -5.50 -3.75 -6.40 -1.40 -1.55 -5.20 -3.65 -5.75 -3.15 -0.10 0.15 -0.90 5.40 -1.70 11.65 -0.80 6.25 -1.50 11.40 -1.60 11.50 -0.10 0.10 -1.45 -0.50 -3 -1.30z"/>
  <path d="M304.20 177 c-3.15 -0.65 -9.35 -2.80 -11.35 -4 l-1.85 -1.10 0 -6 0 -5.95 2.15 0.30 c4.45 0.60 24.50 2.75 24.60 2.65 0.10 -0.10 -1.20 -2.90 -2.80 -6.25 -3.40 -6.95 -5.25 -13.45 -5.90 -20.20 -0.45 -4.65 -0.20 -12 0.40 -11.90 0.35 0.05 13.60 17.75 17.10 22.95 3.85 5.60 5.45 9.40 6 14.30 l0.45 4.25 -1.55 2.25 c-3.80 5.50 -5.75 6.95 -11.35 8.40 -3.40 0.85 -12.20 1 -15.90 0.30z"/>
  <path d="M402.65 169.10 l-3.60 -0.15 -0.50 -1.85 c-1.95 -7.35 -2.45 -9.90 -2.15 -10.15 0.20 -0.20 4.15 -1.55 8.75 -3.10 4.65 -1.50 8.50 -2.85 8.60 -2.95 0.20 -0.20 -1.75 -19.35 -2.50 -24.80 l-0.30 -2.10 1.90 1.10 c5.20 3.05 9.50 9.10 13.70 19.45 l2.55 6.20 -0.35 4.50 c-0.20 2.65 -0.80 5.75 -1.45 7.50 -1 2.65 -1.40 3.15 -3.35 4.10 -4.10 2 -10.70 2.70 -21.30 2.25z"/>
  <path d="M252 122.75 c0 -0.70 0.25 -3.45 0.55 -6.10 1.30 -11.85 6 -20.05 14.60 -25.75 6.80 -4.45 10.55 -5.50 21.20 -5.80 l8.60 -0.20 0.30 1.15 c0.70 3.10 2.75 13.60 2.65 13.75 -0.10 0.05 -2.30 0.45 -4.90 0.90 -6.50 1.10 -13.30 3 -17.20 4.75 -5.75 2.60 -11.95 8 -17.15 14.85 l-2.75 3.70 -2.95 0 c-2.80 0 -2.95 -0.05 -2.95 -1.25z"/>
 </g>
</svg>