<svg version="1.1" xmlns="http://www.w3.org/2000/svg" width="3000px" height="1532px" transform="rotate(0) scale(1, 1)">
<path d="M0 0 C2.71 2.16 5.36 4.38 7.99 6.62 C9.05 7.49 10.11 8.36 11.17 9.22 C29.15 24.52 41.21 48.72 43.47 72.07 C46.18 106.29 34.36 139.84 12.26 165.87 C-8.02 189.31 -8.02 189.31 -18.01 196.62 C-18.67 196.62 -19.33 196.62 -20.01 196.62 C-20.01 197.28 -20.01 197.94 -20.01 198.62 C-24.14 201.89 -28.61 204.72 -33.01 207.62 C-33.98 208.28 -34.95 208.93 -35.96 209.61 C-51.91 219.92 -69.59 227.97 -88.01 232.62 C-88.69 232.8 -89.37 232.97 -90.07 233.15 C-99.3 235.41 -108.4 235.89 -117.88 235.94 C-118.92 235.94 -119.95 235.95 -121.01 235.95 C-129.69 235.87 -137.97 235.05 -146.01 231.62 C-147.05 222.85 -144.27 217.16 -140.01 209.62 C-122.96 178.28 -118.36 133.34 -125.01 98.62 C-125.35 96.29 -125.68 93.96 -126.01 91.62 C-126.67 91.62 -127.33 91.62 -128.01 91.62 C-128.01 90.96 -128.01 90.3 -128.01 89.62 C-142.77 88.39 -156.86 98.01 -167.97 107.03 C-170.36 109.18 -172.69 111.39 -175.01 113.62 C-176.42 114.84 -177.83 116.05 -179.26 117.25 C-182.47 120.02 -185.16 123.01 -187.78 126.34 C-188.18 126.76 -188.59 127.19 -189.01 127.62 C-189.67 127.62 -190.33 127.62 -191.01 127.62 C-191.24 128.17 -191.47 128.71 -191.71 129.27 C-193.37 132.28 -195.56 134.69 -197.82 137.25 C-209.17 150.39 -218.86 164.89 -228.01 179.62 C-228.41 180.27 -228.81 180.92 -229.23 181.58 C-268.02 244.43 -308.02 337.2 -290.98 412.96 C-287.23 427.11 -281.66 441.17 -269.01 449.62 C-261.66 453.84 -255.74 456.12 -247.46 453.96 C-224.4 446.46 -209.73 426.7 -198.01 406.62 C-197.61 405.95 -197.21 405.27 -196.8 404.57 C-189.38 391.72 -184.61 378.28 -180.33 364.11 C-177.12 353.66 -173.97 344.46 -166.01 336.62 C-165.35 336.62 -164.69 336.62 -164.01 336.62 C-163.75 336.05 -163.5 335.47 -163.24 334.88 C-149.01 308.9 -108.25 294.41 -82.01 286.62 C-65.08 281.84 -48.34 280.21 -30.82 280.25 C-29.96 280.25 -29.11 280.25 -28.23 280.25 C-18.38 280.27 -8.64 280.38 1.06 282.31 C1.81 282.46 2.56 282.61 3.34 282.76 C8.91 284.11 13.06 286.78 16.31 291.56 C18.03 296.74 18.16 302.05 18.2 307.46 C18.2 308.21 18.21 308.95 18.22 309.72 C18.83 393.17 -13.5 475.99 -81.01 626.62 C-81.43 627.46 -81.86 628.29 -82.3 629.15 C-89.4 643.01 -96.85 656.65 -104.6 670.16 C-105.8 672.26 -106.99 674.37 -108.18 676.48 C-132.76 719.94 -132.76 719.94 -146.01 731.62 C-146.67 731.62 -147.33 731.62 -148.01 731.62 C-148.26 732.22 -148.51 732.81 -148.78 733.42 C-156.03 746.43 -178.86 751.86 -192.21 755.84 C-207.08 760.03 -222.35 762.23 -237.63 764.37 C-238.39 764.48 -239.15 764.59 -239.94 764.7 C-287.39 771.31 -343.78 770.01 -384.4 740.91 C-398.44 730.12 -413.24 716.92 -419.01 699.62 C-419.7 692.98 -418.4 687.53 -416.01 681.37 C-415.85 680.96 -415.85 680.96 -415.05 678.87 C-412.16 671.53 -408.52 665.1 -404.01 658.62 C-403.68 658.15 -403.68 658.15 -402 655.74 C-390.33 639.36 -390.33 639.36 -384.01 633.62 C-383.35 633.62 -382.69 633.62 -382.01 633.62 C-381.68 632.63 -381.35 631.64 -381.01 630.62 C-380.35 630.62 -379.69 630.62 -379.01 630.62 C-378.68 629.63 -378.35 628.64 -378.01 627.62 C-362.89 613.26 -339.63 596.77 -317.99 595.43 C-311.46 596.06 -307.08 600.2 -302.78 604.78 C-300.98 606.65 -299.11 608.32 -297.13 610 C-293.17 613.4 -289.53 617.06 -285.89 620.8 C-284.01 622.62 -284.01 622.62 -282.01 623.62 C-282.01 624.28 -282.01 624.94 -282.01 625.62 C-281.02 625.95 -280.03 626.28 -279.01 626.62 C-279.01 627.28 -279.01 627.94 -279.01 628.62 C-278.47 628.85 -277.94 629.07 -277.39 629.3 C-274.2 631.07 -271.65 633.46 -268.94 635.87 C-263.11 640.98 -257.06 645.71 -250.82 650.31 C-249.99 650.92 -249.17 651.54 -248.32 652.17 C-242.39 656.5 -242.39 656.5 -239.01 657.62 C-238.68 656.49 -238.35 655.36 -238.01 654.19 C-236.74 650.34 -235.14 646.76 -233.34 643.13 C-220.61 617.32 -215.1 588.85 -208.98 560.94 C-207.02 552.03 -204.95 543.15 -202.69 534.31 C-197.01 512.04 -197.01 512.04 -197.01 504.62 C-197.71 505.41 -198.41 506.2 -199.14 507.01 C-210.41 519.5 -222.43 530.68 -236.01 540.62 C-236.28 540.83 -236.28 540.83 -237.64 541.84 C-276.67 570.91 -335.64 602.7 -386.01 596.62 C-414.44 591.94 -438.5 573.91 -458.01 553.62 C-460.36 551.23 -462.72 548.88 -465.23 546.65 C-484.28 529.19 -497.27 501.27 -503.69 476.62 C-503.99 475.54 -504.28 474.45 -504.59 473.34 C-507.35 462.93 -509.22 452.64 -509.63 441.87 C-509.67 440.98 -509.7 440.09 -509.74 439.16 C-511.65 387.55 -505.92 335.87 -490.01 286.62 C-489.68 285.6 -489.35 284.58 -489.02 283.53 C-481.44 260.13 -472.16 237.32 -460.21 215.8 C-459 213.61 -457.82 211.41 -456.65 209.2 C-450.21 197.16 -442.76 185.86 -435.01 174.62 C-434.54 173.94 -434.07 173.26 -433.58 172.56 C-428.18 164.77 -422.47 157.26 -416.56 149.85 C-413.75 146.32 -411.04 142.72 -408.35 139.1 C-407.9 138.61 -407.46 138.13 -407.01 137.62 C-406.35 137.62 -405.69 137.62 -405.01 137.62 C-404.74 137.03 -404.47 136.44 -404.19 135.83 C-403.01 133.63 -401.8 132.1 -400.09 130.3 C-399.5 129.67 -398.91 129.04 -398.31 128.39 C-397.67 127.73 -397.04 127.06 -396.38 126.37 C-396.05 126.03 -396.05 126.03 -394.39 124.28 C-389.38 119.01 -384.31 113.8 -379.19 108.62 C-378.85 108.27 -378.85 108.27 -377.11 106.5 C-376.47 105.86 -375.83 105.22 -375.17 104.56 C-374.89 104.28 -374.89 104.28 -373.46 102.84 C-372.01 101.62 -372.01 101.62 -370.01 101.62 C-370.01 100.96 -370.01 100.3 -370.01 99.62 C-368.56 98.15 -368.56 98.15 -366.54 96.44 C-365.81 95.82 -365.07 95.2 -364.32 94.55 C-363.56 93.92 -362.79 93.28 -362.01 92.62 C-361.31 92.04 -360.6 91.45 -359.88 90.84 C-357.76 89.07 -355.64 87.31 -353.51 85.56 C-352.8 84.98 -352.09 84.39 -351.36 83.79 C-347.82 80.87 -344.24 77.99 -340.6 75.19 C-339.96 74.7 -339.31 74.2 -338.65 73.69 C-337.01 72.62 -337.01 72.62 -335.01 72.62 C-335.01 71.96 -335.01 71.3 -335.01 70.62 C-332.58 68.81 -330.15 67.11 -327.63 65.44 C-326.14 64.43 -324.65 63.43 -323.16 62.43 C-322.44 61.94 -321.72 61.45 -320.97 60.95 C-318.66 59.39 -316.39 57.76 -314.13 56.12 C-302.87 48.22 -290.8 41.35 -278.8 34.64 C-276.95 33.59 -275.1 32.51 -273.26 31.44 C-212.52 -3.73 -117.53 -44.66 0 0 Z " fill="#f9b905" transform="translate(1161.00634765625,726.375732421875)"/>
<path d="M0 0 C0.38 -0 0.38 -0 2.33 -0.01 C37.73 -0.01 37.73 -0.01 46.94 7.56 C50.01 11.58 49.87 15.89 49.69 20.78 C48.56 27.73 44.98 33.47 41.12 39.25 C40.46 39.25 39.81 39.25 39.12 39.25 C38.89 39.8 38.66 40.36 38.43 40.93 C26.48 62.27 -3.19 71.76 -24.8 78.89 C-58.01 89.88 -87.2 107.82 -113.32 130.87 C-114.78 132.16 -116.25 133.44 -117.72 134.72 C-122.28 138.73 -126.44 142.84 -130.36 147.48 C-132.4 149.86 -134.65 152.03 -136.88 154.25 C-137.78 155.35 -138.67 156.45 -139.56 157.56 C-140.33 158.45 -141.09 159.34 -141.88 160.25 C-142.53 160.25 -143.19 160.25 -143.88 160.25 C-144.11 160.79 -144.35 161.33 -144.6 161.89 C-146.21 164.87 -148.21 167.35 -150.31 170 C-164.41 188.12 -176.04 207.66 -185.95 228.36 C-186.85 230.21 -187.8 232.03 -188.75 233.86 C-221.15 297.13 -226.23 378.68 -205.06 446.13 C-199.62 462.78 -192.71 479.14 -183.93 494.32 C-182.88 496.25 -182.88 496.25 -181.88 499.25 C-180.04 500.27 -180.04 500.27 -177.88 501.25 C-176.66 502.16 -175.45 503.08 -174.25 504 C-152.7 518.45 -118.55 519.97 -93.88 515.25 C-82.51 512.62 -69.87 509.06 -61.88 500.25 C-60.19 498.81 -58.48 497.39 -56.75 496 C-56.33 495.66 -56.33 495.66 -54.18 493.92 C-51.88 492.25 -51.88 492.25 -48.88 491.25 C-48.88 490.59 -48.88 489.93 -48.88 489.25 C-47.3 487.73 -47.3 487.73 -45.19 486 C-42.52 483.75 -40.16 481.55 -38 478.81 C-37.3 477.97 -36.6 477.12 -35.88 476.25 C-35.21 476.25 -34.56 476.25 -33.88 476.25 C-33.62 475.68 -33.36 475.11 -33.09 474.52 C-31.76 472.03 -30.2 470.1 -28.38 467.94 C10.08 420.21 23.09 356.01 17.36 295.94 C12.59 254.13 -1.37 215.06 -23.65 179.41 C-27.14 173.26 -27.47 167.03 -25.88 160.25 C-22.12 147.98 -15.82 138.33 -7.62 128.62 C-7.11 128.01 -6.59 127.39 -6.05 126.76 C-2.25 122.37 -2.25 122.37 1.12 121.25 C1.45 120.26 1.79 119.27 2.12 118.25 C3.97 116.6 5.78 115.11 7.75 113.62 C8.33 113.19 8.91 112.75 9.5 112.3 C32.5 95.2 63.5 80.16 92.86 82.46 C97.91 83.36 101.88 85.17 105.12 89.25 C129.09 125.63 131.96 183.76 135.12 226.25 C135.22 227.48 135.31 228.71 135.41 229.97 C136.28 242.08 136.31 254.2 136.31 266.34 C136.31 269.85 136.33 273.36 136.35 276.86 C136.48 329.99 122.54 380.41 97.38 427.19 C96.86 428.15 96.34 429.12 95.8 430.11 C92.75 435.66 89.42 440.88 85.72 446.02 C84.16 448.21 82.66 450.43 81.19 452.69 C78.26 457.11 75.16 461.38 72.02 465.65 C70.39 467.89 68.81 470.15 67.25 472.44 C66.9 472.9 66.9 472.9 65.12 475.25 C64.46 475.25 63.81 475.25 63.12 475.25 C62.87 475.81 62.61 476.37 62.34 476.95 C60.98 479.52 59.4 481.7 57.62 484 C57.02 484.8 56.41 485.6 55.78 486.42 C55.23 487.03 54.69 487.63 54.12 488.25 C53.46 488.25 52.81 488.25 52.12 488.25 C52.01 488.52 52.01 488.52 51.45 489.91 C49.72 492.96 47.4 495.24 44.93 497.68 C44.67 497.94 44.67 497.94 43.37 499.23 C42.28 500.32 41.2 501.4 40.1 502.48 C38.46 504.11 36.81 505.75 35.17 507.39 C20.26 522.25 20.26 522.25 17.12 522.25 C17.12 522.91 17.12 523.57 17.12 524.25 C15.83 525.48 15.83 525.48 14 526.87 C13.32 527.39 12.65 527.9 11.95 528.44 C11.2 528.99 10.46 529.55 9.69 530.12 C9.3 530.41 9.3 530.41 7.36 531.88 C-54.67 578.38 -131.07 609.94 -209.88 599.25 C-238.28 594.79 -264.38 580.6 -286.33 562.36 C-288.87 560.25 -288.87 560.25 -291.88 558.25 C-291.88 557.59 -291.88 556.93 -291.88 556.25 C-292.47 555.96 -293.07 555.67 -293.69 555.38 C-295.87 554.25 -295.87 554.25 -298.88 552.25 C-298.88 551.59 -298.88 550.93 -298.88 550.25 C-299.46 549.99 -300.05 549.74 -300.65 549.47 C-303.07 548.14 -304.61 546.68 -306.5 544.69 C-309.68 541.35 -309.68 541.35 -311.88 540.25 C-311.88 539.59 -311.88 538.93 -311.88 538.25 C-312.87 537.92 -313.86 537.59 -314.88 537.25 C-316.56 535.54 -316.56 535.54 -318.31 533.44 C-320.25 531.14 -322.15 528.98 -324.31 526.88 C-325.88 525.25 -325.88 525.25 -325.88 523.25 C-326.53 523.25 -327.19 523.25 -327.88 523.25 C-329.62 521.22 -331.26 519.19 -332.88 517.06 C-333.12 516.74 -333.12 516.74 -334.37 515.12 C-335.38 513.8 -336.4 512.47 -337.42 511.14 C-338.7 509.48 -340.01 507.84 -341.33 506.2 C-365.77 475.6 -384.15 439.26 -381.88 399.25 C-381.83 398.37 -381.78 397.5 -381.73 396.6 C-378.71 345.23 -364.12 296.51 -341.88 250.25 C-341.47 249.4 -341.07 248.55 -340.66 247.67 C-331.16 227.57 -319.52 208.52 -306.88 190.25 C-306.58 189.82 -306.58 189.82 -305.06 187.62 C-303.96 186.03 -302.85 184.45 -301.74 182.88 C-300.24 180.77 -298.77 178.65 -297.29 176.53 C-296.38 175.23 -295.47 173.93 -294.56 172.62 C-294.13 172 -293.7 171.37 -293.25 170.72 C-292.17 169.19 -291.03 167.72 -289.88 166.25 C-289.22 166.25 -288.56 166.25 -287.88 166.25 C-287.22 164.6 -286.56 162.95 -285.88 161.25 C-285.22 161.25 -284.56 161.25 -283.88 161.25 C-283.22 159.6 -282.56 157.95 -281.88 156.25 C-281.22 156.25 -280.56 156.25 -279.88 156.25 C-279.62 155.69 -279.36 155.13 -279.09 154.55 C-277.73 151.98 -276.15 149.8 -274.38 147.5 C-273.77 146.7 -273.16 145.9 -272.53 145.08 C-271.98 144.47 -271.44 143.87 -270.88 143.25 C-270.22 143.25 -269.56 143.25 -268.88 143.25 C-268.6 142.66 -268.33 142.07 -268.05 141.46 C-266.89 139.27 -265.69 137.75 -264 135.96 C-263.41 135.33 -262.83 134.71 -262.23 134.07 C-261.6 133.41 -260.96 132.75 -260.31 132.06 C-259.66 131.37 -259.01 130.68 -258.33 129.97 C-253.13 124.51 -247.87 119.11 -242.56 113.75 C-241.83 113 -241.09 112.25 -240.34 111.48 C-239.65 110.8 -238.97 110.11 -238.26 109.41 C-237.66 108.8 -237.05 108.19 -236.42 107.56 C-234.88 106.25 -234.88 106.25 -232.88 106.25 C-232.54 105.26 -232.22 104.27 -231.88 103.25 C-230.28 101.81 -228.63 100.45 -226.94 99.12 C-223.17 96.13 -219.53 93.08 -216 89.81 C-206.92 81.55 -196.87 74.37 -186.88 67.25 C-185.92 66.57 -184.96 65.88 -183.97 65.18 C-130.05 27.25 -66.74 0.08 0 0 Z " fill="#f9b905" transform="translate(427.875,34.75)"/>
<path d="M0 0 C12.14 10.09 18.34 23.61 22.56 38.44 C22.66 38.78 22.66 38.78 23.15 40.51 C26.22 52.09 27.04 63.72 26.88 75.66 C26.86 77.64 26.85 79.62 26.84 81.6 C26.82 85.03 26.78 88.45 26.75 91.88 C26.71 96 26.67 100.12 26.65 104.25 C26.63 106.8 26.61 109.35 26.57 111.91 C26.57 113.06 26.56 114.22 26.55 115.41 C26.55 115.91 26.55 115.91 26.52 118.47 C26.78 121.7 27.61 124.36 28.75 127.38 C33.25 124.35 36.42 121.7 39.75 117.38 C40.41 117.38 41.07 117.38 41.75 117.38 C42.02 116.8 42.29 116.22 42.56 115.62 C43.79 113.3 45 111.34 46.75 109.38 C47.74 109.38 48.73 109.38 49.75 109.38 C49.87 109.09 49.87 109.09 50.5 107.66 C52.44 104.12 55.23 101.43 57.97 98.5 C59.75 96.38 59.75 96.38 60.75 93.38 C62.44 91.79 64.23 90.4 66.06 88.97 C67.75 87.38 67.75 87.38 68.72 85.31 C69.75 83.38 69.75 83.38 71.48 82.51 C74.96 80.77 77.32 77.97 80 75.19 C97.67 57.23 117.52 42.56 143.66 42.19 C144.35 42.18 145.03 42.18 145.74 42.17 C146.11 42.17 146.11 42.17 147.97 42.15 C150.33 42.13 152.7 42.13 155.06 42.12 C155.87 42.12 156.68 42.12 157.51 42.12 C180.36 42.15 200.6 45.31 220.62 57.06 C226.45 63.4 227.07 70.38 227.03 78.66 C227.03 79.11 227.03 79.11 227.02 81.43 C226.88 91.87 225.63 102.17 224.36 112.53 C222.08 131.09 220.15 149.65 218.94 168.31 C218.91 168.74 218.91 168.74 218.77 170.92 C218.44 175.91 218.15 180.89 217.88 185.88 C217.8 187.53 217.7 189.17 217.61 190.82 C216.52 209.42 216.56 228.03 216.56 246.65 C216.56 250.28 216.56 253.91 216.54 257.54 C216.16 361.79 216.16 361.79 230.56 387.62 C232.22 391.47 231.99 393.37 230.75 397.38 C227.73 401.72 224.66 405.24 219.75 407.38 C219.75 408.04 219.75 408.69 219.75 409.38 C217.78 410.86 215.83 412.19 213.75 413.5 C213.12 413.9 212.5 414.29 211.85 414.7 C200.14 421.97 188.06 427.69 174.75 431.38 C174.18 431.53 174.18 431.53 171.31 432.34 C147.13 437.98 120.77 436.04 98.8 424.28 C94.34 421.49 90.21 418.36 86.75 414.38 C86.75 413.71 86.75 413.06 86.75 412.38 C86.09 412.38 85.43 412.38 84.75 412.38 C84.42 411.06 84.09 409.74 83.75 408.38 C83.09 408.38 82.43 408.38 81.75 408.38 C52.81 371.15 51.71 313.22 49.75 268.38 C46.5 269.46 45.92 270.08 43.81 272.62 C36.03 281.78 27.76 290.42 19.23 298.87 C13.58 304.58 8.21 310.69 3.75 317.38 C3.09 317.38 2.43 317.38 1.75 317.38 C1.52 317.93 1.28 318.48 1.04 319.05 C-0.59 321.99 -2.64 324.17 -4.94 326.62 C-5.38 327.11 -5.38 327.11 -7.64 329.55 C-8.5 330.48 -9.36 331.41 -10.25 332.38 C-11.59 333.87 -12.92 335.37 -14.25 336.88 C-14.79 337.48 -15.32 338.09 -15.88 338.72 C-17.25 340.37 -17.25 340.37 -19.25 343.38 C-19.91 343.38 -20.57 343.38 -21.25 343.38 C-21.38 343.66 -21.38 343.66 -22.04 345.1 C-23.36 347.59 -24.9 349.57 -26.69 351.75 C-30.08 355.93 -33.43 360.14 -36.75 364.38 C-37.69 365.57 -38.62 366.76 -39.56 367.95 C-41.27 370.12 -42.97 372.3 -44.66 374.49 C-45.37 375.4 -46.08 376.31 -46.81 377.25 C-47.43 378.05 -48.05 378.85 -48.69 379.68 C-49.21 380.24 -49.72 380.8 -50.25 381.38 C-50.91 381.38 -51.57 381.38 -52.25 381.38 C-52.52 381.96 -52.8 382.54 -53.08 383.15 C-55.01 386.82 -57.66 389.9 -60.25 393.12 C-60.8 393.82 -61.34 394.52 -61.91 395.24 C-62.43 395.9 -62.96 396.56 -63.5 397.23 C-63.98 397.84 -64.46 398.44 -64.95 399.06 C-65.38 399.49 -65.81 399.93 -66.25 400.38 C-66.91 400.38 -67.57 400.38 -68.25 400.38 C-68.5 400.93 -68.75 401.49 -69 402.07 C-70.47 404.78 -72.22 406.94 -74.19 409.31 C-74.59 409.79 -74.59 409.79 -76.61 412.23 C-77.49 413.28 -78.37 414.33 -79.25 415.38 C-79.71 415.92 -80.16 416.46 -80.63 417.03 C-82.97 419.81 -85.32 422.59 -87.68 425.36 C-89.21 427.15 -90.73 428.95 -92.22 430.77 C-98.45 438.2 -104.86 443.78 -114.85 444.71 C-137.81 445.24 -164.84 439.13 -182 423.06 C-209.73 393.22 -209.47 349.96 -208.34 311.83 C-207.96 301.6 -206.77 291.5 -205.25 281.38 C-205.09 280.27 -204.94 279.17 -204.78 278.04 C-199.87 243.9 -190.46 210.71 -178.93 178.28 C-178.3 176.5 -177.67 174.73 -177.05 172.96 C-162.52 131.71 -142.6 91.38 -116.25 56.38 C-115.44 55.3 -114.64 54.22 -113.83 53.14 C-112.27 51.06 -110.7 48.98 -109.13 46.91 C-107.79 45.1 -106.5 43.25 -105.25 41.38 C-104.59 41.38 -103.93 41.38 -103.25 41.38 C-103.03 40.83 -102.8 40.29 -102.57 39.74 C-100.83 36.63 -98.54 34.15 -96.12 31.56 C-95.88 31.3 -95.88 31.3 -94.64 29.95 C-91.31 26.39 -87.86 23.08 -84.1 19.97 C-82.25 18.38 -82.25 18.38 -79.92 15.98 C-59.44 -4.05 -25.95 -17.51 0 0 Z " fill="#f9b905" transform="translate(1414.25,891.625)"/>
<path d="M0 0 C5.86 4.92 9.72 10.13 11.88 17.5 C12.53 17.83 13.2 18.16 13.88 18.5 C14.26 20.16 14.59 21.82 14.88 23.5 C15.2 24.16 15.53 24.82 15.88 25.5 C18.11 40.48 18.15 55.37 13.16 69.74 C12.07 72.92 11.2 76.08 10.42 79.35 C9.59 82.63 8.62 85.87 7.67 89.11 C3.71 102.6 3.71 102.6 2.75 108.69 C2.07 112.97 0.76 116.58 -0.94 120.55 C-2.42 124.23 -3.64 127.98 -4.88 131.75 C-9.88 146.96 -15.36 161.96 -21.56 176.72 C-22.91 179.95 -24.16 183.21 -25.38 186.5 C-28.29 194.2 -31.7 201.68 -35.04 209.2 C-37.59 214.95 -40.04 220.7 -42.31 226.56 C-45.15 233.79 -48.57 240.65 -52.12 247.55 C-53.73 250.67 -55.3 253.8 -56.88 256.94 C-57.41 257.99 -57.94 259.04 -58.48 260.12 C-59.72 262.66 -60.87 265.19 -62 267.77 C-64.24 272.87 -66.82 277.77 -69.44 282.69 C-72.58 288.63 -75.68 294.58 -78.62 300.62 C-83.52 310.52 -89 320.31 -95.12 329.5 C-95.78 329.5 -96.45 329.5 -97.12 329.5 C-97.23 330.07 -97.33 330.64 -97.43 331.22 C-98.26 333.95 -99.48 335.65 -101.19 337.94 C-101.9 338.9 -102.62 339.85 -103.35 340.84 C-104.28 342.06 -105.2 343.28 -106.12 344.5 C-106.42 344.89 -106.42 344.89 -107.92 346.89 C-114.82 356.03 -121.71 365.15 -129.04 373.95 C-132.4 378.06 -135.57 382.31 -138.77 386.55 C-141.06 389.42 -143.49 391.94 -146.12 394.5 C-152.37 401.13 -157.97 408.27 -163.54 415.46 C-165.26 417.67 -166.98 419.88 -168.7 422.09 C-171.61 425.82 -174.52 429.56 -177.42 433.31 C-178.62 434.86 -179.84 436.4 -181.07 437.94 C-181.7 438.74 -182.33 439.53 -182.98 440.36 C-183.56 441.08 -184.14 441.8 -184.73 442.54 C-186.12 444.5 -186.12 444.5 -187.12 447.5 C-188.27 448.68 -189.43 449.86 -190.61 451 C-197.41 457.74 -203.2 465.5 -209.09 473.01 C-217.47 483.61 -226.69 493.25 -236.23 502.79 C-238.09 504.65 -239.94 506.52 -241.79 508.39 C-242.97 509.58 -244.16 510.76 -245.34 511.95 C-245.89 512.5 -246.44 513.06 -247.01 513.64 C-250.9 517.5 -250.9 517.5 -253.12 517.5 C-253.12 518.16 -253.12 518.82 -253.12 519.5 C-254.59 520.98 -254.59 520.98 -256.62 522.69 C-260.3 525.8 -263.89 528.98 -267.46 532.21 C-269.12 533.5 -269.12 533.5 -271.12 533.5 C-271.12 534.16 -271.12 534.82 -271.12 535.5 C-272.4 536.71 -272.4 536.71 -274.21 538.08 C-274.88 538.6 -275.56 539.11 -276.25 539.64 C-276.99 540.19 -277.74 540.74 -278.5 541.31 C-278.88 541.6 -278.88 541.6 -280.83 543.06 C-282.45 544.28 -284.07 545.49 -285.7 546.7 C-287.97 548.39 -290.23 550.09 -292.49 551.79 C-317.63 570.56 -348.95 590.33 -381.7 587.09 C-392.08 585.3 -399.65 580.8 -406.12 572.5 C-414.27 560.11 -414.38 547.92 -411.6 533.63 C-407.39 514.17 -396.76 495.67 -384.12 480.5 C-383.43 479.61 -382.74 478.71 -382.02 477.79 C-377.44 471.93 -372.42 466.59 -367.19 461.31 C-366.52 460.64 -365.86 459.97 -365.18 459.27 C-364.55 458.65 -363.93 458.03 -363.29 457.39 C-363 457.12 -363 457.12 -361.59 455.7 C-360.12 454.5 -360.12 454.5 -358.12 454.5 C-357.8 453.51 -357.47 452.52 -357.12 451.5 C-355.04 449.68 -352.95 447.99 -350.75 446.31 C-350.12 445.82 -349.48 445.33 -348.83 444.83 C-346.93 443.38 -345.03 441.94 -343.12 440.5 C-342.17 439.78 -341.22 439.06 -340.24 438.32 C-330.24 430.89 -319.87 424.29 -308.88 418.44 C-308.14 418.04 -307.4 417.65 -306.63 417.24 C-301.38 414.5 -301.38 414.5 -299.12 414.5 C-302.37 410.73 -305.64 407 -309.04 403.37 C-309.54 402.83 -310.04 402.3 -310.55 401.74 C-311.55 400.67 -312.56 399.6 -313.57 398.54 C-317.12 394.72 -317.12 394.72 -317.12 392.5 C-317.78 392.5 -318.45 392.5 -319.12 392.5 C-319.78 390.85 -320.45 389.2 -321.12 387.5 C-321.78 387.5 -322.45 387.5 -323.12 387.5 C-324.97 385.16 -326.69 382.82 -328.38 380.38 C-328.9 379.61 -329.43 378.85 -329.98 378.07 C-331.71 375.55 -333.42 373.03 -335.12 370.5 C-335.41 370.08 -335.41 370.08 -336.83 367.97 C-372.32 314.95 -392.74 253.64 -400.12 190.5 C-400.23 189.61 -400.33 188.72 -400.44 187.81 C-401.49 177.33 -401.37 166.77 -401.38 156.25 C-401.38 155.22 -401.38 154.2 -401.38 153.14 C-401.37 138.02 -400.84 123.41 -398.12 108.5 C-397.87 106.86 -397.61 105.22 -397.35 103.58 C-393.97 83.39 -387.2 63.33 -377.12 45.5 C-376.64 44.6 -376.15 43.7 -375.64 42.77 C-369.78 32.43 -362.48 22.87 -353.12 15.5 C-352.76 15.18 -352.76 15.18 -350.9 13.55 C-335.42 0.32 -315.42 -5.67 -295.31 -5.69 C-294.37 -5.7 -293.42 -5.71 -292.44 -5.72 C-277.94 -5.75 -265.92 -1.14 -255.37 9.05 C-202.16 67.26 -211.66 207.84 -209.12 300.5 C-206.74 296.92 -205.89 293.37 -204.84 289.26 C-204.39 287.55 -203.94 285.84 -203.5 284.13 C-203.26 283.23 -203.03 282.33 -202.79 281.41 C-198.06 263.27 -192.92 245.33 -187.12 227.5 C-186.77 226.4 -186.42 225.3 -186.06 224.17 C-167.93 167.78 -144.92 110.2 -112.38 60.45 C-111.43 58.97 -110.49 57.48 -109.55 55.98 C-105.48 49.46 -101.12 43.28 -96.44 37.19 C-95.74 36.28 -95.04 35.37 -94.32 34.43 C-70.53 3.64 -38.73 -28.39 0 0 Z " fill="#f9b905" transform="translate(2542.125,894.5)"/>
<path d="M0 0 C13.36 11.31 17.23 29.86 18.94 46.5 C20.52 68.88 18.13 90.95 14.31 113 C14.8 112.03 15.29 111.06 15.79 110.05 C25.14 91.72 36.26 74.62 49.11 58.55 C50.25 57.08 51.28 55.54 52.31 54 C52.97 54 53.63 54 54.31 54 C54.52 53.48 54.73 52.95 54.95 52.41 C56.9 48.97 59.5 46.27 62.19 43.38 C62.72 42.79 63.25 42.2 63.79 41.6 C66.5 38.67 68.68 36.71 72.31 35 C72.64 34.01 72.97 33.02 73.31 32 C73.97 32 74.63 32 75.31 32 C75.31 31.34 75.31 30.68 75.31 30 C77.4 28.19 79.49 26.49 81.69 24.81 C82.01 24.57 82.01 24.57 83.63 23.31 C110.63 2.58 139.16 -9.36 173.72 -5.75 C184.49 -4.03 193.98 1.66 203.31 7 C203.31 7.66 203.31 8.32 203.31 9 C203.68 9.12 203.68 9.12 205.56 9.75 C208.54 11.1 210.21 12.51 212.31 15 C212.31 15.66 212.31 16.32 212.31 17 C213.3 17.33 214.29 17.66 215.31 18 C217.16 20.28 218.87 22.55 220.56 24.94 C220.81 25.28 220.81 25.28 222.05 27.01 C223.03 28.38 224.01 29.76 224.98 31.13 C226.08 32.68 227.21 34.2 228.34 35.73 C259.57 78.17 256.57 141.3 249.12 190.61 C240.38 244.54 219.4 321.22 174.31 357 C173.98 357.66 173.65 358.32 173.31 359 C172.65 359 171.99 359 171.31 359 C170.98 359.99 170.65 360.98 170.31 362 C169.65 362 168.99 362 168.31 362 C167.98 362.99 167.65 363.98 167.31 365 C158.45 374.39 146.44 382.55 135.31 389 C134.97 389.2 134.97 389.2 133.22 390.22 C98.6 410.2 56.33 419.78 17.03 409.4 C-7.61 402.5 -23.63 389.09 -37.69 368 C-37.9 368.85 -38.11 369.7 -38.32 370.58 C-72.54 508.46 -72.54 508.46 -109.69 559 C-110.24 559.81 -110.8 560.62 -111.37 561.45 C-116.04 567.97 -121.64 572.49 -129.69 574 C-143.23 575.03 -153.53 571.43 -164.14 563.07 C-179.35 549.34 -180.45 523.26 -181.69 504 C-182.02 496.59 -182.03 489.17 -182 481.75 C-182 480.74 -182 479.73 -181.99 478.7 C-181.79 412.23 -170.57 345.83 -156.69 281 C-156.49 280.09 -156.3 279.18 -156.1 278.25 C-143.8 220.93 -127.9 164.39 -108.69 109 C-108.28 107.83 -107.88 106.66 -107.46 105.45 C-104.96 98.27 -102.36 91.12 -99.69 84 C-99.49 83.47 -99.49 83.47 -98.49 80.81 C-89.74 57.62 -79.03 37.06 -62.19 18.68 C-60.69 17 -60.69 17 -58.96 14.67 C-45.08 -1.59 -19.38 -13.75 0 0 Z M84.31 128 C83.67 128.5 83.02 129.01 82.35 129.52 C78.53 132.65 75.29 136.14 72.11 139.9 C70.95 141.25 69.77 142.58 68.55 143.88 C61.89 151.01 56.39 159 50.76 166.95 C49.56 168.65 48.35 170.34 47.13 172.04 C44.45 175.8 41.9 179.61 39.54 183.59 C39.01 184.46 38.49 185.34 37.95 186.24 C37.41 187.15 36.87 188.06 36.31 189 C35.78 189.88 35.25 190.76 34.71 191.67 C-14.39 273.64 -14.39 273.64 -16.69 313 C-11.84 325.43 0.58 334.59 12.31 340 C29.19 346.06 42.84 344.84 58.94 337.7 C63.62 335.34 67.45 332.52 71.31 329 C71.92 328.46 72.54 327.91 73.17 327.35 C103.93 298.42 114.61 246.27 116.24 206.04 C116.89 180.05 115.3 143.7 98.31 122 C92.99 119.25 88.35 124.86 84.31 128 Z " fill="#f9b905" transform="translate(803.6875,223)"/>
<path d="M0 0 C0.58 0.55 1.17 1.1 1.77 1.66 C1.77 2.32 1.77 2.98 1.77 3.66 C2.35 3.91 2.93 4.15 3.54 4.41 C13.2 9.86 21.18 25.73 24.19 36.19 C31.8 66.16 26.9 96.79 11.55 123.52 C8.02 129.44 4.38 135.53 -0.23 140.66 C-0.89 140.66 -1.55 140.66 -2.23 140.66 C-2.51 141.26 -2.78 141.86 -3.06 142.47 C-14.45 163.79 -45.8 178.96 -67.66 185.91 C-78.99 189.24 -90.46 191.75 -102.23 192.66 C-103.22 192.74 -104.21 192.82 -105.22 192.9 C-109.3 193.03 -111.66 192.98 -115.3 190.98 C-117.57 188.26 -118.16 187.2 -118.23 183.66 C-117.41 177.14 -115.09 172.25 -112.05 166.44 C-96.81 136.63 -90.28 93.01 -98.24 60.64 C-100.06 55.19 -102.12 49.78 -106.23 45.66 C-115.26 45.84 -121.28 51.43 -127.57 57.31 C-129.23 58.66 -129.23 58.66 -131.23 58.66 C-131.36 58.95 -131.36 58.95 -132.01 60.42 C-133.35 62.87 -134.87 64.58 -136.8 66.6 C-155.98 87.9 -172.81 119.5 -171.43 148.64 C-170.68 156.46 -167.82 163.76 -164.23 170.66 C-163.93 171.41 -163.62 172.15 -163.3 172.91 C-161.96 175.12 -160.59 175.72 -158.23 176.66 C-158.23 177.32 -158.23 177.98 -158.23 178.66 C-157.65 178.94 -157.07 179.21 -156.47 179.49 C-154.27 180.65 -152.48 181.94 -150.54 183.48 C-128.65 200.14 -102.16 204.89 -75.55 208.11 C-43.27 212.01 -13.13 222.37 9.77 246.66 C9.77 247.32 9.77 247.98 9.77 248.66 C10.76 248.99 11.75 249.32 12.77 249.66 C14.34 251.59 15.75 253.48 17.14 255.54 C17.54 256.12 17.94 256.71 18.35 257.31 C29.54 274.11 33.81 294.17 30.05 314.11 C29.16 318.03 28 321.83 26.77 325.66 C26.4 326.85 26.04 328.04 25.67 329.27 C22.79 338.07 18.61 345.82 13.77 353.66 C13.3 354.42 12.84 355.19 12.36 355.97 C7.17 364.46 2.01 372.88 -4.42 380.51 C-7.01 383.59 -9.39 386.82 -11.79 390.05 C-12.27 390.58 -12.74 391.11 -13.23 391.66 C-13.89 391.66 -14.55 391.66 -15.23 391.66 C-15.47 392.22 -15.7 392.79 -15.95 393.36 C-20.23 401.02 -28.6 407.02 -35.23 412.66 C-35.89 413.25 -36.54 413.83 -37.21 414.43 C-37.84 414.98 -38.47 415.53 -39.11 416.1 C-39.66 416.6 -40.22 417.09 -40.79 417.6 C-42.23 418.66 -42.23 418.66 -44.23 418.66 C-44.23 419.32 -44.23 419.98 -44.23 420.66 C-46.08 422.22 -46.08 422.22 -48.73 424.1 C-49.74 424.81 -50.75 425.52 -51.78 426.26 C-52.93 427.06 -54.08 427.86 -55.23 428.66 C-56.49 429.55 -57.74 430.43 -59 431.32 C-67.85 437.52 -76.88 443.27 -86.23 448.66 C-86.9 449.05 -87.57 449.44 -88.25 449.85 C-101.16 457.38 -114.53 463.72 -128.23 469.66 C-128.69 469.86 -128.69 469.86 -130.99 470.86 C-154.68 481.05 -180.71 488.79 -206.23 492.66 C-207.16 492.81 -208.08 492.95 -209.03 493.1 C-231.48 496.53 -255.29 498.66 -277.23 491.66 C-277.93 491.44 -278.64 491.22 -279.36 491 C-288.41 488.08 -296.49 484.26 -304.23 478.66 C-304.99 478.14 -305.75 477.62 -306.53 477.08 C-307.09 476.61 -307.66 476.15 -308.23 475.66 C-308.23 475 -308.23 474.34 -308.23 473.66 C-309.22 473.33 -310.21 473 -311.23 472.66 C-324.39 457.93 -330.34 439.4 -329.55 419.79 C-328.12 397.8 -318.48 377.92 -305.23 360.66 C-304.97 360.28 -304.97 360.28 -303.62 358.36 C-303.4 358.08 -303.4 358.08 -302.23 356.66 C-301.57 356.66 -300.91 356.66 -300.23 356.66 C-299.98 356.09 -299.73 355.51 -299.47 354.92 C-293.07 343.25 -277.54 333.92 -266.23 327.66 C-265.14 327.03 -264.04 326.39 -262.91 325.73 C-250.5 318.67 -236.29 312.59 -221.86 312.41 C-220.57 312.39 -219.29 312.36 -217.96 312.34 C-214.02 312.68 -211.61 313.68 -208.23 315.66 C-208.54 320.24 -209.57 323.64 -211.55 327.79 C-216.04 337.38 -218.45 346.91 -219.98 357.35 C-220.11 358.22 -220.24 359.09 -220.37 359.98 C-222.82 378.09 -220.85 396.86 -211.23 412.66 C-211.23 413.32 -211.23 413.98 -211.23 414.66 C-210.57 414.66 -209.91 414.66 -209.23 414.66 C-208.49 415.51 -207.75 416.36 -206.98 417.23 C-204.23 419.66 -204.23 419.66 -201.52 419.57 C-197.61 418.49 -194.4 416.77 -190.98 414.66 C-190.33 414.27 -189.68 413.87 -189.01 413.47 C-183.82 410.24 -179.45 406.59 -175.09 402.32 C-173.23 400.66 -173.23 400.66 -171.23 400.66 C-170.97 400.07 -170.7 399.48 -170.43 398.88 C-169.2 396.61 -167.9 395.13 -166.11 393.29 C-153.18 378.84 -147 360.85 -148.03 341.68 C-148.82 333.81 -152.54 327.79 -157.23 321.66 C-157.23 321 -157.23 320.34 -157.23 319.66 C-157.89 319.66 -158.55 319.66 -159.23 319.66 C-159.91 318.94 -160.6 318.22 -161.3 317.48 C-167.34 311.31 -173.85 309.3 -182.24 308.23 C-206.8 304.96 -230.85 296.98 -254.23 289.04 C-254.9 288.82 -255.57 288.59 -256.25 288.36 C-267.36 284.62 -277.98 280.22 -287.62 273.48 C-289.74 272.01 -291.87 270.59 -294.03 269.19 C-302.21 263.83 -309.29 258.56 -315.23 250.66 C-315.87 249.85 -316.5 249.03 -317.15 248.19 C-330.61 229.16 -330.8 201.2 -327.11 179.14 C-326.28 174.95 -325.3 170.8 -324.23 166.66 C-324.14 166.26 -324.14 166.26 -323.63 164.24 C-318.41 143.56 -309.29 123.85 -298.23 105.66 C-298.04 105.33 -298.04 105.33 -297.04 103.66 C-291.35 94.14 -285.14 85.32 -278.23 76.66 C-277.05 75.1 -275.86 73.54 -274.67 71.98 C-271.38 67.73 -267.79 63.78 -264.15 59.83 C-262.23 57.66 -262.23 57.66 -260.23 54.66 C-259.57 54.66 -258.91 54.66 -258.23 54.66 C-257.97 54.07 -257.7 53.48 -257.42 52.86 C-256.23 50.65 -255.03 49.22 -253.26 47.46 C-252.67 46.87 -252.09 46.29 -251.49 45.69 C-250.87 45.08 -250.25 44.48 -249.61 43.85 C-248.97 43.22 -248.33 42.59 -247.68 41.94 C-243.33 37.68 -238.9 33.57 -234.23 29.66 C-233.24 28.8 -232.24 27.94 -231.21 27.05 C-224.8 21.51 -218.3 16.37 -211.23 11.66 C-210.1 10.89 -208.97 10.11 -207.84 9.33 C-144.3 -34.14 -64.28 -50.74 0 0 Z " fill="#f9b905" transform="translate(2923.234375,908.3359375)"/>
<path d="M0 0 C36.25 -0.77 73.47 11.21 101.12 34.87 C101.78 35.44 102.45 36.01 103.13 36.59 C103.75 37.13 104.36 37.67 105 38.23 C105.55 38.71 106.11 39.2 106.68 39.7 C107.99 41.12 107.99 41.12 108.99 44.12 C109.65 44.12 110.31 44.12 110.99 44.12 C110.99 44.78 110.99 45.44 110.99 46.12 C111.65 46.12 112.31 46.12 112.99 46.12 C112.99 46.78 112.99 47.44 112.99 48.12 C113.65 48.12 114.31 48.12 114.99 48.12 C121.14 54.83 123.8 62.44 125.99 71.12 C126.17 71.73 126.34 72.34 126.52 72.97 C132.04 98.24 122.23 125.84 108.99 147.12 C105.52 152.27 101.77 157.2 97.99 162.12 C97.71 162.52 97.71 162.52 96.29 164.55 C95.86 165.07 95.43 165.59 94.99 166.12 C94.33 166.12 93.67 166.12 92.99 166.12 C92.77 166.67 92.54 167.22 92.3 167.79 C90.6 170.81 88.44 172.93 85.99 175.37 C85.11 176.26 84.22 177.16 83.3 178.07 C80.99 180.12 80.99 180.12 78.99 180.12 C78.99 180.78 78.99 181.44 78.99 182.12 C77.58 183.41 77.58 183.41 75.58 184.88 C74.85 185.42 74.11 185.96 73.35 186.51 C72.55 187.09 71.75 187.66 70.93 188.25 C70.11 188.83 69.3 189.42 68.45 190.02 C46.24 205.64 18.55 216.17 -8.91 211.45 C-11.65 210.76 -14.33 210.02 -17.01 209.12 C-16.43 205.73 -15.38 204.25 -12.95 201.87 C-4.08 192.04 0.41 178.88 2.99 166.12 C3.14 165.45 3.29 164.79 3.44 164.1 C10.22 132.74 8.81 93.86 -5.8 64.94 C-7.01 63.12 -7.01 63.12 -10.01 61.12 C-38.86 82.69 -55.8 134.05 -60.74 168.02 C-62.17 179.2 -60.88 186.25 -54.38 195.42 C-47.28 203.74 -36.93 207.26 -27.01 211.12 C-26.03 211.5 -25.04 211.88 -24.03 212.28 C3.49 222.77 32.24 228.62 61.45 231.85 C72.64 233.1 82.65 234.42 92.99 239.12 C94.05 239.59 95.1 240.05 96.18 240.53 C102.83 243.65 108.37 247.44 113.99 252.12 C114.36 252.38 114.36 252.38 116.24 253.7 C116.53 253.94 116.53 253.94 117.99 255.12 C117.99 255.78 117.99 256.44 117.99 257.12 C118.98 257.45 119.97 257.78 120.99 258.12 C130.11 266.97 135.85 281.91 137.99 294.12 C138.22 295.36 138.45 296.6 138.68 297.87 C141.86 330.73 129.89 362.63 110.99 389.12 C110.3 390.22 109.61 391.31 108.89 392.44 C108.26 393.33 107.64 394.21 106.99 395.12 C106.33 395.12 105.67 395.12 104.99 395.12 C104.87 395.48 104.87 395.48 104.27 397.3 C102.79 400.57 100.95 402.64 98.49 405.25 C96.08 407.83 93.95 410.18 91.99 413.12 C91.33 413.12 90.67 413.12 89.99 413.12 C89.78 413.66 89.56 414.2 89.34 414.76 C87.53 417.94 85.07 420.33 82.49 422.87 C81.99 423.38 81.49 423.88 80.98 424.41 C77.25 428.12 77.25 428.12 74.99 428.12 C74.66 429.11 74.33 430.1 73.99 431.12 C72.3 432.66 70.54 434.14 68.74 435.56 C67.79 436.32 66.83 437.08 65.85 437.87 C64.91 438.61 63.96 439.35 62.99 440.12 C62.09 440.88 61.19 441.63 60.26 442.41 C57.99 444.12 57.99 444.12 55.99 444.12 C55.99 444.78 55.99 445.44 55.99 446.12 C54.33 447.5 54.33 447.5 51.93 449.12 C51.01 449.74 50.09 450.37 49.14 451.01 C48.62 451.36 48.62 451.36 45.99 453.12 C44.88 453.89 43.77 454.65 42.66 455.42 C12.35 476.17 -21.12 491.94 -57.01 500.12 C-57.34 500.2 -57.34 500.2 -59.01 500.58 C-76.6 504.53 -94.05 505.63 -112.01 506.12 C-112.74 506.14 -113.48 506.17 -114.24 506.19 C-143.23 507.05 -176.87 502.05 -198.69 481.52 C-211.55 468.19 -216.88 450.37 -217.38 432.18 C-216.75 409.02 -208.5 388.72 -195.01 370.12 C-194.52 369.4 -194.03 368.68 -193.52 367.94 C-192.4 366.3 -191.21 364.7 -190.01 363.12 C-189.35 363.12 -188.69 363.12 -188.01 363.12 C-187.75 362.54 -187.49 361.96 -187.23 361.36 C-185.91 358.94 -184.46 357.3 -182.51 355.37 C-181.9 354.76 -181.29 354.14 -180.66 353.51 C-179.01 352.12 -179.01 352.12 -177.01 352.12 C-176.68 351.13 -176.35 350.14 -176.01 349.12 C-173.69 346.97 -171.04 345.24 -168.45 343.43 C-167.68 342.9 -166.92 342.37 -166.14 341.82 C-158.78 336.79 -151.15 332.72 -143.01 329.12 C-142.46 328.88 -142.46 328.88 -139.71 327.66 C-126.5 322.23 -113.3 319.9 -99.13 318.68 C-98.56 318.63 -98.56 318.63 -95.65 318.36 C-95.12 318.32 -95.12 318.32 -92.39 318.12 C-91.43 318.05 -90.46 317.98 -89.47 317.9 C-87.01 318.12 -87.01 318.12 -85.22 319.5 C-82.78 322.76 -82.51 326.15 -83.01 330.12 C-84.37 332.58 -86.05 334.66 -87.77 336.89 C-100.89 355.84 -109.13 381.77 -105.41 404.86 C-104.69 408.31 -103.92 411.71 -103.01 415.12 C-102.79 416.21 -102.57 417.29 -102.34 418.41 C-101.01 421.12 -101.01 421.12 -97.89 422.46 C-82.78 425.03 -73.32 422.79 -60.42 414.45 C-48.52 405.92 -40.41 392.25 -37.01 378.12 C-34.95 363.47 -36.2 348.8 -45.18 336.51 C-54.83 323.87 -65.59 317.9 -80.63 313.25 C-81.44 312.99 -82.25 312.74 -83.08 312.48 C-89.48 310.5 -95.95 308.82 -102.45 307.18 C-112.49 304.65 -122.17 301.44 -131.89 297.88 C-134.78 296.84 -137.71 295.92 -140.63 295 C-149.15 292.18 -157.96 288.25 -164.31 281.77 C-167.02 279.11 -169.81 276.92 -172.88 274.68 C-177.43 271.32 -181.87 267.98 -186.01 264.12 C-186.01 263.46 -186.01 262.8 -186.01 262.12 C-187 261.79 -187.99 261.46 -189.01 261.12 C-189.01 260.46 -189.01 259.8 -189.01 259.12 C-189.67 259.12 -190.33 259.12 -191.01 259.12 C-205.82 242.21 -208.41 220.65 -207.01 199.12 C-205.88 187.1 -202.82 175.55 -199.01 164.12 C-198.79 163.47 -198.58 162.82 -198.36 162.15 C-193.03 146.3 -185.53 130.87 -176.01 117.12 C-175.47 116.32 -174.93 115.52 -174.38 114.7 C-169.53 107.63 -164.33 100.84 -159.01 94.12 C-158.23 93.14 -157.46 92.15 -156.66 91.14 C-150.52 83.61 -143.79 76.69 -136.95 69.81 C-136.47 69.33 -136 68.85 -135.51 68.35 C-134.15 66.98 -132.78 65.62 -131.41 64.26 C-130.61 63.46 -129.81 62.66 -128.99 61.84 C-127.01 60.12 -127.01 60.12 -125.01 60.12 C-125.01 59.46 -125.01 58.8 -125.01 58.12 C-123.16 56.41 -123.16 56.41 -120.51 54.31 C-119.5 53.51 -118.5 52.71 -117.47 51.88 C-116.91 51.44 -116.36 51 -115.79 50.55 C-113.9 49.03 -112.03 47.5 -110.17 45.95 C-77.58 19.01 -42.69 1.72 0 0 Z " fill="#f9b905" transform="translate(1930.0078125,891.87890625)"/>
<path d="M0 0 C0.45 0.38 0.45 0.38 2.75 2.31 C2.75 2.97 2.75 3.63 2.75 4.31 C3.74 4.64 4.73 4.97 5.75 5.31 C14.47 15.35 18.61 27.62 21.75 40.31 C21.99 41.23 22.23 42.15 22.48 43.1 C25.84 58.67 22.85 74.94 19.7 90.27 C15.11 112.92 12.74 135.57 17.75 158.31 C20.45 158.73 20.45 158.73 23.75 158.31 C25.68 156.09 27.03 154.19 28.5 151.69 C29.37 150.3 30.24 148.92 31.11 147.53 C31.55 146.82 31.98 146.12 32.44 145.39 C35.94 139.85 39.88 134.6 43.75 129.31 C44.14 128.77 44.53 128.24 44.94 127.68 C51.85 118.22 59.61 109.73 67.75 101.31 C68.29 100.75 68.83 100.19 69.39 99.61 C75.72 93.04 82.17 86.45 89.75 81.31 C90.41 81.31 91.07 81.31 91.75 81.31 C91.75 80.65 91.75 79.99 91.75 79.31 C93.76 77.84 95.76 76.5 97.88 75.19 C98.51 74.79 99.14 74.39 99.79 73.98 C101.77 72.75 103.76 71.53 105.75 70.31 C106.35 69.95 106.95 69.58 107.56 69.21 C134.63 52.84 167.24 43.81 198.71 51.34 C206.53 53.84 212.18 58.51 216.75 65.31 C224.63 81.04 224.94 99.86 224.88 117.06 C224.87 117.79 224.87 118.53 224.87 119.28 C224.82 136.31 224.09 153.11 222.45 170.07 C220.81 187.16 220 204.14 219.75 221.31 C219.73 222.42 219.72 223.53 219.7 224.67 C219.61 232.13 219.64 239.58 219.72 247.03 C219.74 248.66 219.76 250.29 219.78 251.92 C220.4 313.73 220.4 313.73 229.23 336 C230.81 340.14 231.39 343.9 231.75 348.31 C231.78 348.69 231.78 348.69 231.95 350.61 C232.22 361.35 229.58 370.99 222.75 379.31 C222.41 379.73 222.41 379.73 220.68 381.84 C215.86 387.42 210.83 392.14 204.75 396.31 C203.96 396.87 203.17 397.44 202.36 398.02 C188.45 407.04 171.96 412.02 155.44 412.06 C154.43 412.07 153.42 412.07 152.39 412.07 C145.23 411.86 139.31 410.13 132.75 407.31 C132.07 407.03 131.4 406.74 130.7 406.44 C109.11 396.83 98.46 378.89 90.01 357.69 C79.74 330.81 75.53 301.68 75.65 273.02 C75.65 272.36 75.65 272.36 75.66 269.03 C75.66 265.58 75.67 262.13 75.68 258.67 C75.69 255.13 75.7 251.59 75.7 248.05 C75.71 241.14 75.73 234.23 75.75 227.31 C75.09 226.98 74.43 226.65 73.75 226.31 C67.9 230.39 62.35 234.41 57.43 239.59 C54.97 242.11 52.29 244.37 49.61 246.67 C47.95 248.14 46.41 249.65 44.88 251.25 C42.75 253.31 42.75 253.31 40.75 253.31 C40.42 254.3 40.09 255.29 39.75 256.31 C39.05 256.87 38.35 257.43 37.62 258 C33.83 261.06 30.89 264.6 27.75 268.31 C25.79 270.61 23.83 272.9 21.88 275.19 C21.35 275.8 20.83 276.41 20.3 277.04 C17.32 280.52 14.29 283.94 11.19 287.31 C5.69 293.37 0.74 299.84 -4.25 306.31 C-5.05 307.35 -5.85 308.39 -6.68 309.46 C-8.29 311.56 -9.9 313.66 -11.52 315.75 C-11.95 316.31 -12.38 316.88 -12.82 317.45 C-13.85 318.79 -14.88 320.13 -15.9 321.47 C-22.19 329.67 -28.46 337.76 -35.49 345.34 C-37.71 347.83 -39.51 350.47 -41.25 353.31 C-42.53 355.35 -43.85 357.36 -45.25 359.31 C-45.91 359.31 -46.57 359.31 -47.25 359.31 C-47.49 359.84 -47.73 360.37 -47.97 360.91 C-49.63 364.02 -51.63 366.84 -53.69 369.69 C-54.13 370.3 -54.57 370.91 -55.02 371.54 C-58.62 376.53 -62.37 381.39 -66.21 386.19 C-69.2 389.93 -71.99 393.77 -74.75 397.69 C-81.66 406.91 -90.23 412.21 -101.25 415.31 C-102.47 415.67 -103.69 416.02 -104.95 416.39 C-118.65 419.74 -134.63 418.2 -147.15 411.84 C-156.67 405.93 -159.09 397.54 -161.94 387.25 C-162.04 386.89 -162.04 386.89 -162.55 385.06 C-166.27 370.57 -166.63 355.68 -166.56 340.81 C-166.56 340.37 -166.56 340.37 -166.56 338.12 C-166.26 260.54 -145.7 181.4 -87.25 45.31 C-86.45 43.84 -85.66 42.36 -84.88 40.88 C-76.75 26.28 -63.22 3.27 -46.93 -2.96 C-46.04 -3.2 -45.16 -3.44 -44.25 -3.69 C-44.25 -4.35 -44.25 -5.01 -44.25 -5.69 C-28.43 -9.76 -13.86 -9.24 0 0 Z " fill="#f9b905" transform="translate(1661.25,225.6875)"/>
<path d="M0 0 C0.3 0.17 0.3 0.17 1.85 1.02 C6.13 3.51 6.13 3.51 7.25 6.88 C8.56 7.58 9.9 8.25 11.25 8.88 C19.28 15.46 24.67 24.22 29.06 33.5 C29.35 34.11 29.64 34.72 29.94 35.35 C33.33 42.79 34.56 49.64 34.59 57.71 C34.59 58.54 34.6 59.37 34.61 60.22 C34.63 62.9 34.63 65.57 34.62 68.25 C34.62 68.71 34.62 68.71 34.62 71.03 C34.49 118.52 18.91 166.48 -7.75 205.88 C-8.29 206.68 -8.83 207.48 -9.39 208.31 C-14.23 215.37 -19.47 222.13 -24.75 228.88 C-25.47 229.83 -26.19 230.78 -26.93 231.76 C-27.23 232.11 -27.23 232.11 -28.75 233.88 C-29.41 233.88 -30.07 233.88 -30.75 233.88 C-31.02 234.47 -31.28 235.06 -31.56 235.67 C-32.78 237.92 -34.03 239.42 -35.84 241.23 C-36.45 241.85 -37.07 242.47 -37.7 243.1 C-38.36 243.75 -39.01 244.4 -39.69 245.06 C-40.36 245.73 -41.04 246.4 -41.74 247.09 C-47.15 252.39 -52.68 257.32 -58.75 261.88 C-59.71 262.6 -60.66 263.32 -61.65 264.07 C-83.35 279.78 -106.38 287.65 -132.74 291.19 C-149.58 293.48 -149.58 293.48 -155.75 298.88 C-154.58 305.55 -150.03 309.12 -144.75 312.88 C-131.96 319.7 -115.63 316.93 -102.3 313.19 C-72.46 304.07 -45.47 287.56 -21.19 268.25 C-17.47 265.34 -13.62 262.67 -9.69 260.06 C-9.12 259.68 -8.56 259.29 -7.97 258.89 C-0.26 253.89 8.19 252.92 17.25 253.88 C23.66 255.57 27.55 258.44 31.25 263.88 C33.21 269.77 33.49 276 31 281.76 C26.88 288.45 21.68 294.22 16.25 299.88 C15.45 300.72 14.64 301.57 13.81 302.44 C7.35 308.58 0.64 314.44 -6.12 320.25 C-6.72 320.76 -7.31 321.27 -7.93 321.8 C-16.2 328.88 -16.2 328.88 -18.75 328.88 C-18.75 329.54 -18.75 330.19 -18.75 330.88 C-20.8 332.57 -20.8 332.57 -23.62 334.56 C-24.08 334.88 -24.08 334.88 -26.37 336.51 C-27.49 337.3 -28.62 338.09 -29.75 338.88 C-30.5 339.4 -31.24 339.93 -32.01 340.47 C-52.73 355.04 -73.84 368.65 -96.23 380.53 C-98.37 381.67 -100.49 382.83 -102.62 383.99 C-111.6 388.8 -121.03 392.49 -130.5 396.19 C-131.16 396.45 -131.83 396.71 -132.51 396.98 C-165.98 410.09 -201.75 410.41 -235.75 398.88 C-236.1 398.76 -236.1 398.76 -237.84 398.18 C-251.62 393.51 -263.17 386.71 -274.75 377.88 C-275.27 377.49 -275.27 377.49 -277.88 375.56 C-291.17 363.14 -298.61 347.68 -301.75 329.88 C-301.9 329.05 -302.05 328.23 -302.2 327.38 C-306.72 300.92 -306.1 273.3 -301.75 246.88 C-301.6 245.91 -301.45 244.94 -301.29 243.95 C-296.75 215.57 -287.35 187.65 -274.75 161.88 C-274.22 160.77 -273.68 159.67 -273.13 158.53 C-265.44 142.84 -256.89 128.11 -246.75 113.88 C-246.25 113.17 -245.76 112.47 -245.25 111.75 C-240.29 104.79 -235.12 97.99 -229.88 91.25 C-229.43 90.68 -228.99 90.11 -228.54 89.53 C-225.82 86.07 -222.89 82.96 -219.75 79.88 C-218.73 78.7 -217.73 77.51 -216.75 76.31 C-214.32 73.43 -211.71 71.21 -208.75 68.88 C-208.15 68.11 -207.55 67.35 -206.94 66.56 C-204.53 63.6 -201.9 61.29 -199 58.82 C-196.64 56.78 -194.36 54.68 -192.06 52.56 C-182.32 43.79 -171.66 36.12 -160.75 28.88 C-160.07 28.42 -159.38 27.96 -158.68 27.49 C-138.89 14.35 -118.19 4.62 -95.75 -3.12 C-95.08 -3.36 -94.4 -3.59 -93.71 -3.83 C-87.22 -6.04 -80.6 -7.71 -73.94 -9.31 C-73.24 -9.48 -72.55 -9.65 -71.83 -9.82 C-47.14 -15.55 -22.13 -12.32 0 0 Z M-78.75 53.88 C-84.97 59.79 -90.4 66.17 -95.75 72.88 C-96.39 73.64 -97.02 74.41 -97.68 75.2 C-107.88 87.62 -116.77 100.94 -124.75 114.88 C-125.13 115.52 -125.51 116.17 -125.9 116.84 C-138.3 138.19 -148.81 160.49 -156.75 183.88 C-156.9 184.31 -156.9 184.31 -157.64 186.5 C-163.33 203.52 -167.06 220.63 -167.19 238.62 C-167.2 239.6 -167.21 240.58 -167.22 241.58 C-167.14 247.84 -166.61 254.2 -163.75 259.88 C-160.75 262.21 -158.57 263.02 -154.75 262.88 C-139.91 257.53 -129.66 240.64 -121.75 227.88 C-121.36 227.26 -120.97 226.64 -120.57 226.01 C-115.05 217.21 -110.18 208.17 -105.68 198.81 C-104.8 196.98 -103.91 195.16 -103.01 193.34 C-85.63 157.26 -71.86 115.87 -71.38 75.56 C-71.36 74.72 -71.35 73.88 -71.33 73.01 C-71.38 67.29 -72.19 62.05 -74.75 56.88 C-76.94 54.81 -76.94 54.81 -78.75 53.88 Z " fill="#f9b905" transform="translate(1408.75,223.125)"/>
<path d="M0 0 C0.31 0.15 0.31 0.15 1.89 0.9 C10.19 4.93 18.09 9.86 25 16 C25.33 16.99 25.66 17.98 26 19 C27.33 19.68 28.66 20.35 30 21 C31.75 22.77 31.75 22.77 33.44 24.81 C35.36 27.12 37.27 29.27 39.42 31.37 C59.04 51.41 68.64 80.82 68.39 108.41 C68.38 110.5 68.39 112.59 68.41 114.68 C68.43 127.14 66.39 139.05 62.38 150.88 C62.12 151.62 61.87 152.36 61.61 153.13 C50.82 183.58 27.32 207.96 -1.39 222.29 C-30.63 236.16 -64.84 238.19 -95.48 227.54 C-115.01 220.33 -132.84 209.01 -146.32 192.98 C-147.42 191.68 -148.55 190.41 -149.71 189.18 C-170.84 166.42 -178.87 133.82 -177.92 103.55 C-176.68 82.11 -169.9 60.9 -158 43 C-157.71 42.56 -157.71 42.56 -156.25 40.35 C-153.13 35.77 -149.98 31.87 -146 28 C-145.09 27.08 -144.18 26.16 -143.25 25.21 C-142.78 24.74 -142.78 24.74 -140.44 22.38 C-139.97 21.9 -139.5 21.42 -139.02 20.93 C-136.49 18.39 -134.01 15.96 -131 14 C-130.34 14 -129.68 14 -129 14 C-128.84 13.5 -128.84 13.5 -128 11 C-116.33 2.52 -102.78 -3.88 -89 -8 C-88.67 -8.1 -88.67 -8.1 -87.01 -8.6 C-58.06 -16.95 -26.78 -12.98 0 0 Z " fill="#f9b905" transform="translate(2454,404)"/>
<path d="M0 0 C2.39 2.17 2.39 2.17 4 4 C4 4.66 4 5.32 4 6 C4.28 6.11 4.28 6.11 5.68 6.66 C8.77 8.44 10.79 10.73 13.19 13.38 C14.07 14.33 14.95 15.29 15.86 16.27 C17.86 18.82 18.32 19.99 19 23 C19.99 23.33 20.98 23.66 22 24 C23.4 26.07 24.62 28.07 25.81 30.25 C26.16 30.88 26.51 31.51 26.87 32.16 C37.72 51.94 43.65 72.15 43.44 94.75 C43.43 95.44 43.43 96.14 43.43 96.85 C43.36 108.28 42.33 119.03 39 130 C38.65 131.22 38.3 132.44 37.94 133.69 C32.96 149.17 23.14 167.01 11 178 C10.34 178 9.68 178 9 178 C8.79 178.56 8.59 179.11 8.38 179.69 C6.82 182.3 4.92 183.86 2.55 185.73 C1 187 1 187 -1.19 189.31 C-14.49 202.03 -31.53 209.08 -49 214 C-50.21 214.34 -51.43 214.68 -52.68 215.04 C-70.41 219.13 -91.49 219.11 -109 214 C-110.29 213.66 -111.59 213.31 -112.88 212.97 C-129.01 208.49 -147.31 200.26 -159 188 C-160.11 187.05 -161.24 186.11 -162.38 185.19 C-165.96 182.15 -169.29 178.85 -172 175 C-172 174.34 -172 173.68 -172 173 C-172.99 172.67 -173.98 172.34 -175 172 C-176.03 170.35 -177.02 168.68 -178 167 C-178.59 166.46 -179.18 165.93 -179.79 165.38 C-182.88 162.05 -184.79 158.32 -186.88 154.31 C-187.31 153.47 -187.75 152.63 -188.2 151.76 C-203.06 122.58 -206.63 88.5 -196.48 57.2 C-191.53 42.77 -184.6 27.18 -174 16 C-173.34 16 -172.68 16 -172 16 C-171.75 15.44 -171.51 14.89 -171.25 14.31 C-167.44 7.26 -161.19 2.84 -155 -2 C-154.13 -2.69 -153.26 -3.37 -152.36 -4.08 C-106.68 -38.77 -44.16 -34.67 0 0 Z M-153 21 C-153 21.66 -153 22.32 -153 23 C-153.49 23.16 -153.49 23.16 -156 24 C-156.33 24.82 -156.66 25.65 -157 26.5 C-157.33 27.32 -157.66 28.15 -158 29 C-158.49 29.16 -158.49 29.16 -161 30 C-163.24 32.79 -164.98 35.93 -166.81 39 C-167.35 39.9 -167.89 40.8 -168.44 41.73 C-176.7 55.99 -182.03 72.47 -183 89 C-183.05 89.77 -183.11 90.54 -183.16 91.33 C-184.07 117.03 -174.2 145.19 -156.89 164.33 C-155 166 -155 166 -153 166 C-152.34 167.32 -151.68 168.64 -151 170 C-150.34 170 -149.68 170 -149 170 C-148.67 170.99 -148.34 171.98 -148 173 C-146.35 174.03 -144.68 175.02 -143 176 C-142.39 176.63 -141.78 177.27 -141.14 177.92 C-137.37 181.58 -132.63 183.59 -128 186 C-127.1 186.51 -126.21 187.02 -125.28 187.54 C-102.13 200.19 -74 200.86 -49 194 C-35.34 189.8 -23.24 182.73 -12 174 C-11.15 173.35 -10.3 172.69 -9.43 172.02 C-7.12 170.1 -5.16 168.13 -3.19 165.88 C-2.58 165.19 -1.98 164.51 -1.36 163.8 C0 162 0 162 0 160 C0.99 159.67 1.98 159.34 3 159 C16.54 140.38 24.44 118.3 24.31 95.25 C24.31 94.2 24.3 93.15 24.3 92.07 C24.18 83.71 23.22 76.1 21 68 C20.73 66.93 20.47 65.87 20.19 64.77 C17.42 54.67 12.81 44.72 7 36 C6.34 36 5.68 36 5 36 C4.69 35.22 4.38 34.43 4.06 33.62 C3 31 3 31 2 29 C1.34 29 0.68 29 0 29 C-0.27 28.41 -0.54 27.83 -0.82 27.23 C-3.21 22.72 -6.29 18.86 -10.88 16.56 C-11.58 16.38 -12.28 16.19 -13 16 C-13 15.34 -13 14.68 -13 14 C-14.52 12.77 -14.52 12.77 -16.66 11.39 C-17.06 11.14 -17.06 11.14 -19.04 9.86 C-59.59 -15.44 -118.5 -17.37 -153 21 Z " fill="#f9b905" transform="translate(2357,104)"/>
<path d="M0 0 C1.37 1.38 1.37 1.38 1.37 3.38 C1.64 3.49 1.64 3.49 3 4.06 C7.55 6.58 11.61 9.92 14.37 14.38 C14.37 15.03 14.37 15.69 14.37 16.38 C15.36 16.7 16.35 17.03 17.37 17.38 C36.72 37.18 43.92 68.4 43.72 95.07 C43.18 120.04 35.34 141.95 21 162.31 C20.57 162.92 20.14 163.53 19.7 164.16 C18.64 165.61 17.51 167 16.37 168.38 C15.71 168.38 15.05 168.38 14.37 168.38 C14.26 168.64 14.26 168.64 13.68 170 C11.16 174.56 7.82 178.61 3.37 181.38 C2.71 181.38 2.05 181.38 1.37 181.38 C1.04 182.37 0.71 183.36 0.37 184.38 C-1.28 185.4 -2.95 186.4 -4.63 187.38 C-5.17 187.97 -5.7 188.56 -6.25 189.17 C-26.34 207.83 -58.71 211.48 -84.61 210.54 C-106.79 209.31 -127.99 200.67 -145.63 187.38 C-146.62 186.72 -147.61 186.06 -148.63 185.38 C-148.63 184.72 -148.63 184.06 -148.63 183.38 C-149.22 183.1 -149.81 182.82 -150.42 182.54 C-157.04 179.05 -161.93 173.06 -166.63 167.38 C-166.91 167.05 -166.91 167.05 -168.31 165.43 C-180.57 150.59 -188.18 132.2 -191.63 113.38 C-191.72 112.88 -191.72 112.88 -192.19 110.38 C-194.3 94.9 -193.98 77.41 -189.63 62.38 C-189.36 61.31 -189.1 60.25 -188.82 59.16 C-185.5 47 -179.46 35.97 -172.75 25.38 C-172.56 25.07 -172.56 25.07 -171.6 23.54 C-170.67 22.11 -169.65 20.74 -168.63 19.38 C-167.97 19.38 -167.31 19.38 -166.63 19.38 C-166.52 19.01 -166.52 19.01 -165.94 17.19 C-164.37 13.81 -162.42 11.82 -159.63 9.38 C-158.97 9.38 -158.31 9.38 -157.63 9.38 C-157.3 8.38 -156.97 7.4 -156.63 6.38 C-154.92 4.91 -154.92 4.91 -152.82 3.44 C-150.59 1.87 -148.64 0.38 -146.73 -1.58 C-107.83 -39.4 -39.52 -31.08 0 0 Z M-134.63 12.38 C-134.63 13.03 -134.63 13.69 -134.63 14.38 C-135.36 14.62 -136.1 14.87 -136.86 15.12 C-139.89 16.49 -141.63 18 -143.94 20.38 C-144.64 21.08 -145.34 21.78 -146.05 22.5 C-147.63 24.38 -147.63 24.38 -147.63 26.38 C-148.12 26.54 -148.12 26.54 -150.63 27.38 C-150.96 28.2 -151.29 29.03 -151.63 29.88 C-151.96 30.7 -152.29 31.53 -152.63 32.38 C-153.12 32.54 -153.12 32.54 -155.63 33.38 C-156.81 34.9 -156.81 34.9 -157.93 36.88 C-158.35 37.61 -158.77 38.35 -159.2 39.1 C-159.63 39.89 -160.06 40.68 -160.5 41.5 C-160.95 42.31 -161.39 43.12 -161.85 43.96 C-165.73 51.22 -168.47 58.41 -170.63 66.38 C-170.95 67.43 -171.26 68.49 -171.59 69.57 C-177.47 91.94 -174.2 119.26 -162.63 139.38 C-151.27 157.83 -151.27 157.83 -146.63 159.38 C-145.44 161.44 -145.44 161.44 -144.63 163.38 C-143.97 163.38 -143.31 163.38 -142.63 163.38 C-142.52 163.68 -142.52 163.68 -141.94 165.25 C-140.24 168 -138.58 168.24 -135.63 169.38 C-135.3 170.37 -134.97 171.36 -134.63 172.38 C-132.13 173.97 -129.67 175.41 -127.07 176.81 C-126.72 177 -126.72 177 -124.97 177.97 C-122.87 179.13 -120.75 180.25 -118.63 181.38 C-117.98 181.73 -117.32 182.09 -116.65 182.46 C-111.62 185.12 -106.58 186.69 -101.07 188.06 C-100.25 188.27 -99.44 188.49 -98.61 188.71 C-72.14 195.48 -45.56 190.43 -22.27 176.64 C-17.76 173.89 -13.63 170.82 -9.63 167.38 C-8.96 166.83 -8.29 166.29 -7.59 165.74 C11.3 150.12 21.51 125.22 24.37 101.38 C25.8 79.03 20.95 58.6 9.37 39.38 C8.81 38.42 8.26 37.46 7.68 36.47 C4.67 31.46 1.82 27.41 -2.85 23.87 C-4.63 22.37 -5.94 20.84 -7.38 19.02 C-10.52 15.3 -13.91 12.86 -18.07 10.38 C-18.42 10.16 -18.42 10.16 -20.18 9.09 C-55.7 -12.06 -100.48 -12.84 -134.63 12.38 Z " fill="#f9b905" transform="translate(2758.62890625,200.625)"/>
<path d="M0 0 C0 0.99 0 1.98 0 3 C-0.33 3.16 -0.33 3.16 -2 4 C-1.34 2.68 -0.68 1.36 0 0 Z " fill="#f9b905" transform="translate(2411,1277)"/>
<path d="M0 0 C0 3 0 3 0 3 Z " fill="#f9b905" transform="translate(2408,1281)"/>
<path d="M0 0 C0.33 0.99 0.66 1.98 1 3 C0.34 2.67 -0.32 2.34 -1 2 C-0.67 1.34 -0.34 0.68 0 0 Z " fill="#f9b905" transform="translate(2459,1204)"/>
<path d="M0 0 C0.33 0.16 0.33 0.16 2 1 C1.67 1.66 1.34 2.32 1 3 C0.67 2.01 0.34 1.02 0 0 Z " fill="#f9b905" transform="translate(2605,1164)"/>
<path d="" fill="#f9b905" transform="translate(0,0)"/>
<path d="M0 0 C3 1 3 1 3 1 Z " fill="#f9b905" transform="translate(517,114)"/>
<path d="" fill="#f9b905" transform="translate(0,0)"/>
<path d="" fill="#f9b905" transform="translate(0,0)"/>
<path d="" fill="#f9b905" transform="translate(0,0)"/>
<path d="" fill="#f9b905" transform="translate(0,0)"/>
<path d="" fill="#f9b905" transform="translate(0,0)"/>
<path d="" fill="#f9b905" transform="translate(0,0)"/>
<path d="" fill="#f9b905" transform="translate(0,0)"/>
<path d="" fill="#f9b905" transform="translate(0,0)"/>
<path d="M0 0 C2 1 2 1 2 1 Z " fill="#f9b905" transform="translate(514,114)"/>
<path d="" fill="#f9b905" transform="translate(0,0)"/>
<path d="" fill="#f9b905" transform="translate(0,0)"/>
<path d="" fill="#f9b905" transform="translate(0,0)"/>
<path d="" fill="#f9b905" transform="translate(0,0)"/>
<path d="" fill="#f9b905" transform="translate(0,0)"/>
<path d="" fill="#f9b905" transform="translate(0,0)"/>
<path d="" fill="#f9b905" transform="translate(0,0)"/>
<path d="" fill="#f9b905" transform="translate(0,0)"/>
<path d="" fill="#f9b905" transform="translate(0,0)"/>
<path d="" fill="#f9b905" transform="translate(0,0)"/>
<path d="" fill="#f9b905" transform="translate(0,0)"/>
<path d="" fill="#f9b905" transform="translate(0,0)"/>
<path d="" fill="#f9b905" transform="translate(0,0)"/>
<path d="" fill="#f9b905" transform="translate(0,0)"/>
<path d="" fill="#f9b905" transform="translate(0,0)"/>
<path d="" fill="#f9b905" transform="translate(0,0)"/>
<path d="" fill="#f9b905" transform="translate(0,0)"/>
<path d="" fill="#f9b905" transform="translate(0,0)"/>
<path d="" fill="#f9b905" transform="translate(0,0)"/>
<path d="" fill="#f9b905" transform="translate(0,0)"/>
<path d="" fill="#f9b905" transform="translate(0,0)"/>
<path d="" fill="#f9b905" transform="translate(0,0)"/>
<path d="" fill="#f9b905" transform="translate(0,0)"/>
<path d="" fill="#f9b905" transform="translate(0,0)"/>
<path d="" fill="#f9b905" transform="translate(0,0)"/>
<path d="" fill="#f9b905" transform="translate(0,0)"/>
<path d="" fill="#f9b905" transform="translate(0,0)"/>
</svg>